<?xml version="1.0" standalone="no"?>
<!DOCTYPE svg PUBLIC "-//W3C//DTD SVG 1.1//EN" "http://www.w3.org/Graphics/SVG/1.1/DTD/svg11.dtd" >
<svg xmlns="http://www.w3.org/2000/svg" xmlns:xlink="http://www.w3.org/1999/xlink" version="1.1">
<metadata>
Created by FontForge 20150102 at Sat Mar  7 20:22:25 2015
 By uniteet7
Digitized data copyright (c) 2012-2015, The Mozilla Foundation and Telefonica S.A.
</metadata>
<defs>
<font id="FiraSans-Regular" horiz-adv-x="560" >
  <font-face 
    font-family="Fira Sans"
    font-weight="400"
    font-stretch="normal"
    units-per-em="1000"
    panose-1="2 11 5 3 5 0 0 2 0 4"
    ascent="785"
    descent="-215"
    x-height="527"
    cap-height="689"
    bbox="-381 -350 1360 1073"
    underline-thickness="50"
    underline-position="-50"
    unicode-range="U+000D-1F310"
  />
<missing-glyph horiz-adv-x="666" 
d="M543 -350h-420v1400h420v-1400zM178 998v-1296h311v1296h-311zM409.5 419q25.5 -32 25.5 -83q0 -53 -22.5 -82t-72.5 -36v-45q0 -11 -7.5 -17.5t-17.5 -6.5t-17.5 6.5t-7.5 17.5v84q53 3 72 19.5t19 57.5q0 33 -13 51t-48 18q-29 0 -52 -11q-8 -3 -13 -3q-11 0 -17.5 6.5
t-6.5 16.5q0 19 29.5 29t63.5 10q60 0 85.5 -32zM340 110q10 -10 10 -25q0 -16 -10 -26.5t-25 -10.5t-25 10.5t-10 26.5q0 15 10 25t25 10t25 -10z" />
    <glyph glyph-name="uniFB01" unicode="fi" horiz-adv-x="585" 
d="M362.5 741q34.5 -9 69.5 -27l-32 -64q-52 25 -111 25q-53 0 -73 -19t-20 -59v-70h294v-527h-92v456h-202v-456h-92v456h-84v71h84v69q0 70 45 112t137 42q42 0 76.5 -9z" />
    <glyph glyph-name="uniFB02" unicode="fl" horiz-adv-x="602" 
d="M582 6q-37 -18 -78 -18q-51 0 -78 29.5t-27 86.5v555q-31 9 -57 13t-58 4q-49 0 -68.5 -18t-19.5 -58v-73h128l-10 -71h-118v-456h-92v456h-84v71h84v72q0 69 44.5 110t129.5 41q34 0 61.5 -5t59.5 -15v1l92 11v-636q0 -21 7.5 -31.5t25.5 -10.5q19 0 34 6z" />
    <glyph glyph-name=".notdef" horiz-adv-x="666" 
d="M543 -350h-420v1400h420v-1400zM178 998v-1296h311v1296h-311zM409.5 419q25.5 -32 25.5 -83q0 -53 -22.5 -82t-72.5 -36v-45q0 -11 -7.5 -17.5t-17.5 -6.5t-17.5 6.5t-7.5 17.5v84q53 3 72 19.5t19 57.5q0 33 -13 51t-48 18q-29 0 -52 -11q-8 -3 -13 -3q-11 0 -17.5 6.5
t-6.5 16.5q0 19 29.5 29t63.5 10q60 0 85.5 -32zM340 110q10 -10 10 -25q0 -16 -10 -26.5t-25 -10.5t-25 10.5t-10 26.5q0 15 10 25t25 10t25 -10z" />
    <glyph glyph-name="null" horiz-adv-x="0" 
 />
    <glyph glyph-name="nonmarkingreturn" unicode="&#xd;" horiz-adv-x="265" 
 />
    <glyph glyph-name="space" unicode=" " horiz-adv-x="265" 
 />
    <glyph glyph-name="A" unicode="A" horiz-adv-x="573" 
d="M415 173h-261l-52 -173h-96l221 689h120l220 -689h-100zM392 250l-107 360l-108 -360h215z" />
    <glyph glyph-name="Aacute" unicode="&#xc1;" horiz-adv-x="573" 
d="M415 173h-261l-52 -173h-96l221 689h120l220 -689h-100zM392 250l-107 360l-108 -360h215zM409 834l-216 -79l-24 49l200 107z" />
    <glyph glyph-name="Abreve" unicode="&#x102;" horiz-adv-x="573" 
d="M415 173h-261l-52 -173h-96l221 689h120l220 -689h-100zM392 250l-107 360l-108 -360h215zM183 792q-42 34 -48 89l61 13q23 -66 89 -66q34 0 57.5 17.5t34.5 48.5l61 -13q-6 -55 -49 -89t-104 -34q-60 0 -102 34z" />
    <glyph glyph-name="uni1EAE" unicode="&#x1eae;" horiz-adv-x="573" 
d="M283 870l-38 35l118 145l56 -54zM183 774q-42 34 -48 89l61 13q23 -66 89 -66q34 0 57.5 17.5t34.5 48.5l61 -13q-6 -55 -49 -89t-104 -34q-60 0 -102 34zM415 173h-261l-52 -173h-96l221 689h120l220 -689h-100zM392 250l-107 360l-108 -360h215z" />
    <glyph glyph-name="uni1EB6" unicode="&#x1eb6;" horiz-adv-x="573" 
d="M415 173h-261l-52 -173h-96l221 689h120l220 -689h-100zM392 250l-107 360l-108 -360h215zM333 -92q18 -18 18 -45t-18 -44.5t-47 -17.5q-28 0 -46 17.5t-18 44.5t18 45t46 18q29 0 47 -18zM183 792q-42 34 -48 89l61 13q23 -66 89 -66q34 0 57.5 17.5t34.5 48.5l61 -13
q-6 -55 -49 -89t-104 -34q-60 0 -102 34z" />
    <glyph glyph-name="uni1EB0" unicode="&#x1eb0;" horiz-adv-x="573" 
d="M286 870l-136 126l56 54l118 -145zM183 774q-42 34 -48 89l61 13q23 -66 89 -66q34 0 57.5 17.5t34.5 48.5l61 -13q-6 -55 -49 -89t-104 -34q-60 0 -102 34zM415 173h-261l-52 -173h-96l221 689h120l220 -689h-100zM392 250l-107 360l-108 -360h215z" />
    <glyph glyph-name="uni1EB2" unicode="&#x1eb2;" horiz-adv-x="573" 
d="M216 996l-22 53q41 24 94 24q51 0 79.5 -24.5t28.5 -66.5q0 -37 -21 -58.5t-60 -27.5v-48h-69v84q39 5 55 13.5t16 29.5q0 18 -12 27t-32 9q-30 0 -57 -15zM183 774q-42 34 -48 89l61 13q23 -66 89 -66q34 0 57.5 17.5t34.5 48.5l61 -13q-6 -55 -49 -89t-104 -34
q-60 0 -102 34zM415 173h-261l-52 -173h-96l221 689h120l220 -689h-100zM392 250l-107 360l-108 -360h215z" />
    <glyph glyph-name="uni1EB4" unicode="&#x1eb4;" horiz-adv-x="573" 
d="M199 940q-12 -11 -25 -35l-56 28q19 40 46.5 64t62.5 24q21 0 36 -7.5t34 -20.5q3 -2 12.5 -8t17.5 -9t16 -3q15 0 27 10.5t26 33.5l56 -28q-19 -42 -47 -64t-62 -22q-19 0 -34.5 7t-34.5 20q-15 11 -25.5 16t-21.5 5q-16 0 -28 -11zM342.5 827.5q23.5 17.5 34.5 48.5
l61 -13q-6 -55 -49 -89t-104 -34q-60 0 -102 34t-48 89l61 13q23 -66 89 -66q34 0 57.5 17.5zM415 173h-261l-52 -173h-96l221 689h120l220 -689h-100zM392 250l-107 360l-108 -360h215z" />
    <glyph glyph-name="uni01CD" unicode="&#x1cd;" horiz-adv-x="573" 
d="M415 173h-261l-52 -173h-96l221 689h120l220 -689h-100zM392 250l-107 360l-108 -360h215zM453 864l-135 -110h-61l-136 110l40 45l126 -81l127 81z" />
    <glyph glyph-name="Acircumflex" unicode="&#xc2;" horiz-adv-x="573" 
d="M415 173h-261l-52 -173h-96l221 689h120l220 -689h-100zM392 250l-107 360l-108 -360h215zM286 840l-126 -81l-40 45l136 110h61l135 -110l-39 -45z" />
    <glyph glyph-name="uni1EA4" unicode="&#x1ea4;" horiz-adv-x="573" 
d="M416 839l-38 35l118 145l56 -54zM159 716l-40 45l136 110h61l135 -110l-39 -45l-127 81zM415 173h-261l-52 -173h-96l221 689h120l220 -689h-100zM392 250l-107 360l-108 -360h215z" />
    <glyph glyph-name="uni1EAC" unicode="&#x1eac;" horiz-adv-x="573" 
d="M415 173h-261l-52 -173h-96l221 689h120l220 -689h-100zM392 250l-107 360l-108 -360h215zM333 -92q18 -18 18 -45t-18 -44.5t-47 -17.5q-28 0 -46 17.5t-18 44.5t18 45t46 18q29 0 47 -18zM286 840l-126 -81l-40 45l136 110h61l135 -110l-39 -45z" />
    <glyph glyph-name="uni1EA6" unicode="&#x1ea6;" horiz-adv-x="573" 
d="M155 839l-136 126l56 54l118 -145zM119 761l136 110h61l135 -110l-39 -45l-127 81l-126 -81zM415 173h-261l-52 -173h-96l221 689h120l220 -689h-100zM392 250l-107 360l-108 -360h215z" />
    <glyph glyph-name="uni1EA8" unicode="&#x1ea8;" horiz-adv-x="573" 
d="M370 965l-22 53q41 24 94 24q51 0 79.5 -24.5t28.5 -66.5q0 -37 -21 -58.5t-60 -27.5v-48h-69v84q39 5 55 13.5t16 29.5q0 18 -12 27t-32 9q-30 0 -57 -15zM159 716l-40 45l136 110h61l135 -110l-39 -45l-127 81zM415 173h-261l-52 -173h-96l221 689h120l220 -689h-100z
M392 250l-107 360l-108 -360h215z" />
    <glyph glyph-name="uni1EAA" unicode="&#x1eaa;" horiz-adv-x="573" 
d="M199 931q-12 -11 -25 -35l-56 28q19 40 46.5 64t62.5 24q21 0 36 -7.5t34 -20.5q3 -2 12.5 -8t17.5 -9t16 -3q15 0 27 10.5t26 33.5l56 -28q-19 -42 -47 -64t-62 -22q-19 0 -34.5 7t-34.5 20q-15 11 -25.5 16t-21.5 5q-16 0 -28 -11zM158 716l-40 45l136 110h61l135 -110
l-39 -45l-127 81zM415 173h-261l-52 -173h-96l221 689h120l220 -689h-100zM392 250l-107 360l-108 -360h215z" />
    <glyph glyph-name="Adieresis" unicode="&#xc4;" horiz-adv-x="573" 
d="M415 173h-261l-52 -173h-96l221 689h120l220 -689h-100zM392 250l-107 360l-108 -360h215zM222.5 877.5q16.5 -16.5 16.5 -40.5t-16.5 -40.5t-40.5 -16.5q-25 0 -41.5 16.5t-16.5 40.5t16.5 40.5t41.5 16.5q24 0 40.5 -16.5zM432.5 877.5q16.5 -16.5 16.5 -40.5
t-16.5 -40.5t-41.5 -16.5q-24 0 -40.5 16.5t-16.5 40.5t16.5 40.5t40.5 16.5q25 0 41.5 -16.5z" />
    <glyph glyph-name="uni01DE" unicode="&#x1de;" horiz-adv-x="573" 
d="M423 909h-273v69h273v-69zM140.5 762.5q-16.5 16.5 -16.5 40.5t16.5 40.5t41.5 16.5q24 0 40.5 -16.5t16.5 -40.5t-16.5 -40.5t-40.5 -16.5q-25 0 -41.5 16.5zM350.5 843.5q16.5 16.5 40.5 16.5q25 0 41.5 -16.5t16.5 -40.5t-16.5 -40.5t-41.5 -16.5q-24 0 -40.5 16.5
t-16.5 40.5t16.5 40.5zM415 173h-261l-52 -173h-96l221 689h120l220 -689h-100zM392 250l-107 360l-108 -360h215z" />
    <glyph glyph-name="uni1EA0" unicode="&#x1ea0;" horiz-adv-x="573" 
d="M415 173h-261l-52 -173h-96l221 689h120l220 -689h-100zM392 250l-107 360l-108 -360h215zM333 -92q18 -18 18 -45t-18 -44.5t-47 -17.5q-28 0 -46 17.5t-18 44.5t18 45t46 18q29 0 47 -18z" />
    <glyph glyph-name="Agrave" unicode="&#xc0;" horiz-adv-x="573" 
d="M415 173h-261l-52 -173h-96l221 689h120l220 -689h-100zM392 250l-107 360l-108 -360h215zM397 804l-24 -49l-216 79l39 77z" />
    <glyph glyph-name="uni1EA2" unicode="&#x1ea2;" horiz-adv-x="573" 
d="M415 173h-261l-52 -173h-96l221 689h120l220 -689h-100zM392 250l-107 360l-108 -360h215zM248 847q39 5 55 13.5t16 29.5q0 18 -12 27t-32 9q-30 0 -57 -15l-22 53q41 24 94 24q51 0 79.5 -24.5t28.5 -66.5q0 -37 -21 -58.5t-60 -27.5v-48h-69v84z" />
    <glyph glyph-name="uni2C6D" unicode="&#x2c6d;" horiz-adv-x="690" 
d="M594 88.5q10 -16.5 36 -28.5l-32 -72q-46 11 -69.5 29.5t-33.5 51.5q-31 -38 -74 -59.5t-97 -21.5q-75 0 -136 38t-97 113.5t-36 183.5q0 119 36.5 204t99 129.5t141.5 44.5q48 0 88 -19t71 -52l9 59h84v-547q0 -37 10 -53.5zM418 85q36 19 71 57v410q-61 71 -147 71
q-88 0 -137 -72.5t-49 -227.5q0 -133 48.5 -195t128.5 -62q49 0 85 19z" />
    <glyph glyph-name="Amacron" unicode="&#x100;" horiz-adv-x="573" 
d="M415 173h-261l-52 -173h-96l221 689h120l220 -689h-100zM392 250l-107 360l-108 -360h215zM150 787v69h273v-69h-273z" />
    <glyph glyph-name="Aogonek" unicode="&#x104;" horiz-adv-x="573" 
d="M430 -57.5q-26 -26.5 -26 -56.5q0 -48 56 -48q27 0 61 7l-9 -70q-35 -7 -63 -7q-57 0 -91 28.5t-34 72.5q0 48 34 84t104 63l-47 157h-261l-52 -173h-96l221 689h120l220 -689h-40q-71 -31 -97 -57.5zM392 250l-107 360l-108 -360h215z" />
    <glyph glyph-name="Aring" unicode="&#xc5;" horiz-adv-x="573" 
d="M415 173h-261l-52 -173h-96l221 689h120l220 -689h-100zM392 250l-107 360l-108 -360h215zM369 931.5q32 -30.5 32 -75.5t-32 -75.5t-82 -30.5t-82 30.5t-32 75.5t32 75.5t82 30.5t82 -30.5zM248 897q-14 -15 -14 -41t14 -41t39 -15q24 0 38.5 15t14.5 41t-14 41t-39 15
t-39 -15z" />
    <glyph glyph-name="Atilde" unicode="&#xc3;" horiz-adv-x="573" 
d="M415 173h-261l-52 -173h-96l221 689h120l220 -689h-100zM392 250l-107 360l-108 -360h215zM310.5 789q-15.5 7 -34.5 20q-15 11 -25.5 16t-21.5 5q-16 0 -28 -11t-25 -35l-56 28q19 40 46.5 64t62.5 24q21 0 36 -7.5t34 -20.5q3 -2 12.5 -8t17.5 -9t16 -3q15 0 27 10.5
t26 33.5l56 -28q-19 -42 -47 -64t-62 -22q-19 0 -34.5 7z" />
    <glyph glyph-name="AE" unicode="&#xc6;" horiz-adv-x="816" 
d="M762 76v-76h-304l-40 173h-268l-65 -173h-97l274 689h459l-11 -76h-309l56 -226h255v-76h-236l59 -235h227zM400 250l-84 363l-137 -363h221z" />
    <glyph glyph-name="AEacute" unicode="&#x1fc;" horiz-adv-x="816" 
d="M762 76v-76h-304l-40 173h-268l-65 -173h-97l274 689h459l-11 -76h-309l56 -226h255v-76h-236l59 -235h227zM400 250l-84 363l-137 -363h221zM596 834l-216 -79l-24 49l200 107z" />
    <glyph glyph-name="B" unicode="B" horiz-adv-x="608" 
d="M519 314q44 -38 44 -118q0 -196 -273 -196h-190v689h163q131 0 200.5 -43t69.5 -131q0 -60 -37.5 -100t-91.5 -51q71 -12 115 -50zM195 614v-217h104q60 0 98.5 29t38.5 82q0 60 -40.5 83t-122.5 23h-78zM418.5 101q44.5 25 44.5 95q0 68 -43 98t-112 30h-113v-248h95
q84 0 128.5 25z" />
    <glyph glyph-name="uni1E04" unicode="&#x1e04;" horiz-adv-x="608" 
d="M519 314q44 -38 44 -118q0 -196 -273 -196h-190v689h163q131 0 200.5 -43t69.5 -131q0 -60 -37.5 -100t-91.5 -51q71 -12 115 -50zM195 614v-217h104q60 0 98.5 29t38.5 82q0 60 -40.5 83t-122.5 23h-78zM418.5 101q44.5 25 44.5 95q0 68 -43 98t-112 30h-113v-248h95
q84 0 128.5 25zM356 -92q18 -18 18 -45t-18 -44.5t-47 -17.5q-28 0 -46 17.5t-18 44.5t18 45t46 18q29 0 47 -18z" />
    <glyph glyph-name="uni0181" unicode="&#x181;" horiz-adv-x="691" 
d="M602 314q44 -38 44 -118q0 -196 -273 -196h-190v614h-30q-54 0 -54 -50q0 -17 5 -32.5t15 -37.5l-70 -35q-39 57 -39 106q0 56 38.5 90t107.5 34h190q131 0 200.5 -43t69.5 -131q0 -60 -37.5 -100t-91.5 -51q71 -12 115 -50zM278 614v-217h104q60 0 98.5 29t38.5 82
q0 60 -40.5 83t-122.5 23h-78zM501.5 101q44.5 25 44.5 95q0 68 -43 98t-112 30h-113v-248h95q84 0 128.5 25z" />
    <glyph glyph-name="uni0243" unicode="&#x243;" horiz-adv-x="620" 
d="M531 314q44 -38 44 -118q0 -196 -273 -196h-190v168h-92v70h92v451h163q131 0 200.5 -43t69.5 -131q0 -60 -37.5 -100t-91.5 -51q71 -12 115 -50zM207 614v-217h104q60 0 98.5 29t38.5 82q0 60 -40.5 83t-122.5 23h-78zM430.5 101q44.5 25 44.5 95q0 68 -43 98t-112 30
h-113v-86h157v-70h-157v-92h95q84 0 128.5 25z" />
    <glyph glyph-name="C" unicode="C" 
d="M445.5 685q42.5 -16 86.5 -52l-52 -61q-63 51 -133 51q-86 0 -138.5 -66t-52.5 -212q0 -142 52 -209.5t138 -67.5q44 0 76 15t70 43l48 -61q-31 -33 -81.5 -55t-115.5 -22q-84 0 -149.5 41.5t-102 122t-36.5 193.5t38 193.5t103 121.5t145 41q62 0 104.5 -16z" />
    <glyph glyph-name="Cacute" unicode="&#x106;" 
d="M445.5 685q42.5 -16 86.5 -52l-52 -61q-63 51 -133 51q-86 0 -138.5 -66t-52.5 -212q0 -142 52 -209.5t138 -67.5q44 0 76 15t70 43l48 -61q-31 -33 -81.5 -55t-115.5 -22q-84 0 -149.5 41.5t-102 122t-36.5 193.5t38 193.5t103 121.5t145 41q62 0 104.5 -16zM469 834
l-216 -79l-24 49l200 107z" />
    <glyph glyph-name="Ccaron" unicode="&#x10c;" 
d="M445.5 685q42.5 -16 86.5 -52l-52 -61q-63 51 -133 51q-86 0 -138.5 -66t-52.5 -212q0 -142 52 -209.5t138 -67.5q44 0 76 15t70 43l48 -61q-31 -33 -81.5 -55t-115.5 -22q-84 0 -149.5 41.5t-102 122t-36.5 193.5t38 193.5t103 121.5t145 41q62 0 104.5 -16zM513 864
l-135 -110h-61l-136 110l40 45l126 -81l127 81z" />
    <glyph glyph-name="Ccedilla" unicode="&#xc7;" 
d="M471 16q-42 -21 -95 -26v-46q48 -4 70.5 -27.5t22.5 -57.5q0 -48 -35 -74t-89 -26q-28 0 -52 6.5t-39 17.5l25 52q30 -16 63 -16q23 0 36.5 9.5t13.5 30.5t-21 31.5t-68 10.5l11 88q-77 7 -135.5 50.5t-91 121t-32.5 184.5q0 113 38 193.5t103 121.5t145 41
q62 0 104.5 -16t86.5 -52l-52 -61q-63 51 -133 51q-86 0 -138.5 -66t-52.5 -212q0 -142 52 -209.5t138 -67.5q44 0 76 15t70 43l48 -61q-27 -28 -69 -49z" />
    <glyph glyph-name="Ccircumflex" unicode="&#x108;" 
d="M445.5 685q42.5 -16 86.5 -52l-52 -61q-63 51 -133 51q-86 0 -138.5 -66t-52.5 -212q0 -142 52 -209.5t138 -67.5q44 0 76 15t70 43l48 -61q-31 -33 -81.5 -55t-115.5 -22q-84 0 -149.5 41.5t-102 122t-36.5 193.5t38 193.5t103 121.5t145 41q62 0 104.5 -16zM346 840
l-126 -81l-40 45l136 110h61l135 -110l-39 -45z" />
    <glyph glyph-name="Cdotaccent" unicode="&#x10a;" 
d="M445.5 685q42.5 -16 86.5 -52l-52 -61q-63 51 -133 51q-86 0 -138.5 -66t-52.5 -212q0 -142 52 -209.5t138 -67.5q44 0 76 15t70 43l48 -61q-31 -33 -81.5 -55t-115.5 -22q-84 0 -149.5 41.5t-102 122t-36.5 193.5t38 193.5t103 121.5t145 41q62 0 104.5 -16zM393 888
q18 -18 18 -45t-18 -44.5t-47 -17.5q-28 0 -46 17.5t-18 44.5t18 45t46 18q29 0 47 -18z" />
    <glyph glyph-name="uni0187" unicode="&#x187;" 
d="M706 794l-36 -59q-20 12 -35.5 17.5t-38.5 5.5q-64 0 -64 -74v-51l-44 -52q-72 42 -141 42q-86 0 -138.5 -66t-52.5 -212q0 -142 52 -209.5t138 -67.5q44 0 76 15t70 43l48 -61q-31 -33 -81.5 -55t-115.5 -22q-84 0 -149.5 41.5t-102 122t-36.5 193.5t38 193.5t103 121.5
t145 41q55 0 99 -18q1 71 40.5 110t110.5 39q65 0 115 -38z" />
    <glyph glyph-name="D" unicode="D" horiz-adv-x="644" 
d="M494.5 616.5q94.5 -72.5 94.5 -268.5q0 -191 -94.5 -269.5t-229.5 -78.5h-165v689h144q156 0 250.5 -72.5zM195 613v-538h77q96 0 156 59t60 214q0 109 -31 167.5t-79 78t-113 19.5h-70z" />
    <glyph glyph-name="uni0189" unicode="&#x189;" horiz-adv-x="656" 
d="M506.5 616.5q94.5 -72.5 94.5 -268.5q0 -191 -94.5 -269.5t-229.5 -78.5h-165v318h-92v70h92v301h144q156 0 250.5 -72.5zM440 134q60 59 60 214q0 109 -31 167.5t-79 78t-113 19.5h-70v-225h157v-70h-157v-243h77q96 0 156 59z" />
    <glyph glyph-name="Eth" unicode="&#xd0;" horiz-adv-x="656" 
d="M506.5 616.5q94.5 -72.5 94.5 -268.5q0 -191 -94.5 -269.5t-229.5 -78.5h-165v318h-92v70h92v301h144q156 0 250.5 -72.5zM440 134q60 59 60 214q0 109 -31 167.5t-79 78t-113 19.5h-70v-225h157v-70h-157v-243h77q96 0 156 59z" />
    <glyph glyph-name="Dcaron" unicode="&#x10e;" horiz-adv-x="644" 
d="M494.5 616.5q94.5 -72.5 94.5 -268.5q0 -191 -94.5 -269.5t-229.5 -78.5h-165v689h144q156 0 250.5 -72.5zM195 613v-538h77q96 0 156 59t60 214q0 109 -31 167.5t-79 78t-113 19.5h-70zM469 864l-135 -110h-61l-136 110l40 45l126 -81l127 81z" />
    <glyph glyph-name="uni1E12" unicode="&#x1e12;" horiz-adv-x="644" 
d="M494.5 616.5q94.5 -72.5 94.5 -268.5q0 -191 -94.5 -269.5t-229.5 -78.5h-165v689h144q156 0 250.5 -72.5zM195 613v-538h77q96 0 156 59t60 214q0 109 -31 167.5t-79 78t-113 19.5h-70zM134 -181l135 113h61l136 -113l-40 -45l-126 84l-127 -84z" />
    <glyph glyph-name="Dcroat" unicode="&#x110;" horiz-adv-x="656" 
d="M506.5 616.5q94.5 -72.5 94.5 -268.5q0 -191 -94.5 -269.5t-229.5 -78.5h-165v318h-92v70h92v301h144q156 0 250.5 -72.5zM440 134q60 59 60 214q0 109 -31 167.5t-79 78t-113 19.5h-70v-225h157v-70h-157v-243h77q96 0 156 59z" />
    <glyph glyph-name="uni1E0C" unicode="&#x1e0c;" horiz-adv-x="644" 
d="M494.5 616.5q94.5 -72.5 94.5 -268.5q0 -191 -94.5 -269.5t-229.5 -78.5h-165v689h144q156 0 250.5 -72.5zM195 613v-538h77q96 0 156 59t60 214q0 109 -31 167.5t-79 78t-113 19.5h-70zM346 -92q18 -18 18 -45t-18 -44.5t-47 -17.5q-28 0 -46 17.5t-18 44.5t18 45t46 18
q29 0 47 -18z" />
    <glyph glyph-name="uni018A" unicode="&#x18a;" horiz-adv-x="727" 
d="M577.5 616.5q94.5 -72.5 94.5 -268.5q0 -191 -94.5 -269.5t-229.5 -78.5h-165v614h-30q-54 0 -54 -50q0 -17 5 -32.5t15 -37.5l-70 -35q-39 57 -39 106q0 56 38.5 90t107.5 34h171q156 0 250.5 -72.5zM511 134q60 59 60 214q0 109 -31 167.5t-79 78t-113 19.5h-70v-538
h77q96 0 156 59z" />
    <glyph glyph-name="uni1E0E" unicode="&#x1e0e;" horiz-adv-x="644" 
d="M494.5 616.5q94.5 -72.5 94.5 -268.5q0 -191 -94.5 -269.5t-229.5 -78.5h-165v689h144q156 0 250.5 -72.5zM195 613v-538h77q96 0 156 59t60 214q0 109 -31 167.5t-79 78t-113 19.5h-70zM163 -173v69h273v-69h-273z" />
    <glyph glyph-name="E" unicode="E" horiz-adv-x="535" 
d="M462 613h-267v-225h232v-76h-232v-236h286v-76h-381v689h373z" />
    <glyph glyph-name="Eacute" unicode="&#xc9;" horiz-adv-x="535" 
d="M462 613h-267v-225h232v-76h-232v-236h286v-76h-381v689h373zM412 834l-216 -79l-24 49l200 107z" />
    <glyph glyph-name="Ebreve" unicode="&#x114;" horiz-adv-x="535" 
d="M462 613h-267v-225h232v-76h-232v-236h286v-76h-381v689h373zM186 792q-42 34 -48 89l61 13q23 -66 89 -66q34 0 57.5 17.5t34.5 48.5l61 -13q-6 -55 -49 -89t-104 -34q-60 0 -102 34z" />
    <glyph glyph-name="Ecaron" unicode="&#x11a;" horiz-adv-x="535" 
d="M462 613h-267v-225h232v-76h-232v-236h286v-76h-381v689h373zM456 864l-135 -110h-61l-136 110l40 45l126 -81l127 81z" />
    <glyph glyph-name="uni0228" unicode="&#x228;" horiz-adv-x="535" 
d="M321 0v-56q48 -4 70.5 -27.5t22.5 -57.5q0 -48 -35 -74t-89 -26q-28 0 -52 6.5t-39 17.5l25 52q30 -16 63 -16q23 0 36.5 9.5t13.5 30.5t-21 31.5t-68 10.5l12 99h-160v689h373l-11 -76h-267v-225h232v-76h-232v-236h286v-76h-160z" />
    <glyph glyph-name="Ecircumflex" unicode="&#xca;" horiz-adv-x="535" 
d="M462 613h-267v-225h232v-76h-232v-236h286v-76h-381v689h373zM289 840l-126 -81l-40 45l136 110h61l135 -110l-39 -45z" />
    <glyph glyph-name="uni1EBE" unicode="&#x1ebe;" horiz-adv-x="535" 
d="M555 965l-136 -126l-38 35l118 145zM288 797l-126 -81l-40 45l136 110h61l135 -110l-39 -45zM462 613h-267v-225h232v-76h-232v-236h286v-76h-381v689h373z" />
    <glyph glyph-name="uni1EC6" unicode="&#x1ec6;" horiz-adv-x="535" 
d="M462 613h-267v-225h232v-76h-232v-236h286v-76h-381v689h373zM337 -92q18 -18 18 -45t-18 -44.5t-47 -17.5q-28 0 -46 17.5t-18 44.5t18 45t46 18q29 0 47 -18zM289 840l-126 -81l-40 45l136 110h61l135 -110l-39 -45z" />
    <glyph glyph-name="uni1EC0" unicode="&#x1ec0;" horiz-adv-x="535" 
d="M196 874l-38 -35l-136 126l56 54zM288 797l-126 -81l-40 45l136 110h61l135 -110l-39 -45zM462 613h-267v-225h232v-76h-232v-236h286v-76h-381v689h373z" />
    <glyph glyph-name="uni1EC2" unicode="&#x1ec2;" horiz-adv-x="535" 
d="M403 901q39 5 55 13.5t16 29.5q0 18 -12 27t-32 9q-30 0 -57 -15l-22 53q41 24 94 24q51 0 79.5 -24.5t28.5 -66.5q0 -37 -21 -58.5t-60 -27.5v-48h-69v84zM288 797l-126 -81l-40 45l136 110h61l135 -110l-39 -45zM462 613h-267v-225h232v-76h-232v-236h286v-76h-381v689
h373z" />
    <glyph glyph-name="uni1EC4" unicode="&#x1ec4;" horiz-adv-x="535" 
d="M311.5 901q-15.5 7 -34.5 20q-15 11 -25.5 16t-21.5 5q-16 0 -28 -11t-25 -35l-56 28q19 40 46.5 64t62.5 24q21 0 36 -7.5t34 -20.5q3 -2 12.5 -8t17.5 -9t16 -3q15 0 27 10.5t26 33.5l56 -28q-19 -42 -47 -64t-62 -22q-19 0 -34.5 7zM287 797l-126 -81l-40 45l136 110
h61l135 -110l-39 -45zM462 613h-267v-225h232v-76h-232v-236h286v-76h-381v689h373z" />
    <glyph glyph-name="Edieresis" unicode="&#xcb;" horiz-adv-x="535" 
d="M462 613h-267v-225h232v-76h-232v-236h286v-76h-381v689h373zM225.5 877.5q16.5 -16.5 16.5 -40.5t-16.5 -40.5t-40.5 -16.5q-25 0 -41.5 16.5t-16.5 40.5t16.5 40.5t41.5 16.5q24 0 40.5 -16.5zM435.5 877.5q16.5 -16.5 16.5 -40.5t-16.5 -40.5t-41.5 -16.5
q-24 0 -40.5 16.5t-16.5 40.5t16.5 40.5t40.5 16.5q25 0 41.5 -16.5z" />
    <glyph glyph-name="Edotaccent" unicode="&#x116;" horiz-adv-x="535" 
d="M462 613h-267v-225h232v-76h-232v-236h286v-76h-381v689h373zM336 888q18 -18 18 -45t-18 -44.5t-47 -17.5q-28 0 -46 17.5t-18 44.5t18 45t46 18q29 0 47 -18z" />
    <glyph glyph-name="uni1EB8" unicode="&#x1eb8;" horiz-adv-x="535" 
d="M462 613h-267v-225h232v-76h-232v-236h286v-76h-381v689h373zM337 -92q18 -18 18 -45t-18 -44.5t-47 -17.5q-28 0 -46 17.5t-18 44.5t18 45t46 18q29 0 47 -18z" />
    <glyph glyph-name="Egrave" unicode="&#xc8;" horiz-adv-x="535" 
d="M462 613h-267v-225h232v-76h-232v-236h286v-76h-381v689h373zM400 804l-24 -49l-216 79l39 77z" />
    <glyph glyph-name="uni1EBA" unicode="&#x1eba;" horiz-adv-x="535" 
d="M462 613h-267v-225h232v-76h-232v-236h286v-76h-381v689h373zM251 847q39 5 55 13.5t16 29.5q0 18 -12 27t-32 9q-30 0 -57 -15l-22 53q41 24 94 24q51 0 79.5 -24.5t28.5 -66.5q0 -37 -21 -58.5t-60 -27.5v-48h-69v84z" />
    <glyph glyph-name="Emacron" unicode="&#x112;" horiz-adv-x="535" 
d="M462 613h-267v-225h232v-76h-232v-236h286v-76h-381v689h373zM153 787v69h273v-69h-273z" />
    <glyph glyph-name="Eogonek" unicode="&#x118;" horiz-adv-x="535" 
d="M481 76v-76h-40q-71 -31 -97 -57.5t-26 -56.5q0 -48 56 -48q27 0 61 7l-9 -70q-35 -7 -63 -7q-57 0 -91 28.5t-34 72.5q0 41 25 73t76 58h-239v689h373l-11 -76h-267v-225h232v-76h-232v-236h286z" />
    <glyph glyph-name="uni0190" unicode="&#x190;" horiz-adv-x="521" 
d="M494 616l-52 -57q-72 64 -156 64q-60 0 -89.5 -29.5t-29.5 -76.5q0 -53 35.5 -83.5t95.5 -30.5h66l-13 -78h-52q-75 0 -113.5 -32.5t-38.5 -93.5t39 -96t110 -35q95 0 159 67l56 -54q-42 -46 -98.5 -69.5t-121.5 -23.5q-71 0 -127 26.5t-87.5 74t-31.5 109.5q0 76 45 120
t113 51q-63 14 -99 53.5t-36 102.5q0 50 24.5 90t72 63t114.5 23q124 0 215 -85z" />
    <glyph glyph-name="uni018E" unicode="&#x18e;" horiz-adv-x="535" 
d="M435 689v-689h-381v76h286v236h-232v76h232v225h-280v76h375z" />
    <glyph glyph-name="uni01A9" unicode="&#x1a9;" horiz-adv-x="503" 
d="M463 611h-316l200 -239v-62l-200 -232h316v-78h-423v78l222 261l-222 272v78h423v-78z" />
    <glyph glyph-name="uni1EBC" unicode="&#x1ebc;" horiz-adv-x="535" 
d="M462 613h-267v-225h232v-76h-232v-236h286v-76h-381v689h373zM313.5 789q-15.5 7 -34.5 20q-15 11 -25.5 16t-21.5 5q-16 0 -28 -11t-25 -35l-56 28q19 40 46.5 64t62.5 24q21 0 36 -7.5t34 -20.5q3 -2 12.5 -8t17.5 -9t16 -3q15 0 27 10.5t26 33.5l56 -28
q-19 -42 -47 -64t-62 -22q-19 0 -34.5 7z" />
    <glyph glyph-name="uni01B7" unicode="&#x1b7;" horiz-adv-x="516" 
d="M411.5 344.5q59.5 -52.5 59.5 -149.5q0 -60 -29.5 -107t-85 -73.5t-130.5 -26.5q-72 0 -124.5 22t-91.5 68l55 54q32 -35 69.5 -50.5t88.5 -15.5q72 0 110.5 35t38.5 96q0 70 -37.5 100.5t-119.5 30.5h-88v68l211 214h-297v78h406v-77l-213 -214h1q117 0 176.5 -52.5z
" />
    <glyph glyph-name="F" unicode="F" horiz-adv-x="491" 
d="M455 613h-260v-235h225v-75h-225v-303h-95v689h366z" />
    <glyph glyph-name="uni0191" unicode="&#x191;" horiz-adv-x="491" 
d="M195 613v-235h225v-75h-225v-360q0 -76 -40 -116t-111 -40q-65 0 -115 38l36 61q20 -12 35.5 -17.5t38.5 -5.5q61 0 61 74v752h366l-11 -76h-260z" />
    <glyph glyph-name="G" unicode="G" horiz-adv-x="631" 
d="M466.5 682.5q47.5 -18.5 94.5 -57.5l-56 -58q-37 30 -71 43t-80 13q-53 0 -97.5 -28.5t-72.5 -91t-28 -158.5q0 -145 47.5 -212t140.5 -67q77 0 131 32v207h-122l-11 77h227v-333q-50 -30 -106.5 -45.5t-125.5 -15.5q-131 0 -206.5 91t-75.5 266q0 112 41 192.5t109 122
t147 41.5q67 0 114.5 -18.5z" />
    <glyph glyph-name="uni0194" unicode="&#x194;" horiz-adv-x="554" 
d="M335 69q35 -65 49 -102.5t14 -77.5q0 -49 -30.5 -75.5t-89.5 -26.5t-89.5 26.5t-30.5 74.5q0 34 14.5 73t48.5 108l-215 620h102l171 -554l173 554h96zM278 7q-32 -76 -32 -111q0 -36 32 -36t32 36q0 35 -32 111z" />
    <glyph glyph-name="Gbreve" unicode="&#x11e;" horiz-adv-x="631" 
d="M466.5 682.5q47.5 -18.5 94.5 -57.5l-56 -58q-37 30 -71 43t-80 13q-53 0 -97.5 -28.5t-72.5 -91t-28 -158.5q0 -145 47.5 -212t140.5 -67q77 0 131 32v207h-122l-11 77h227v-333q-50 -30 -106.5 -45.5t-125.5 -15.5q-131 0 -206.5 91t-75.5 266q0 112 41 192.5t109 122
t147 41.5q67 0 114.5 -18.5zM251 792q-42 34 -48 89l61 13q23 -66 89 -66q34 0 57.5 17.5t34.5 48.5l61 -13q-6 -55 -49 -89t-104 -34q-60 0 -102 34z" />
    <glyph glyph-name="Gcaron" unicode="&#x1e6;" horiz-adv-x="631" 
d="M466.5 682.5q47.5 -18.5 94.5 -57.5l-56 -58q-37 30 -71 43t-80 13q-53 0 -97.5 -28.5t-72.5 -91t-28 -158.5q0 -145 47.5 -212t140.5 -67q77 0 131 32v207h-122l-11 77h227v-333q-50 -30 -106.5 -45.5t-125.5 -15.5q-131 0 -206.5 91t-75.5 266q0 112 41 192.5t109 122
t147 41.5q67 0 114.5 -18.5zM521 864l-135 -110h-61l-136 110l40 45l126 -81l127 81z" />
    <glyph glyph-name="Gcircumflex" unicode="&#x11c;" horiz-adv-x="631" 
d="M466.5 682.5q47.5 -18.5 94.5 -57.5l-56 -58q-37 30 -71 43t-80 13q-53 0 -97.5 -28.5t-72.5 -91t-28 -158.5q0 -145 47.5 -212t140.5 -67q77 0 131 32v207h-122l-11 77h227v-333q-50 -30 -106.5 -45.5t-125.5 -15.5q-131 0 -206.5 91t-75.5 266q0 112 41 192.5t109 122
t147 41.5q67 0 114.5 -18.5zM354 840l-126 -81l-40 45l136 110h61l135 -110l-39 -45z" />
    <glyph glyph-name="Gcommaaccent" unicode="&#x122;" horiz-adv-x="631" 
d="M466.5 682.5q47.5 -18.5 94.5 -57.5l-56 -58q-37 30 -71 43t-80 13q-53 0 -97.5 -28.5t-72.5 -91t-28 -158.5q0 -145 47.5 -212t140.5 -67q77 0 131 32v207h-122l-11 77h227v-333q-50 -30 -106.5 -45.5t-125.5 -15.5q-131 0 -206.5 91t-75.5 266q0 112 41 192.5t109 122
t147 41.5q67 0 114.5 -18.5zM386.5 -93q16.5 -16 16.5 -40q0 -13 -5.5 -29t-20.5 -48l-41 -86h-53l29 116q-24 21 -24 47q0 24 17 40t41 16t40.5 -16z" />
    <glyph glyph-name="Gdotaccent" unicode="&#x120;" horiz-adv-x="631" 
d="M466.5 682.5q47.5 -18.5 94.5 -57.5l-56 -58q-37 30 -71 43t-80 13q-53 0 -97.5 -28.5t-72.5 -91t-28 -158.5q0 -145 47.5 -212t140.5 -67q77 0 131 32v207h-122l-11 77h227v-333q-50 -30 -106.5 -45.5t-125.5 -15.5q-131 0 -206.5 91t-75.5 266q0 112 41 192.5t109 122
t147 41.5q67 0 114.5 -18.5zM401 888q18 -18 18 -45t-18 -44.5t-47 -17.5q-28 0 -46 17.5t-18 44.5t18 45t46 18q29 0 47 -18z" />
    <glyph glyph-name="uni0193" unicode="&#x193;" horiz-adv-x="589" 
d="M735 794l-36 -59q-20 12 -35.5 17.5t-38.5 5.5q-64 0 -64 -74v-59l-49 -52q-39 25 -77 37.5t-81 12.5q-53 0 -97.5 -28.5t-72.5 -91t-28 -158.5q0 -145 47.5 -212t140.5 -67q77 0 131 32v207h-122l-11 77h227v-333q-50 -30 -106.5 -45.5t-125.5 -15.5q-131 0 -206.5 91
t-75.5 266q0 111 40.5 192t106.5 122.5t140 41.5q77 0 127 -27v2q0 75 39.5 115.5t111.5 40.5q65 0 115 -38z" />
    <glyph glyph-name="uni0241" unicode="&#x241;" horiz-adv-x="466" 
d="M150 319l72 19q62 17 93 50.5t31 98.5q0 63 -33 99.5t-93 36.5q-44 0 -82 -16t-76 -48l-52 57q49 43 100.5 64t113.5 21q67 0 117.5 -26.5t77.5 -74t27 -108.5q0 -95 -48.5 -141.5t-130.5 -71.5l-22 -6v-273h-95v319z" />
    <glyph glyph-name="H" unicode="H" horiz-adv-x="680" 
d="M485 323h-290v-323h-95v689h95v-288h290v288h95v-689h-95v323z" />
    <glyph glyph-name="Hbar" unicode="&#x126;" horiz-adv-x="688" 
d="M653 508h-69v-508h-95v323h-290v-323h-95v508h-69v69h69v112h95v-112h290v112h95v-112h69v-69zM489 508h-290v-107h290v107z" />
    <glyph glyph-name="Hcircumflex" unicode="&#x124;" horiz-adv-x="680" 
d="M485 323h-290v-323h-95v689h95v-288h290v288h95v-689h-95v323zM339 840l-126 -81l-40 45l136 110h61l135 -110l-39 -45z" />
    <glyph glyph-name="uni1E24" unicode="&#x1e24;" horiz-adv-x="680" 
d="M485 323h-290v-323h-95v689h95v-288h290v288h95v-689h-95v323zM386 -92q18 -18 18 -45t-18 -44.5t-47 -17.5q-28 0 -46 17.5t-18 44.5t18 45t46 18q29 0 47 -18z" />
    <glyph glyph-name="uniA7AA" unicode="&#xa7aa;" horiz-adv-x="763" 
d="M663 689v-689h-95v323h-290v-323h-95v614h-30q-54 0 -54 -50q0 -17 5 -32.5t15 -37.5l-70 -35q-39 57 -39 106q0 56 38.5 90t107.5 34h122v-288h290v288h95z" />
    <glyph glyph-name="uniA78D" unicode="&#xa78d;" horiz-adv-x="612" 
d="M512 689v-689h-95v278q-44 -33 -83.5 -47t-91.5 -14q-92 0 -147 56t-55 151v265h95v-258q0 -133 131 -133q91 0 151 58v333h95z" />
    <glyph glyph-name="I" unicode="I" horiz-adv-x="295" 
d="M195 0h-95v689h95v-689z" />
    <glyph glyph-name="IJ" unicode="&#x132;" horiz-adv-x="600" 
d="M195 0h-95v689h95v-689zM505 96q0 -102 -44.5 -153t-135.5 -80l-25 69q46 18 69 39t32 51t9 78v589h95v-593z" />
    <glyph glyph-name="Iacute" unicode="&#xcd;" horiz-adv-x="295" 
d="M195 0h-95v689h95v-689zM269 834l-216 -79l-24 49l200 107z" />
    <glyph glyph-name="Ibreve" unicode="&#x12c;" horiz-adv-x="295" 
d="M195 0h-95v689h95v-689zM43 792q-42 34 -48 89l61 13q23 -66 89 -66q34 0 57.5 17.5t34.5 48.5l61 -13q-6 -55 -49 -89t-104 -34q-60 0 -102 34z" />
    <glyph glyph-name="uni01CF" unicode="&#x1cf;" horiz-adv-x="295" 
d="M195 0h-95v689h95v-689zM313 864l-135 -110h-61l-136 110l40 45l126 -81l127 81z" />
    <glyph glyph-name="Icircumflex" unicode="&#xce;" horiz-adv-x="295" 
d="M195 0h-95v689h95v-689zM146 840l-126 -81l-40 45l136 110h61l135 -110l-39 -45z" />
    <glyph glyph-name="Idieresis" unicode="&#xcf;" horiz-adv-x="295" 
d="M195 0h-95v689h95v-689zM82.5 877.5q16.5 -16.5 16.5 -40.5t-16.5 -40.5t-40.5 -16.5q-25 0 -41.5 16.5t-16.5 40.5t16.5 40.5t41.5 16.5q24 0 40.5 -16.5zM292.5 877.5q16.5 -16.5 16.5 -40.5t-16.5 -40.5t-41.5 -16.5q-24 0 -40.5 16.5t-16.5 40.5t16.5 40.5t40.5 16.5
q25 0 41.5 -16.5z" />
    <glyph glyph-name="uni1E2E" unicode="&#x1e2e;" horiz-adv-x="295" 
d="M285 961l-136 -126l-38 35l118 145zM82.5 843.5q16.5 -16.5 16.5 -40.5t-16.5 -40.5t-40.5 -16.5q-25 0 -41.5 16.5t-16.5 40.5t16.5 40.5t41.5 16.5q24 0 40.5 -16.5zM292.5 843.5q16.5 -16.5 16.5 -40.5t-16.5 -40.5t-41.5 -16.5q-24 0 -40.5 16.5t-16.5 40.5
t16.5 40.5t40.5 16.5q25 0 41.5 -16.5zM195 0h-95v689h95v-689z" />
    <glyph glyph-name="Idotaccent" unicode="&#x130;" horiz-adv-x="295" 
d="M195 0h-95v689h95v-689zM193 888q18 -18 18 -45t-18 -44.5t-47 -17.5q-28 0 -46 17.5t-18 44.5t18 45t46 18q29 0 47 -18z" />
    <glyph glyph-name="uni1ECA" unicode="&#x1eca;" horiz-adv-x="295" 
d="M195 0h-95v689h95v-689zM193 -92q18 -18 18 -45t-18 -44.5t-47 -17.5q-28 0 -46 17.5t-18 44.5t18 45t46 18q29 0 47 -18z" />
    <glyph glyph-name="Igrave" unicode="&#xcc;" horiz-adv-x="295" 
d="M195 0h-95v689h95v-689zM257 804l-24 -49l-216 79l39 77z" />
    <glyph glyph-name="uni1EC8" unicode="&#x1ec8;" horiz-adv-x="295" 
d="M195 0h-95v689h95v-689zM108 847q39 5 55 13.5t16 29.5q0 18 -12 27t-32 9q-30 0 -57 -15l-22 53q41 24 94 24q51 0 79.5 -24.5t28.5 -66.5q0 -37 -21 -58.5t-60 -27.5v-48h-69v84z" />
    <glyph glyph-name="Imacron" unicode="&#x12a;" horiz-adv-x="295" 
d="M195 0h-95v689h95v-689zM10 787v69h273v-69h-273z" />
    <glyph glyph-name="Iogonek" unicode="&#x12e;" horiz-adv-x="295" 
d="M98 -57.5q-26 -26.5 -26 -56.5q0 -48 56 -48q27 0 61 7l-9 -70q-35 -7 -63 -7q-57 0 -91 28.5t-34 72.5q0 84 108 134v686h95v-689q-71 -31 -97 -57.5z" />
    <glyph glyph-name="uni0196" unicode="&#x196;" horiz-adv-x="366" 
d="M356 26q-50 -38 -115 -38q-71 0 -111 40t-40 116v545h95v-551q0 -74 61 -74q23 0 38.5 5.5t35.5 17.5z" />
    <glyph glyph-name="uni0197" unicode="&#x197;" horiz-adv-x="313" 
d="M298 322h-94v-322h-95v322h-94v74h94v293h95v-293h94v-74z" />
    <glyph glyph-name="Itilde" unicode="&#x128;" horiz-adv-x="295" 
d="M195 0h-95v689h95v-689zM170.5 789q-15.5 7 -34.5 20q-15 11 -25.5 16t-21.5 5q-16 0 -28 -11t-25 -35l-56 28q19 40 46.5 64t62.5 24q21 0 36 -7.5t34 -20.5q3 -2 12.5 -8t17.5 -9t16 -3q15 0 27 10.5t26 33.5l56 -28q-19 -42 -47 -64t-62 -22q-19 0 -34.5 7z" />
    <glyph glyph-name="J" unicode="J" horiz-adv-x="305" 
d="M210 96q0 -102 -44.5 -153t-135.5 -80l-25 69q46 18 69 39t32 51t9 78v589h95v-593z" />
    <glyph glyph-name="Jcircumflex" unicode="&#x134;" horiz-adv-x="305" 
d="M210 96q0 -102 -44.5 -153t-135.5 -80l-25 69q46 18 69 39t32 51t9 78v589h95v-593zM162 840l-126 -81l-40 45l136 110h61l135 -110l-39 -45z" />
    <glyph glyph-name="K" unicode="K" horiz-adv-x="589" 
d="M195 0h-95v689h95v-689zM309 374l280 -374h-117l-272 368l262 321h108z" />
    <glyph glyph-name="Kcommaaccent" unicode="&#x136;" horiz-adv-x="589" 
d="M195 0h-95v689h95v-689zM309 374l280 -374h-117l-272 368l262 321h108zM358.5 -93q16.5 -16 16.5 -40q0 -13 -5.5 -29t-20.5 -48l-41 -86h-53l29 116q-24 21 -24 47q0 24 17 40t41 16t40.5 -16z" />
    <glyph glyph-name="uni0198" unicode="&#x198;" horiz-adv-x="617" 
d="M308 374l281 -374h-117l-272 368l169 242q34 49 66.5 70t81.5 21q32 0 55.5 -9t44.5 -26l-34 -61q-14 9 -27 14t-33 5q-25 0 -43 -11t-42 -47zM195 0h-95v689h95v-689z" />
    <glyph glyph-name="L" unicode="L" horiz-adv-x="498" 
d="M195 83h283l-11 -83h-367v689h95v-606z" />
    <glyph glyph-name="Lacute" unicode="&#x139;" horiz-adv-x="498" 
d="M195 83h283l-11 -83h-367v689h95v-606zM270 834l-216 -79l-24 49l200 107z" />
    <glyph glyph-name="Lcaron" unicode="&#x13d;" horiz-adv-x="498" 
d="M195 83h283l-11 -83h-367v689h95v-606zM353 689l-50 -184l-53 8l20 186z" />
    <glyph glyph-name="uni1E3C" unicode="&#x1e3c;" horiz-adv-x="498" 
d="M195 83h283l-11 -83h-367v689h95v-606zM118 -181l135 113h61l136 -113l-40 -45l-126 84l-127 -84z" />
    <glyph glyph-name="Lcommaaccent" unicode="&#x13b;" horiz-adv-x="498" 
d="M195 83h283l-11 -83h-367v689h95v-606zM327.5 -93q16.5 -16 16.5 -40q0 -13 -5.5 -29t-20.5 -48l-41 -86h-53l29 116q-24 21 -24 47q0 24 17 40t41 16t40.5 -16z" />
    <glyph glyph-name="Ldot" unicode="&#x13f;" horiz-adv-x="498" 
d="M195 83h283l-11 -83h-367v689h95v-606zM437 432q18 -18 18 -45t-18 -44.5t-47 -17.5q-28 0 -46 17.5t-18 44.5t18 45t46 18q29 0 47 -18z" />
    <glyph glyph-name="uni1E36" unicode="&#x1e36;" horiz-adv-x="498" 
d="M195 83h283l-11 -83h-367v689h95v-606zM330 -92q18 -18 18 -45t-18 -44.5t-47 -17.5q-28 0 -46 17.5t-18 44.5t18 45t46 18q29 0 47 -18z" />
    <glyph glyph-name="Lslash" unicode="&#x141;" horiz-adv-x="514" 
d="M494 83l-11 -83h-367v257l-56 -35l-38 60l94 58v349h95v-290l160 99l38 -60l-198 -123v-232h283z" />
    <glyph glyph-name="M" unicode="M" horiz-adv-x="796" 
d="M716 0h-92l-24 311q-15 183 -17 281l-149 -514h-89l-157 515q0 -125 -13 -289l-23 -304h-90l57 689h128l145 -501l138 501h129z" />
    <glyph glyph-name="uni1E3E" unicode="&#x1e3e;" horiz-adv-x="796" 
d="M716 0h-92l-24 311q-15 183 -17 281l-149 -514h-89l-157 515q0 -125 -13 -289l-23 -304h-90l57 689h128l145 -501l138 501h129zM511 834l-216 -79l-24 49l200 107z" />
    <glyph glyph-name="N" unicode="N" horiz-adv-x="683" 
d="M583 0h-127l-280 585q6 -69 9.5 -127.5t3.5 -141.5v-316h-89v689h124l283 -586q-3 26 -8 91t-5 119v376h89v-689z" />
    <glyph glyph-name="Nacute" unicode="&#x143;" horiz-adv-x="683" 
d="M583 0h-127l-280 585q6 -69 9.5 -127.5t3.5 -141.5v-316h-89v689h124l283 -586q-3 26 -8 91t-5 119v376h89v-689zM475 834l-216 -79l-24 49l200 107z" />
    <glyph glyph-name="Ncaron" unicode="&#x147;" horiz-adv-x="683" 
d="M583 0h-127l-280 585q6 -69 9.5 -127.5t3.5 -141.5v-316h-89v689h124l283 -586q-3 26 -8 91t-5 119v376h89v-689zM519 864l-135 -110h-61l-136 110l40 45l126 -81l127 81z" />
    <glyph glyph-name="uni1E4A" unicode="&#x1e4a;" horiz-adv-x="683" 
d="M583 0h-127l-280 585q6 -69 9.5 -127.5t3.5 -141.5v-316h-89v689h124l283 -586q-3 26 -8 91t-5 119v376h89v-689zM177 -181l135 113h61l136 -113l-40 -45l-126 84l-127 -84z" />
    <glyph glyph-name="Ncommaaccent" unicode="&#x145;" horiz-adv-x="683" 
d="M583 0h-127l-280 585q6 -69 9.5 -127.5t3.5 -141.5v-316h-89v689h124l283 -586q-3 26 -8 91t-5 119v376h89v-689zM386.5 -93q16.5 -16 16.5 -40q0 -13 -5.5 -29t-20.5 -48l-41 -86h-53l29 116q-24 21 -24 47q0 24 17 40t41 16t40.5 -16z" />
    <glyph glyph-name="uni1E44" unicode="&#x1e44;" horiz-adv-x="683" 
d="M583 0h-127l-280 585q6 -69 9.5 -127.5t3.5 -141.5v-316h-89v689h124l283 -586q-3 26 -8 91t-5 119v376h89v-689zM399 888q18 -18 18 -45t-18 -44.5t-47 -17.5q-28 0 -46 17.5t-18 44.5t18 45t46 18q29 0 47 -18z" />
    <glyph glyph-name="uni1E46" unicode="&#x1e46;" horiz-adv-x="683" 
d="M583 0h-127l-280 585q6 -69 9.5 -127.5t3.5 -141.5v-316h-89v689h124l283 -586q-3 26 -8 91t-5 119v376h89v-689zM389 -92q18 -18 18 -45t-18 -44.5t-47 -17.5q-28 0 -46 17.5t-18 44.5t18 45t46 18q29 0 47 -18z" />
    <glyph glyph-name="Eng" unicode="&#x14a;" horiz-adv-x="683" 
d="M583 689v-746q0 -76 -40 -116t-111 -40q-65 0 -115 38l36 61q20 -12 35.5 -17.5t38.5 -5.5q61 0 61 74v63h-32l-280 585q6 -69 9.5 -127.5t3.5 -141.5v-316h-89v689h124l283 -586q-3 26 -8 91t-5 119v376h89z" />
    <glyph glyph-name="uni019D" unicode="&#x19d;" horiz-adv-x="683" 
d="M583 689v-689h-127l-280 585q6 -69 9.5 -127.5t3.5 -141.5v-375q0 -75 -40 -114.5t-108 -39.5q-65 0 -115 38l36 59q20 -12 35.5 -17.5t38.5 -5.5q64 0 64 74v754h124l283 -586q-3 26 -8 91t-5 119v376h89z" />
    <glyph glyph-name="Ntilde" unicode="&#xd1;" horiz-adv-x="683" 
d="M583 0h-127l-280 585q6 -69 9.5 -127.5t3.5 -141.5v-316h-89v689h124l283 -586q-3 26 -8 91t-5 119v376h89v-689zM376.5 789q-15.5 7 -34.5 20q-15 11 -25.5 16t-21.5 5q-16 0 -28 -11t-25 -35l-56 28q19 40 46.5 64t62.5 24q21 0 36 -7.5t34 -20.5q3 -2 12.5 -8t17.5 -9
t16 -3q15 0 27 10.5t26 33.5l56 -28q-19 -42 -47 -64t-62 -22q-19 0 -34.5 7z" />
    <glyph glyph-name="O" unicode="O" horiz-adv-x="692" 
d="M498.5 659.5q65.5 -41.5 102 -121.5t36.5 -194q0 -112 -36.5 -192t-102 -122t-152.5 -42t-152.5 41t-102 121t-36.5 193q0 111 36.5 192t102.5 123.5t152 42.5q87 0 152.5 -41.5zM206 555q-50 -68 -50 -212q0 -143 50.5 -210t139.5 -67q190 0 190 278q0 279 -190 279
q-90 0 -140 -68z" />
    <glyph glyph-name="Oacute" unicode="&#xd3;" horiz-adv-x="692" 
d="M498.5 659.5q65.5 -41.5 102 -121.5t36.5 -194q0 -112 -36.5 -192t-102 -122t-152.5 -42t-152.5 41t-102 121t-36.5 193q0 111 36.5 192t102.5 123.5t152 42.5q87 0 152.5 -41.5zM206 555q-50 -68 -50 -212q0 -143 50.5 -210t139.5 -67q190 0 190 278q0 279 -190 279
q-90 0 -140 -68zM468 834l-216 -79l-24 49l200 107z" />
    <glyph glyph-name="Obreve" unicode="&#x14e;" horiz-adv-x="692" 
d="M498.5 659.5q65.5 -41.5 102 -121.5t36.5 -194q0 -112 -36.5 -192t-102 -122t-152.5 -42t-152.5 41t-102 121t-36.5 193q0 111 36.5 192t102.5 123.5t152 42.5q87 0 152.5 -41.5zM206 555q-50 -68 -50 -212q0 -143 50.5 -210t139.5 -67q190 0 190 278q0 279 -190 279
q-90 0 -140 -68zM242 792q-42 34 -48 89l61 13q23 -66 89 -66q34 0 57.5 17.5t34.5 48.5l61 -13q-6 -55 -49 -89t-104 -34q-60 0 -102 34z" />
    <glyph glyph-name="uni01D1" unicode="&#x1d1;" horiz-adv-x="692" 
d="M498.5 659.5q65.5 -41.5 102 -121.5t36.5 -194q0 -112 -36.5 -192t-102 -122t-152.5 -42t-152.5 41t-102 121t-36.5 193q0 111 36.5 192t102.5 123.5t152 42.5q87 0 152.5 -41.5zM206 555q-50 -68 -50 -212q0 -143 50.5 -210t139.5 -67q190 0 190 278q0 279 -190 279
q-90 0 -140 -68zM512 864l-135 -110h-61l-136 110l40 45l126 -81l127 81z" />
    <glyph glyph-name="Ocircumflex" unicode="&#xd4;" horiz-adv-x="692" 
d="M498.5 659.5q65.5 -41.5 102 -121.5t36.5 -194q0 -112 -36.5 -192t-102 -122t-152.5 -42t-152.5 41t-102 121t-36.5 193q0 111 36.5 192t102.5 123.5t152 42.5q87 0 152.5 -41.5zM206 555q-50 -68 -50 -212q0 -143 50.5 -210t139.5 -67q190 0 190 278q0 279 -190 279
q-90 0 -140 -68zM345 840l-126 -81l-40 45l136 110h61l135 -110l-39 -45z" />
    <glyph glyph-name="uni1ED0" unicode="&#x1ed0;" horiz-adv-x="692" 
d="M611 965l-136 -126l-38 35l118 145zM344 797l-126 -81l-40 45l136 110h61l135 -110l-39 -45zM498.5 659.5q65.5 -41.5 102 -121.5t36.5 -194q0 -112 -36.5 -192t-102 -122t-152.5 -42t-152.5 41t-102 121t-36.5 193q0 111 36.5 192t102.5 123.5t152 42.5
q87 0 152.5 -41.5zM206 555q-50 -68 -50 -212q0 -143 50.5 -210t139.5 -67q190 0 190 278q0 279 -190 279q-90 0 -140 -68z" />
    <glyph glyph-name="uni1ED8" unicode="&#x1ed8;" horiz-adv-x="692" 
d="M498.5 659.5q65.5 -41.5 102 -121.5t36.5 -194q0 -112 -36.5 -192t-102 -122t-152.5 -42t-152.5 41t-102 121t-36.5 193q0 111 36.5 192t102.5 123.5t152 42.5q87 0 152.5 -41.5zM206 555q-50 -68 -50 -212q0 -143 50.5 -210t139.5 -67q190 0 190 278q0 279 -190 279
q-90 0 -140 -68zM392 -92q18 -18 18 -45t-18 -44.5t-47 -17.5q-28 0 -46 17.5t-18 44.5t18 45t46 18q29 0 47 -18zM345 840l-126 -81l-40 45l136 110h61l135 -110l-39 -45z" />
    <glyph glyph-name="uni1ED2" unicode="&#x1ed2;" horiz-adv-x="692" 
d="M252 874l-38 -35l-136 126l56 54zM344 797l-126 -81l-40 45l136 110h61l135 -110l-39 -45zM498.5 659.5q65.5 -41.5 102 -121.5t36.5 -194q0 -112 -36.5 -192t-102 -122t-152.5 -42t-152.5 41t-102 121t-36.5 193q0 111 36.5 192t102.5 123.5t152 42.5q87 0 152.5 -41.5z
M206 555q-50 -68 -50 -212q0 -143 50.5 -210t139.5 -67q190 0 190 278q0 279 -190 279q-90 0 -140 -68z" />
    <glyph glyph-name="uni1ED4" unicode="&#x1ed4;" horiz-adv-x="692" 
d="M459 901q39 5 55 13.5t16 29.5q0 18 -12 27t-32 9q-30 0 -57 -15l-22 53q41 24 94 24q51 0 79.5 -24.5t28.5 -66.5q0 -37 -21 -58.5t-60 -27.5v-48h-69v84zM344 797l-126 -81l-40 45l136 110h61l135 -110l-39 -45zM498.5 659.5q65.5 -41.5 102 -121.5t36.5 -194
q0 -112 -36.5 -192t-102 -122t-152.5 -42t-152.5 41t-102 121t-36.5 193q0 111 36.5 192t102.5 123.5t152 42.5q87 0 152.5 -41.5zM206 555q-50 -68 -50 -212q0 -143 50.5 -210t139.5 -67q190 0 190 278q0 279 -190 279q-90 0 -140 -68z" />
    <glyph glyph-name="uni1ED6" unicode="&#x1ed6;" horiz-adv-x="692" 
d="M367.5 901q-15.5 7 -34.5 20q-15 11 -25.5 16t-21.5 5q-16 0 -28 -11t-25 -35l-56 28q19 40 46.5 64t62.5 24q21 0 36 -7.5t34 -20.5q3 -2 12.5 -8t17.5 -9t16 -3q15 0 27 10.5t26 33.5l56 -28q-19 -42 -47 -64t-62 -22q-19 0 -34.5 7zM343 797l-126 -81l-40 45l136 110
h61l135 -110l-39 -45zM498.5 659.5q65.5 -41.5 102 -121.5t36.5 -194q0 -112 -36.5 -192t-102 -122t-152.5 -42t-152.5 41t-102 121t-36.5 193q0 111 36.5 192t102.5 123.5t152 42.5q87 0 152.5 -41.5zM206 555q-50 -68 -50 -212q0 -143 50.5 -210t139.5 -67q190 0 190 278
q0 279 -190 279q-90 0 -140 -68z" />
    <glyph glyph-name="Odieresis" unicode="&#xd6;" horiz-adv-x="692" 
d="M498.5 659.5q65.5 -41.5 102 -121.5t36.5 -194q0 -112 -36.5 -192t-102 -122t-152.5 -42t-152.5 41t-102 121t-36.5 193q0 111 36.5 192t102.5 123.5t152 42.5q87 0 152.5 -41.5zM206 555q-50 -68 -50 -212q0 -143 50.5 -210t139.5 -67q190 0 190 278q0 279 -190 279
q-90 0 -140 -68zM281.5 877.5q16.5 -16.5 16.5 -40.5t-16.5 -40.5t-40.5 -16.5q-25 0 -41.5 16.5t-16.5 40.5t16.5 40.5t41.5 16.5q24 0 40.5 -16.5zM491.5 877.5q16.5 -16.5 16.5 -40.5t-16.5 -40.5t-41.5 -16.5q-24 0 -40.5 16.5t-16.5 40.5t16.5 40.5t40.5 16.5
q25 0 41.5 -16.5z" />
    <glyph glyph-name="uni022A" unicode="&#x22a;" horiz-adv-x="692" 
d="M209 909v69h273v-69h-273zM281.5 843.5q16.5 -16.5 16.5 -40.5t-16.5 -40.5t-40.5 -16.5q-25 0 -41.5 16.5t-16.5 40.5t16.5 40.5t41.5 16.5q24 0 40.5 -16.5zM491.5 843.5q16.5 -16.5 16.5 -40.5t-16.5 -40.5t-41.5 -16.5q-24 0 -40.5 16.5t-16.5 40.5t16.5 40.5
t40.5 16.5q25 0 41.5 -16.5zM498.5 659.5q65.5 -41.5 102 -121.5t36.5 -194q0 -112 -36.5 -192t-102 -122t-152.5 -42t-152.5 41t-102 121t-36.5 193q0 111 36.5 192t102.5 123.5t152 42.5q87 0 152.5 -41.5zM206 555q-50 -68 -50 -212q0 -143 50.5 -210t139.5 -67
q190 0 190 278q0 279 -190 279q-90 0 -140 -68z" />
    <glyph glyph-name="uni1ECC" unicode="&#x1ecc;" horiz-adv-x="692" 
d="M498.5 659.5q65.5 -41.5 102 -121.5t36.5 -194q0 -112 -36.5 -192t-102 -122t-152.5 -42t-152.5 41t-102 121t-36.5 193q0 111 36.5 192t102.5 123.5t152 42.5q87 0 152.5 -41.5zM206 555q-50 -68 -50 -212q0 -143 50.5 -210t139.5 -67q190 0 190 278q0 279 -190 279
q-90 0 -140 -68zM392 -92q18 -18 18 -45t-18 -44.5t-47 -17.5q-28 0 -46 17.5t-18 44.5t18 45t46 18q29 0 47 -18z" />
    <glyph glyph-name="Ograve" unicode="&#xd2;" horiz-adv-x="692" 
d="M498.5 659.5q65.5 -41.5 102 -121.5t36.5 -194q0 -112 -36.5 -192t-102 -122t-152.5 -42t-152.5 41t-102 121t-36.5 193q0 111 36.5 192t102.5 123.5t152 42.5q87 0 152.5 -41.5zM206 555q-50 -68 -50 -212q0 -143 50.5 -210t139.5 -67q190 0 190 278q0 279 -190 279
q-90 0 -140 -68zM456 804l-24 -49l-216 79l39 77z" />
    <glyph glyph-name="uni1ECE" unicode="&#x1ece;" horiz-adv-x="692" 
d="M498.5 659.5q65.5 -41.5 102 -121.5t36.5 -194q0 -112 -36.5 -192t-102 -122t-152.5 -42t-152.5 41t-102 121t-36.5 193q0 111 36.5 192t102.5 123.5t152 42.5q87 0 152.5 -41.5zM206 555q-50 -68 -50 -212q0 -143 50.5 -210t139.5 -67q190 0 190 278q0 279 -190 279
q-90 0 -140 -68zM307 847q39 5 55 13.5t16 29.5q0 18 -12 27t-32 9q-30 0 -57 -15l-22 53q41 24 94 24q51 0 79.5 -24.5t28.5 -66.5q0 -37 -21 -58.5t-60 -27.5v-48h-69v84z" />
    <glyph glyph-name="Ohorn" unicode="&#x1a0;" horiz-adv-x="703" 
d="M640 623.5q-23 -28.5 -66 -37.5q63 -93 63 -242q0 -112 -36.5 -192t-102 -122t-152.5 -42t-152.5 41t-102 121t-36.5 193q0 111 36.5 192t102.5 123.5t152 42.5q113 0 185 -66q55 7 55 51q0 23 -3.5 38.5t-10.5 33.5l72 15q19 -33 19 -82q0 -39 -23 -67.5zM536 344
q0 279 -190 279q-90 0 -140 -68t-50 -212q0 -143 50.5 -210t139.5 -67q190 0 190 278z" />
    <glyph glyph-name="uni1EDA" unicode="&#x1eda;" horiz-adv-x="703" 
d="M252 755l-24 49l200 107l40 -77zM640 623.5q-23 -28.5 -66 -37.5q63 -93 63 -242q0 -112 -36.5 -192t-102 -122t-152.5 -42t-152.5 41t-102 121t-36.5 193q0 111 36.5 192t102.5 123.5t152 42.5q113 0 185 -66q55 7 55 51q0 23 -3.5 38.5t-10.5 33.5l72 15q19 -33 19 -82
q0 -39 -23 -67.5zM536 344q0 279 -190 279q-90 0 -140 -68t-50 -212q0 -143 50.5 -210t139.5 -67q190 0 190 278z" />
    <glyph glyph-name="uni1EE2" unicode="&#x1ee2;" horiz-adv-x="703" 
d="M640 623.5q-23 -28.5 -66 -37.5q63 -93 63 -242q0 -112 -36.5 -192t-102 -122t-152.5 -42t-152.5 41t-102 121t-36.5 193q0 111 36.5 192t102.5 123.5t152 42.5q113 0 185 -66q55 7 55 51q0 23 -3.5 38.5t-10.5 33.5l72 15q19 -33 19 -82q0 -39 -23 -67.5zM536 344
q0 279 -190 279q-90 0 -140 -68t-50 -212q0 -143 50.5 -210t139.5 -67q190 0 190 278zM392 -92q18 -18 18 -45t-18 -44.5t-47 -17.5q-28 0 -46 17.5t-18 44.5t18 45t46 18q29 0 47 -18z" />
    <glyph glyph-name="uni1EDC" unicode="&#x1edc;" horiz-adv-x="703" 
d="M432 755l-216 79l39 77l201 -107zM640 623.5q-23 -28.5 -66 -37.5q63 -93 63 -242q0 -112 -36.5 -192t-102 -122t-152.5 -42t-152.5 41t-102 121t-36.5 193q0 111 36.5 192t102.5 123.5t152 42.5q113 0 185 -66q55 7 55 51q0 23 -3.5 38.5t-10.5 33.5l72 15
q19 -33 19 -82q0 -39 -23 -67.5zM536 344q0 279 -190 279q-90 0 -140 -68t-50 -212q0 -143 50.5 -210t139.5 -67q190 0 190 278z" />
    <glyph glyph-name="uni1EDE" unicode="&#x1ede;" horiz-adv-x="703" 
d="M277 911l-22 53q41 24 94 24q51 0 79.5 -24.5t28.5 -66.5q0 -37 -21 -58.5t-60 -27.5v-48h-69v84q39 5 55 13.5t16 29.5q0 18 -12 27t-32 9q-30 0 -57 -15zM640 623.5q-23 -28.5 -66 -37.5q63 -93 63 -242q0 -112 -36.5 -192t-102 -122t-152.5 -42t-152.5 41t-102 121
t-36.5 193q0 111 36.5 192t102.5 123.5t152 42.5q113 0 185 -66q55 7 55 51q0 23 -3.5 38.5t-10.5 33.5l72 15q19 -33 19 -82q0 -39 -23 -67.5zM536 344q0 279 -190 279q-90 0 -140 -68t-50 -212q0 -143 50.5 -210t139.5 -67q190 0 190 278z" />
    <glyph glyph-name="uni1EE0" unicode="&#x1ee0;" horiz-adv-x="703" 
d="M260 819q-12 -11 -25 -35l-56 28q19 40 46.5 64t62.5 24q21 0 36 -7.5t34 -20.5q3 -2 12.5 -8t17.5 -9t16 -3q15 0 27 10.5t26 33.5l56 -28q-19 -42 -47 -64t-62 -22q-19 0 -34.5 7t-34.5 20q-15 11 -25.5 16t-21.5 5q-16 0 -28 -11zM640 623.5q-23 -28.5 -66 -37.5
q63 -93 63 -242q0 -112 -36.5 -192t-102 -122t-152.5 -42t-152.5 41t-102 121t-36.5 193q0 111 36.5 192t102.5 123.5t152 42.5q113 0 185 -66q55 7 55 51q0 23 -3.5 38.5t-10.5 33.5l72 15q19 -33 19 -82q0 -39 -23 -67.5zM536 344q0 279 -190 279q-90 0 -140 -68t-50 -212
q0 -143 50.5 -210t139.5 -67q190 0 190 278z" />
    <glyph glyph-name="Ohungarumlaut" unicode="&#x150;" horiz-adv-x="692" 
d="M498.5 659.5q65.5 -41.5 102 -121.5t36.5 -194q0 -112 -36.5 -192t-102 -122t-152.5 -42t-152.5 41t-102 121t-36.5 193q0 111 36.5 192t102.5 123.5t152 42.5q87 0 152.5 -41.5zM206 555q-50 -68 -50 -212q0 -143 50.5 -210t139.5 -67q190 0 190 278q0 279 -190 279
q-90 0 -140 -68zM387 917l-96 -152l-58 25l76 168zM539 917l-106 -157l-58 25l86 173z" />
    <glyph glyph-name="Omacron" unicode="&#x14c;" horiz-adv-x="692" 
d="M498.5 659.5q65.5 -41.5 102 -121.5t36.5 -194q0 -112 -36.5 -192t-102 -122t-152.5 -42t-152.5 41t-102 121t-36.5 193q0 111 36.5 192t102.5 123.5t152 42.5q87 0 152.5 -41.5zM206 555q-50 -68 -50 -212q0 -143 50.5 -210t139.5 -67q190 0 190 278q0 279 -190 279
q-90 0 -140 -68zM209 787v69h273v-69h-273z" />
    <glyph glyph-name="uni1E52" unicode="&#x1e52;" horiz-adv-x="692" 
d="M468 947l-216 -79l-24 49l200 107zM209 759v69h273v-69h-273zM498.5 659.5q65.5 -41.5 102 -121.5t36.5 -194q0 -112 -36.5 -192t-102 -122t-152.5 -42t-152.5 41t-102 121t-36.5 193q0 111 36.5 192t102.5 123.5t152 42.5q87 0 152.5 -41.5zM206 555q-50 -68 -50 -212
q0 -143 50.5 -210t139.5 -67q190 0 190 278q0 279 -190 279q-90 0 -140 -68z" />
    <glyph glyph-name="uni1E50" unicode="&#x1e50;" horiz-adv-x="692" 
d="M456 917l-24 -49l-216 79l39 77zM209 759v69h273v-69h-273zM498.5 659.5q65.5 -41.5 102 -121.5t36.5 -194q0 -112 -36.5 -192t-102 -122t-152.5 -42t-152.5 41t-102 121t-36.5 193q0 111 36.5 192t102.5 123.5t152 42.5q87 0 152.5 -41.5zM206 555q-50 -68 -50 -212
q0 -143 50.5 -210t139.5 -67q190 0 190 278q0 279 -190 279q-90 0 -140 -68z" />
    <glyph glyph-name="uni0186" unicode="&#x186;" 
d="M434 609q71 -92 71 -263q0 -114 -36.5 -194.5t-102 -122t-149.5 -41.5q-114 0 -197 77l47 59q39 -27 71.5 -41.5t75.5 -14.5q86 0 138 67.5t52 209.5q0 146 -47 212t-124 66q-84 0 -156 -50l-49 60q46 34 96.5 51t114.5 17q124 0 195 -92z" />
    <glyph glyph-name="Oslash" unicode="&#xd8;" horiz-adv-x="692" 
d="M597.5 545.5q39.5 -82.5 39.5 -201.5q0 -112 -36.5 -192t-102 -122t-152.5 -42q-36 0 -67 7l-35 -122l-79 21l40 128q-71 40 -110.5 121.5t-39.5 199.5q0 111 36.5 192t102.5 123.5t152 42.5q37 0 66 -7l37 125l79 -21l-42 -131q72 -39 111.5 -121.5zM206 555
q-50 -68 -50 -212q0 -185 82 -246l158 521q-27 5 -50 5q-90 0 -140 -68zM536 344q0 99 -21 160t-63 90l-156 -523q25 -5 50 -5q190 0 190 278z" />
    <glyph glyph-name="Oslashacute" unicode="&#x1fe;" horiz-adv-x="692" 
d="M597.5 545.5q39.5 -82.5 39.5 -201.5q0 -112 -36.5 -192t-102 -122t-152.5 -42q-36 0 -67 7l-35 -122l-79 21l40 128q-71 40 -110.5 121.5t-39.5 199.5q0 111 36.5 192t102.5 123.5t152 42.5q37 0 66 -7l37 125l79 -21l-42 -131q72 -39 111.5 -121.5zM206 555
q-50 -68 -50 -212q0 -185 82 -246l158 521q-27 5 -50 5q-90 0 -140 -68zM536 344q0 99 -21 160t-63 90l-156 -523q25 -5 50 -5q190 0 190 278zM463 849l-216 -79l-24 49l200 107z" />
    <glyph glyph-name="Otilde" unicode="&#xd5;" horiz-adv-x="692" 
d="M498.5 659.5q65.5 -41.5 102 -121.5t36.5 -194q0 -112 -36.5 -192t-102 -122t-152.5 -42t-152.5 41t-102 121t-36.5 193q0 111 36.5 192t102.5 123.5t152 42.5q87 0 152.5 -41.5zM206 555q-50 -68 -50 -212q0 -143 50.5 -210t139.5 -67q190 0 190 278q0 279 -190 279
q-90 0 -140 -68zM369.5 789q-15.5 7 -34.5 20q-15 11 -25.5 16t-21.5 5q-16 0 -28 -11t-25 -35l-56 28q19 40 46.5 64t62.5 24q21 0 36 -7.5t34 -20.5q3 -2 12.5 -8t17.5 -9t16 -3q15 0 27 10.5t26 33.5l56 -28q-19 -42 -47 -64t-62 -22q-19 0 -34.5 7z" />
    <glyph glyph-name="uni1E4C" unicode="&#x1e4c;" horiz-adv-x="692" 
d="M468 977l-216 -79l-24 49l200 107zM369.5 765q-15.5 7 -34.5 20q-15 11 -25.5 16t-21.5 5q-16 0 -28 -11t-25 -35l-56 28q19 40 46.5 64t62.5 24q21 0 36 -7.5t34 -20.5q3 -2 12.5 -8t17.5 -9t16 -3q15 0 27 10.5t26 33.5l56 -28q-19 -42 -47 -64t-62 -22q-19 0 -34.5 7z
M498.5 659.5q65.5 -41.5 102 -121.5t36.5 -194q0 -112 -36.5 -192t-102 -122t-152.5 -42t-152.5 41t-102 121t-36.5 193q0 111 36.5 192t102.5 123.5t152 42.5q87 0 152.5 -41.5zM206 555q-50 -68 -50 -212q0 -143 50.5 -210t139.5 -67q190 0 190 278q0 279 -190 279
q-90 0 -140 -68z" />
    <glyph glyph-name="OE" unicode="&#x152;" horiz-adv-x="908" 
d="M843 0h-437q-34 -12 -73 -12q-80 0 -143 41t-99 121t-36 193q0 111 36 192t99 123.5t143 42.5q40 0 77 -12h425l-11 -76h-298q38 -38 61 -95.5t28 -129.5h174v-76h-173q-5 -74 -29.5 -134.5t-67.5 -101.5h324v-76zM205 133.5q49 -67.5 131 -67.5q84 0 132 67t48 211
q0 143 -47.5 211t-132.5 68q-83 0 -131.5 -68.5t-48.5 -211.5q0 -142 49 -209.5z" />
    <glyph glyph-name="P" unicode="P" horiz-adv-x="581" 
d="M479 635.5q70 -53.5 70 -159.5q0 -113 -73 -168t-194 -55h-87v-253h-95v689h181q128 0 198 -53.5zM404.5 360q43.5 32 43.5 115q0 74 -43.5 107t-124.5 33h-85v-287h83q83 0 126.5 32z" />
    <glyph glyph-name="uni01A4" unicode="&#x1a4;" horiz-adv-x="664" 
d="M562 635.5q70 -53.5 70 -159.5q0 -113 -73 -168t-194 -55h-87v-253h-95v614h-30q-54 0 -54 -50q0 -17 5 -32.5t15 -37.5l-70 -35q-39 57 -39 106q0 56 38.5 90t107.5 34h208q128 0 198 -53.5zM487.5 360q43.5 32 43.5 115q0 74 -43.5 107t-124.5 33h-85v-287h83
q83 0 126.5 32z" />
    <glyph glyph-name="Thorn" unicode="&#xde;" horiz-adv-x="581" 
d="M479 517q70 -54 70 -163q0 -116 -73 -171.5t-194 -55.5h-87v-127h-95v689h95v-118h86q128 0 198 -54zM405 235q43 33 43 118q0 77 -43.5 110.5t-124.5 33.5h-85v-295h83q84 0 127 33z" />
    <glyph glyph-name="Q" unicode="Q" horiz-adv-x="689" 
d="M579 22.5q45 -16.5 87 -45.5l-62 -80q-60 53 -114 73t-146 20q-86 0 -151 40.5t-101.5 120t-36.5 192.5q0 111 36.5 192t102.5 123.5t152 42.5q87 0 152.5 -41.5t102 -121.5t36.5 -194q0 -121 -40 -192.5t-118 -112.5q55 0 100 -16.5zM206.5 133q50.5 -67 139.5 -67
q190 0 190 278q0 279 -190 279q-90 0 -140 -68t-50 -212q0 -143 50.5 -210z" />
    <glyph glyph-name="uni024A" unicode="&#x24a;" horiz-adv-x="669" 
d="M740 -175q-50 -38 -115 -38q-71 0 -111 40t-40 116v114q-61 -69 -158 -69q-73 0 -132 38t-94 113.5t-35 183.5q0 118 36 203.5t97 130t136 44.5q91 0 153 -64l8 52h84v-752q0 -74 61 -74q23 0 38.5 5.5t35.5 17.5zM406.5 82q34.5 16 67.5 50v429q-54 62 -137 62
q-84 0 -132.5 -73t-48.5 -227q0 -134 46 -195.5t126 -61.5q44 0 78.5 16z" />
    <glyph glyph-name="R" unicode="R" horiz-adv-x="605" 
d="M302 292h-107v-292h-95v689h181q129 0 195.5 -49t66.5 -146q0 -72 -37 -117t-112 -68l186 -309h-113zM291 365q75 0 113 30.5t38 98.5q0 64 -38.5 92.5t-123.5 28.5h-85v-250h96z" />
    <glyph glyph-name="Racute" unicode="&#x154;" horiz-adv-x="605" 
d="M302 292h-107v-292h-95v689h181q129 0 195.5 -49t66.5 -146q0 -72 -37 -117t-112 -68l186 -309h-113zM291 365q75 0 113 30.5t38 98.5q0 64 -38.5 92.5t-123.5 28.5h-85v-250h96zM421 834l-216 -79l-24 49l200 107z" />
    <glyph glyph-name="Rcaron" unicode="&#x158;" horiz-adv-x="605" 
d="M302 292h-107v-292h-95v689h181q129 0 195.5 -49t66.5 -146q0 -72 -37 -117t-112 -68l186 -309h-113zM291 365q75 0 113 30.5t38 98.5q0 64 -38.5 92.5t-123.5 28.5h-85v-250h96zM465 864l-135 -110h-61l-136 110l40 45l126 -81l127 81z" />
    <glyph glyph-name="Rcommaaccent" unicode="&#x156;" horiz-adv-x="605" 
d="M302 292h-107v-292h-95v689h181q129 0 195.5 -49t66.5 -146q0 -72 -37 -117t-112 -68l186 -309h-113zM291 365q75 0 113 30.5t38 98.5q0 64 -38.5 92.5t-123.5 28.5h-85v-250h96zM352.5 -93q16.5 -16 16.5 -40q0 -13 -5.5 -29t-20.5 -48l-41 -86h-53l29 116
q-24 21 -24 47q0 24 17 40t41 16t40.5 -16z" />
    <glyph glyph-name="uni024C" unicode="&#x24c;" horiz-adv-x="616" 
d="M478 0l-165 292h-107v-292h-95v292h-91v73h91v324h181q129 0 195.5 -49t66.5 -146q0 -72 -37 -117t-112 -68l186 -309h-113zM415 395.5q38 30.5 38 98.5q0 64 -38.5 92.5t-123.5 28.5h-85v-250h96q75 0 113 30.5z" />
    <glyph glyph-name="uni2C64" unicode="&#x2c64;" horiz-adv-x="605" 
d="M256 -137q23 0 38.5 5.5t35.5 17.5l36 -61q-50 -38 -115 -38q-71 0 -111 40t-40 116v746h181q129 0 195.5 -49t66.5 -146q0 -72 -37 -117t-112 -68l186 -309h-113l-165 292h-107v-355q0 -74 61 -74zM195 615v-250h96q75 0 113 30.5t38 98.5q0 64 -38.5 92.5t-123.5 28.5
h-85z" />
    <glyph glyph-name="S" unicode="S" horiz-adv-x="545" 
d="M388 681.5q49 -19.5 95 -60.5l-54 -60q-37 33 -74.5 47.5t-80.5 14.5q-54 0 -89 -25t-35 -73q0 -30 12 -50.5t44.5 -37.5t94.5 -36q65 -20 108 -43t69.5 -63.5t26.5 -102.5q0 -60 -29.5 -106t-85 -72t-131.5 -26q-143 0 -234 89l55 61q75 -72 178 -72q64 0 106 31.5
t42 91.5q0 34 -13 56.5t-44.5 40.5t-91.5 36q-106 32 -155 77t-49 122q0 52 27.5 93t77 64t112.5 23q69 0 118 -19.5z" />
    <glyph glyph-name="Sacute" unicode="&#x15a;" horiz-adv-x="545" 
d="M388 681.5q49 -19.5 95 -60.5l-54 -60q-37 33 -74.5 47.5t-80.5 14.5q-54 0 -89 -25t-35 -73q0 -30 12 -50.5t44.5 -37.5t94.5 -36q65 -20 108 -43t69.5 -63.5t26.5 -102.5q0 -60 -29.5 -106t-85 -72t-131.5 -26q-143 0 -234 89l55 61q75 -72 178 -72q64 0 106 31.5
t42 91.5q0 34 -13 56.5t-44.5 40.5t-91.5 36q-106 32 -155 77t-49 122q0 52 27.5 93t77 64t112.5 23q69 0 118 -19.5zM398 834l-216 -79l-24 49l200 107z" />
    <glyph glyph-name="uniA78B" unicode="&#xa78b;" horiz-adv-x="225" 
d="M60 689h105l-15 -342h-76z" />
    <glyph glyph-name="Scaron" unicode="&#x160;" horiz-adv-x="545" 
d="M388 681.5q49 -19.5 95 -60.5l-54 -60q-37 33 -74.5 47.5t-80.5 14.5q-54 0 -89 -25t-35 -73q0 -30 12 -50.5t44.5 -37.5t94.5 -36q65 -20 108 -43t69.5 -63.5t26.5 -102.5q0 -60 -29.5 -106t-85 -72t-131.5 -26q-143 0 -234 89l55 61q75 -72 178 -72q64 0 106 31.5
t42 91.5q0 34 -13 56.5t-44.5 40.5t-91.5 36q-106 32 -155 77t-49 122q0 52 27.5 93t77 64t112.5 23q69 0 118 -19.5zM442 864l-135 -110h-61l-136 110l40 45l126 -81l127 81z" />
    <glyph glyph-name="Scedilla" unicode="&#x15e;" horiz-adv-x="545" 
d="M450 53.5q-55 -54.5 -153 -63.5v-46q48 -4 70.5 -27.5t22.5 -57.5q0 -48 -35 -74t-89 -26q-28 0 -52 6.5t-39 17.5l25 52q30 -16 63 -16q23 0 36.5 9.5t13.5 30.5t-21 31.5t-68 10.5l11 88q-128 7 -210 88l55 61q75 -72 178 -72q64 0 106 31.5t42 91.5q0 34 -13 56.5
t-44.5 40.5t-91.5 36q-106 32 -155 77t-49 122q0 52 27.5 93t77 64t112.5 23q69 0 118 -19.5t95 -60.5l-54 -60q-37 33 -74.5 47.5t-80.5 14.5q-54 0 -89 -25t-35 -73q0 -30 12 -50.5t44.5 -37.5t94.5 -36q65 -20 108 -43t69.5 -63.5t26.5 -102.5q0 -84 -55 -138.5z" />
    <glyph glyph-name="Scircumflex" unicode="&#x15c;" horiz-adv-x="545" 
d="M388 681.5q49 -19.5 95 -60.5l-54 -60q-37 33 -74.5 47.5t-80.5 14.5q-54 0 -89 -25t-35 -73q0 -30 12 -50.5t44.5 -37.5t94.5 -36q65 -20 108 -43t69.5 -63.5t26.5 -102.5q0 -60 -29.5 -106t-85 -72t-131.5 -26q-143 0 -234 89l55 61q75 -72 178 -72q64 0 106 31.5
t42 91.5q0 34 -13 56.5t-44.5 40.5t-91.5 36q-106 32 -155 77t-49 122q0 52 27.5 93t77 64t112.5 23q69 0 118 -19.5zM275 840l-126 -81l-40 45l136 110h61l135 -110l-39 -45z" />
    <glyph glyph-name="Scommaaccent" unicode="&#x218;" horiz-adv-x="545" 
d="M388 681.5q49 -19.5 95 -60.5l-54 -60q-37 33 -74.5 47.5t-80.5 14.5q-54 0 -89 -25t-35 -73q0 -30 12 -50.5t44.5 -37.5t94.5 -36q65 -20 108 -43t69.5 -63.5t26.5 -102.5q0 -60 -29.5 -106t-85 -72t-131.5 -26q-143 0 -234 89l55 61q75 -72 178 -72q64 0 106 31.5
t42 91.5q0 34 -13 56.5t-44.5 40.5t-91.5 36q-106 32 -155 77t-49 122q0 52 27.5 93t77 64t112.5 23q69 0 118 -19.5zM310.5 -93q16.5 -16 16.5 -40q0 -13 -5.5 -29t-20.5 -48l-41 -86h-53l29 116q-24 21 -24 47q0 24 17 40t41 16t40.5 -16z" />
    <glyph glyph-name="uni1E62" unicode="&#x1e62;" horiz-adv-x="545" 
d="M388 681.5q49 -19.5 95 -60.5l-54 -60q-37 33 -74.5 47.5t-80.5 14.5q-54 0 -89 -25t-35 -73q0 -30 12 -50.5t44.5 -37.5t94.5 -36q65 -20 108 -43t69.5 -63.5t26.5 -102.5q0 -60 -29.5 -106t-85 -72t-131.5 -26q-143 0 -234 89l55 61q75 -72 178 -72q64 0 106 31.5
t42 91.5q0 34 -13 56.5t-44.5 40.5t-91.5 36q-106 32 -155 77t-49 122q0 52 27.5 93t77 64t112.5 23q69 0 118 -19.5zM313 -92q18 -18 18 -45t-18 -44.5t-47 -17.5q-28 0 -46 17.5t-18 44.5t18 45t46 18q29 0 47 -18z" />
    <glyph glyph-name="uni1E9E" unicode="&#x1e9e;" horiz-adv-x="657" 
d="M564 630v-62l-172 -180q108 -10 164 -60t56 -134q0 -96 -61.5 -151t-165.5 -55q-74 0 -117 23l30 68q33 -13 81 -13q65 0 99 32t34 95q0 69 -53 100.5t-157 31.5v75l176 189q-81 34 -161 34q-122 0 -122 -134v-489h-95v489q0 101 56 156.5t159 55.5q122 0 249 -71z" />
    <glyph glyph-name="uni018F" unicode="&#x18f;" horiz-adv-x="649" 
d="M520.5 614q73.5 -87 73.5 -258q0 -123 -35.5 -205.5t-97.5 -122.5t-143 -40q-133 0 -203 89.5t-70 257.5q0 24 3 51h447q-4 124 -51 180.5t-133 56.5q-93 0 -179 -65l-49 58q97 85 232 85q132 0 205.5 -87zM495 310h-356q4 -246 175 -246q168 0 181 246z" />
    <glyph glyph-name="T" unicode="T" horiz-adv-x="517" 
d="M497 608h-191v-608h-95v608h-196v81h492z" />
    <glyph glyph-name="Tbar" unicode="&#x166;" horiz-adv-x="519" 
d="M306 606v-219h125v-70h-125v-319h-95v319h-123v70h123v219h-196v81h492l-10 -81h-191z" />
    <glyph glyph-name="Tcaron" unicode="&#x164;" horiz-adv-x="517" 
d="M497 608h-191v-608h-95v608h-196v81h492zM425 864l-135 -110h-61l-136 110l40 45l126 -81l127 81z" />
    <glyph glyph-name="uni0162" unicode="&#x162;" horiz-adv-x="517" 
d="M378 -84q24 -24 24 -57q0 -48 -36.5 -74t-91.5 -26t-87 24l25 52q16 -8 29 -12t30 -4q24 0 39 9.5t15 30.5t-21 31.5t-68 10.5l12 99h-37v608h-196v81h492l-10 -81h-191v-664q48 -4 72 -28z" />
    <glyph glyph-name="uni1E70" unicode="&#x1e70;" horiz-adv-x="517" 
d="M497 608h-191v-608h-95v608h-196v81h492zM93 -181l135 113h61l136 -113l-40 -45l-126 84l-127 -84z" />
    <glyph glyph-name="uni021A" unicode="&#x21a;" horiz-adv-x="517" 
d="M497 608h-191v-608h-95v608h-196v81h492zM302.5 -93q16.5 -16 16.5 -40q0 -13 -5.5 -29t-20.5 -48l-41 -86h-53l29 116q-24 21 -24 47q0 24 17 40t41 16t40.5 -16z" />
    <glyph glyph-name="uni1E6C" unicode="&#x1e6c;" horiz-adv-x="517" 
d="M497 608h-191v-608h-95v608h-196v81h492zM305 -92q18 -18 18 -45t-18 -44.5t-47 -17.5q-28 0 -46 17.5t-18 44.5t18 45t46 18q29 0 47 -18z" />
    <glyph glyph-name="uni01AC" unicode="&#x1ac;" horiz-adv-x="555" 
d="M535 608h-191v-608h-95v608h-96q-27 0 -40.5 -12.5t-13.5 -33.5q0 -17 5 -31.5t15 -36.5l-71 -36q-38 58 -38 107q0 56 39 90t110 34h386z" />
    <glyph glyph-name="uni1E6E" unicode="&#x1e6e;" horiz-adv-x="517" 
d="M497 608h-191v-608h-95v608h-196v81h492zM122 -173v69h273v-69h-273z" />
    <glyph glyph-name="uni01AE" unicode="&#x1ae;" horiz-adv-x="517" 
d="M367 -137q23 0 38.5 5.5t35.5 17.5l36 -61q-50 -38 -115 -38q-71 0 -111 40t-40 116v665h-196v81h492l-10 -81h-191v-671q0 -74 61 -74z" />
    <glyph glyph-name="uni0245" unicode="&#x245;" horiz-adv-x="573" 
d="M567 0h-100l-182 610l-183 -610h-96l221 689h120z" />
    <glyph glyph-name="U" unicode="U" horiz-adv-x="662" 
d="M572 221q0 -69 -28.5 -121.5t-83 -82t-130.5 -29.5q-115 0 -177.5 63.5t-62.5 169.5v468h95v-461q0 -80 36 -120t109 -40q74 0 110 39.5t36 120.5v461h96v-468z" />
    <glyph glyph-name="Uacute" unicode="&#xda;" horiz-adv-x="662" 
d="M572 221q0 -69 -28.5 -121.5t-83 -82t-130.5 -29.5q-115 0 -177.5 63.5t-62.5 169.5v468h95v-461q0 -80 36 -120t109 -40q74 0 110 39.5t36 120.5v461h96v-468zM453 834l-216 -79l-24 49l200 107z" />
    <glyph glyph-name="uni0244" unicode="&#x244;" horiz-adv-x="690" 
d="M655 508h-69v-287q0 -69 -28.5 -121.5t-83 -82t-130.5 -29.5q-115 0 -177.5 63.5t-62.5 169.5v287h-69v69h69v112h95v-112h291v112h96v-112h69v-69zM490 508h-291v-280q0 -80 36 -120t109 -40q74 0 110 39.5t36 120.5v280z" />
    <glyph glyph-name="Ubreve" unicode="&#x16c;" horiz-adv-x="662" 
d="M572 221q0 -69 -28.5 -121.5t-83 -82t-130.5 -29.5q-115 0 -177.5 63.5t-62.5 169.5v468h95v-461q0 -80 36 -120t109 -40q74 0 110 39.5t36 120.5v461h96v-468zM227 792q-42 34 -48 89l61 13q23 -66 89 -66q34 0 57.5 17.5t34.5 48.5l61 -13q-6 -55 -49 -89t-104 -34
q-60 0 -102 34z" />
    <glyph glyph-name="uni01D3" unicode="&#x1d3;" horiz-adv-x="662" 
d="M572 221q0 -69 -28.5 -121.5t-83 -82t-130.5 -29.5q-115 0 -177.5 63.5t-62.5 169.5v468h95v-461q0 -80 36 -120t109 -40q74 0 110 39.5t36 120.5v461h96v-468zM497 864l-135 -110h-61l-136 110l40 45l126 -81l127 81z" />
    <glyph glyph-name="Ucircumflex" unicode="&#xdb;" horiz-adv-x="662" 
d="M572 221q0 -69 -28.5 -121.5t-83 -82t-130.5 -29.5q-115 0 -177.5 63.5t-62.5 169.5v468h95v-461q0 -80 36 -120t109 -40q74 0 110 39.5t36 120.5v461h96v-468zM330 840l-126 -81l-40 45l136 110h61l135 -110l-39 -45z" />
    <glyph glyph-name="Udieresis" unicode="&#xdc;" horiz-adv-x="662" 
d="M572 221q0 -69 -28.5 -121.5t-83 -82t-130.5 -29.5q-115 0 -177.5 63.5t-62.5 169.5v468h95v-461q0 -80 36 -120t109 -40q74 0 110 39.5t36 120.5v461h96v-468zM266.5 877.5q16.5 -16.5 16.5 -40.5t-16.5 -40.5t-40.5 -16.5q-25 0 -41.5 16.5t-16.5 40.5t16.5 40.5
t41.5 16.5q24 0 40.5 -16.5zM476.5 877.5q16.5 -16.5 16.5 -40.5t-16.5 -40.5t-41.5 -16.5q-24 0 -40.5 16.5t-16.5 40.5t16.5 40.5t40.5 16.5q25 0 41.5 -16.5z" />
    <glyph glyph-name="uni01D7" unicode="&#x1d7;" horiz-adv-x="662" 
d="M469 961l-136 -126l-38 35l118 145zM266.5 843.5q16.5 -16.5 16.5 -40.5t-16.5 -40.5t-40.5 -16.5q-25 0 -41.5 16.5t-16.5 40.5t16.5 40.5t41.5 16.5q24 0 40.5 -16.5zM476.5 843.5q16.5 -16.5 16.5 -40.5t-16.5 -40.5t-41.5 -16.5q-24 0 -40.5 16.5t-16.5 40.5
t16.5 40.5t40.5 16.5q25 0 41.5 -16.5zM572 221q0 -69 -28.5 -121.5t-83 -82t-130.5 -29.5q-115 0 -177.5 63.5t-62.5 169.5v468h95v-461q0 -80 36 -120t109 -40q74 0 110 39.5t36 120.5v461h96v-468z" />
    <glyph glyph-name="uni01D9" unicode="&#x1d9;" horiz-adv-x="662" 
d="M494 976l-135 -110h-61l-136 110l40 45l126 -81l127 81zM266.5 843.5q16.5 -16.5 16.5 -40.5t-16.5 -40.5t-40.5 -16.5q-25 0 -41.5 16.5t-16.5 40.5t16.5 40.5t41.5 16.5q24 0 40.5 -16.5zM476.5 843.5q16.5 -16.5 16.5 -40.5t-16.5 -40.5t-41.5 -16.5q-24 0 -40.5 16.5
t-16.5 40.5t16.5 40.5t40.5 16.5q25 0 41.5 -16.5zM572 221q0 -69 -28.5 -121.5t-83 -82t-130.5 -29.5q-115 0 -177.5 63.5t-62.5 169.5v468h95v-461q0 -80 36 -120t109 -40q74 0 110 39.5t36 120.5v461h96v-468z" />
    <glyph glyph-name="uni01DB" unicode="&#x1db;" horiz-adv-x="662" 
d="M369 870l-38 -35l-136 126l56 54zM266.5 843.5q16.5 -16.5 16.5 -40.5t-16.5 -40.5t-40.5 -16.5q-25 0 -41.5 16.5t-16.5 40.5t16.5 40.5t41.5 16.5q24 0 40.5 -16.5zM476.5 843.5q16.5 -16.5 16.5 -40.5t-16.5 -40.5t-41.5 -16.5q-24 0 -40.5 16.5t-16.5 40.5t16.5 40.5
t40.5 16.5q25 0 41.5 -16.5zM572 221q0 -69 -28.5 -121.5t-83 -82t-130.5 -29.5q-115 0 -177.5 63.5t-62.5 169.5v468h95v-461q0 -80 36 -120t109 -40q74 0 110 39.5t36 120.5v461h96v-468z" />
    <glyph glyph-name="uni01D5" unicode="&#x1d5;" horiz-adv-x="662" 
d="M194 909v69h273v-69h-273zM266.5 843.5q16.5 -16.5 16.5 -40.5t-16.5 -40.5t-40.5 -16.5q-25 0 -41.5 16.5t-16.5 40.5t16.5 40.5t41.5 16.5q24 0 40.5 -16.5zM476.5 843.5q16.5 -16.5 16.5 -40.5t-16.5 -40.5t-41.5 -16.5q-24 0 -40.5 16.5t-16.5 40.5t16.5 40.5
t40.5 16.5q25 0 41.5 -16.5zM572 221q0 -69 -28.5 -121.5t-83 -82t-130.5 -29.5q-115 0 -177.5 63.5t-62.5 169.5v468h95v-461q0 -80 36 -120t109 -40q74 0 110 39.5t36 120.5v461h96v-468z" />
    <glyph glyph-name="uni1EE4" unicode="&#x1ee4;" horiz-adv-x="662" 
d="M572 221q0 -69 -28.5 -121.5t-83 -82t-130.5 -29.5q-115 0 -177.5 63.5t-62.5 169.5v468h95v-461q0 -80 36 -120t109 -40q74 0 110 39.5t36 120.5v461h96v-468zM377 -92q18 -18 18 -45t-18 -44.5t-47 -17.5q-28 0 -46 17.5t-18 44.5t18 45t46 18q29 0 47 -18z" />
    <glyph glyph-name="Ugrave" unicode="&#xd9;" horiz-adv-x="662" 
d="M572 221q0 -69 -28.5 -121.5t-83 -82t-130.5 -29.5q-115 0 -177.5 63.5t-62.5 169.5v468h95v-461q0 -80 36 -120t109 -40q74 0 110 39.5t36 120.5v461h96v-468zM441 804l-24 -49l-216 79l39 77z" />
    <glyph glyph-name="uni1EE6" unicode="&#x1ee6;" horiz-adv-x="662" 
d="M572 221q0 -69 -28.5 -121.5t-83 -82t-130.5 -29.5q-115 0 -177.5 63.5t-62.5 169.5v468h95v-461q0 -80 36 -120t109 -40q74 0 110 39.5t36 120.5v461h96v-468zM292 847q39 5 55 13.5t16 29.5q0 18 -12 27t-32 9q-30 0 -57 -15l-22 53q41 24 94 24q51 0 79.5 -24.5
t28.5 -66.5q0 -37 -21 -58.5t-60 -27.5v-48h-69v84z" />
    <glyph glyph-name="Uhorn" unicode="&#x1af;" horiz-adv-x="676" 
d="M572 221q0 -69 -28.5 -121.5t-83 -82t-130.5 -29.5q-115 0 -177.5 63.5t-62.5 169.5v468h95v-461q0 -80 36 -120t109 -40q74 0 110 39.5t36 120.5v461h96v-468zM562 635q57 6 57 51q0 23 -3.5 38.5t-10.5 33.5l72 15q19 -33 19 -82q0 -47 -33 -77.5t-91 -30.5z" />
    <glyph glyph-name="uni1EE8" unicode="&#x1ee8;" horiz-adv-x="676" 
d="M572 221q0 -69 -28.5 -121.5t-83 -82t-130.5 -29.5q-115 0 -177.5 63.5t-62.5 169.5v468h95v-461q0 -80 36 -120t109 -40q74 0 110 39.5t36 120.5v461h96v-468zM562 635q57 6 57 51q0 23 -3.5 38.5t-10.5 33.5l72 15q19 -33 19 -82q0 -47 -33 -77.5t-91 -30.5zM453 834
l-216 -79l-24 49l200 107z" />
    <glyph glyph-name="uni1EF0" unicode="&#x1ef0;" horiz-adv-x="676" 
d="M572 221q0 -69 -28.5 -121.5t-83 -82t-130.5 -29.5q-115 0 -177.5 63.5t-62.5 169.5v468h95v-461q0 -80 36 -120t109 -40q74 0 110 39.5t36 120.5v461h96v-468zM562 635q57 6 57 51q0 23 -3.5 38.5t-10.5 33.5l72 15q19 -33 19 -82q0 -47 -33 -77.5t-91 -30.5zM377 -92
q18 -18 18 -45t-18 -44.5t-47 -17.5q-28 0 -46 17.5t-18 44.5t18 45t46 18q29 0 47 -18z" />
    <glyph glyph-name="uni1EEA" unicode="&#x1eea;" horiz-adv-x="676" 
d="M572 221q0 -69 -28.5 -121.5t-83 -82t-130.5 -29.5q-115 0 -177.5 63.5t-62.5 169.5v468h95v-461q0 -80 36 -120t109 -40q74 0 110 39.5t36 120.5v461h96v-468zM562 635q57 6 57 51q0 23 -3.5 38.5t-10.5 33.5l72 15q19 -33 19 -82q0 -47 -33 -77.5t-91 -30.5zM441 804
l-24 -49l-216 79l39 77z" />
    <glyph glyph-name="uni1EEC" unicode="&#x1eec;" horiz-adv-x="676" 
d="M572 221q0 -69 -28.5 -121.5t-83 -82t-130.5 -29.5q-115 0 -177.5 63.5t-62.5 169.5v468h95v-461q0 -80 36 -120t109 -40q74 0 110 39.5t36 120.5v461h96v-468zM562 635q57 6 57 51q0 23 -3.5 38.5t-10.5 33.5l72 15q19 -33 19 -82q0 -47 -33 -77.5t-91 -30.5zM292 847
q39 5 55 13.5t16 29.5q0 18 -12 27t-32 9q-30 0 -57 -15l-22 53q41 24 94 24q51 0 79.5 -24.5t28.5 -66.5q0 -37 -21 -58.5t-60 -27.5v-48h-69v84z" />
    <glyph glyph-name="uni1EEE" unicode="&#x1eee;" horiz-adv-x="676" 
d="M572 221q0 -69 -28.5 -121.5t-83 -82t-130.5 -29.5q-115 0 -177.5 63.5t-62.5 169.5v468h95v-461q0 -80 36 -120t109 -40q74 0 110 39.5t36 120.5v461h96v-468zM562 635q57 6 57 51q0 23 -3.5 38.5t-10.5 33.5l72 15q19 -33 19 -82q0 -47 -33 -77.5t-91 -30.5zM354.5 789
q-15.5 7 -34.5 20q-15 11 -25.5 16t-21.5 5q-16 0 -28 -11t-25 -35l-56 28q19 40 46.5 64t62.5 24q21 0 36 -7.5t34 -20.5q3 -2 12.5 -8t17.5 -9t16 -3q15 0 27 10.5t26 33.5l56 -28q-19 -42 -47 -64t-62 -22q-19 0 -34.5 7z" />
    <glyph glyph-name="Uhungarumlaut" unicode="&#x170;" horiz-adv-x="662" 
d="M572 221q0 -69 -28.5 -121.5t-83 -82t-130.5 -29.5q-115 0 -177.5 63.5t-62.5 169.5v468h95v-461q0 -80 36 -120t109 -40q74 0 110 39.5t36 120.5v461h96v-468zM372 917l-96 -152l-58 25l76 168zM524 917l-106 -157l-58 25l86 173z" />
    <glyph glyph-name="Umacron" unicode="&#x16a;" horiz-adv-x="662" 
d="M572 221q0 -69 -28.5 -121.5t-83 -82t-130.5 -29.5q-115 0 -177.5 63.5t-62.5 169.5v468h95v-461q0 -80 36 -120t109 -40q74 0 110 39.5t36 120.5v461h96v-468zM194 787v69h273v-69h-273z" />
    <glyph glyph-name="Uogonek" unicode="&#x172;" horiz-adv-x="662" 
d="M572 689v-468q0 -82 -40 -140.5t-114 -80.5q-71 -31 -97 -57.5t-26 -56.5q0 -48 56 -48q27 0 61 7l-9 -70q-35 -7 -63 -7q-57 0 -91 28.5t-34 72.5q0 77 95 120q-106 5 -163 68t-57 164v468h95v-461q0 -80 36 -120t109 -40q74 0 110 39.5t36 120.5v461h96z" />
    <glyph glyph-name="uni01B1" unicode="&#x1b1;" horiz-adv-x="692" 
d="M192 27.5q-66 39.5 -101.5 113.5t-35.5 174q0 109 34 176t95 120h-107v78h202v-78q-64 -51 -93.5 -118.5t-29.5 -177.5q0 -124 50 -186.5t140 -62.5q89 0 139.5 63t50.5 187q0 106 -31 174t-91 121v78h202v-78h-107q59 -44 93.5 -112.5t34.5 -182.5q0 -97 -37 -171.5
t-103 -115.5t-151 -41q-88 0 -154 39.5z" />
    <glyph glyph-name="Uring" unicode="&#x16e;" horiz-adv-x="662" 
d="M572 221q0 -69 -28.5 -121.5t-83 -82t-130.5 -29.5q-115 0 -177.5 63.5t-62.5 169.5v468h95v-461q0 -80 36 -120t109 -40q74 0 110 39.5t36 120.5v461h96v-468zM413 931.5q32 -30.5 32 -75.5t-32 -75.5t-82 -30.5t-82 30.5t-32 75.5t32 75.5t82 30.5t82 -30.5zM292 897
q-14 -15 -14 -41t14 -41t39 -15q24 0 38.5 15t14.5 41t-14 41t-39 15t-39 -15z" />
    <glyph glyph-name="Utilde" unicode="&#x168;" horiz-adv-x="662" 
d="M572 221q0 -69 -28.5 -121.5t-83 -82t-130.5 -29.5q-115 0 -177.5 63.5t-62.5 169.5v468h95v-461q0 -80 36 -120t109 -40q74 0 110 39.5t36 120.5v461h96v-468zM354.5 789q-15.5 7 -34.5 20q-15 11 -25.5 16t-21.5 5q-16 0 -28 -11t-25 -35l-56 28q19 40 46.5 64t62.5 24
q21 0 36 -7.5t34 -20.5q3 -2 12.5 -8t17.5 -9t16 -3q15 0 27 10.5t26 33.5l56 -28q-19 -42 -47 -64t-62 -22q-19 0 -34.5 7z" />
    <glyph glyph-name="V" unicode="V" horiz-adv-x="556" 
d="M330 0h-102l-222 689h102l173 -586l173 586h96z" />
    <glyph glyph-name="uni01B2" unicode="&#x1b2;" horiz-adv-x="647" 
d="M541.5 669.5q30.5 -31.5 30.5 -95.5v-273q0 -95 -32 -165.5t-91 -109t-137 -38.5q-68 0 -118 29t-77 79.5t-27 114.5v478h95v-473q0 -71 33 -109.5t94 -38.5q80 0 122 61t42 179v265q0 28 -8.5 39.5t-29.5 11.5q-22 0 -37 -6l-24 65q33 18 76 18q58 0 88.5 -31.5z" />
    <glyph glyph-name="W" unicode="W" horiz-adv-x="826" 
d="M661 0h-122l-127 577l-128 -577h-119l-140 689h93l111 -606l133 606h101l136 -606l115 606h87z" />
    <glyph glyph-name="Wacute" unicode="&#x1e82;" horiz-adv-x="826" 
d="M661 0h-122l-127 577l-128 -577h-119l-140 689h93l111 -606l133 606h101l136 -606l115 606h87zM535 834l-216 -79l-24 49l200 107z" />
    <glyph glyph-name="Wcircumflex" unicode="&#x174;" horiz-adv-x="826" 
d="M661 0h-122l-127 577l-128 -577h-119l-140 689h93l111 -606l133 606h101l136 -606l115 606h87zM412 840l-126 -81l-40 45l136 110h61l135 -110l-39 -45z" />
    <glyph glyph-name="Wdieresis" unicode="&#x1e84;" horiz-adv-x="826" 
d="M661 0h-122l-127 577l-128 -577h-119l-140 689h93l111 -606l133 606h101l136 -606l115 606h87zM348.5 877.5q16.5 -16.5 16.5 -40.5t-16.5 -40.5t-40.5 -16.5q-25 0 -41.5 16.5t-16.5 40.5t16.5 40.5t41.5 16.5q24 0 40.5 -16.5zM558.5 877.5q16.5 -16.5 16.5 -40.5
t-16.5 -40.5t-41.5 -16.5q-24 0 -40.5 16.5t-16.5 40.5t16.5 40.5t40.5 16.5q25 0 41.5 -16.5z" />
    <glyph glyph-name="Wgrave" unicode="&#x1e80;" horiz-adv-x="826" 
d="M661 0h-122l-127 577l-128 -577h-119l-140 689h93l111 -606l133 606h101l136 -606l115 606h87zM523 804l-24 -49l-216 79l39 77z" />
    <glyph glyph-name="uni2C72" unicode="&#x2c72;" horiz-adv-x="866" 
d="M661 0h-122l-127 577l-128 -577h-119l-140 689h93l111 -606l133 606h101l136 -606l83 490q11 67 45 97.5t90 30.5q31 0 55.5 -10.5t48.5 -29.5l-36 -54q-29 22 -60 22q-29 0 -42.5 -15t-20.5 -53z" />
    <glyph glyph-name="X" unicode="X" horiz-adv-x="540" 
d="M535 0h-108l-159 305l-161 -305h-102l207 367l-189 322h108l139 -259l140 259h102l-187 -317z" />
    <glyph glyph-name="Y" unicode="Y" horiz-adv-x="550" 
d="M323 265v-265h-96v264l-222 425h105l168 -341l168 341h99z" />
    <glyph glyph-name="Yacute" unicode="&#xdd;" horiz-adv-x="550" 
d="M323 265v-265h-96v264l-222 425h105l168 -341l168 341h99zM400 834l-216 -79l-24 49l200 107z" />
    <glyph glyph-name="Ycircumflex" unicode="&#x176;" horiz-adv-x="550" 
d="M323 265v-265h-96v264l-222 425h105l168 -341l168 341h99zM277 840l-126 -81l-40 45l136 110h61l135 -110l-39 -45z" />
    <glyph glyph-name="Ydieresis" unicode="&#x178;" horiz-adv-x="550" 
d="M323 265v-265h-96v264l-222 425h105l168 -341l168 341h99zM213.5 877.5q16.5 -16.5 16.5 -40.5t-16.5 -40.5t-40.5 -16.5q-25 0 -41.5 16.5t-16.5 40.5t16.5 40.5t41.5 16.5q24 0 40.5 -16.5zM423.5 877.5q16.5 -16.5 16.5 -40.5t-16.5 -40.5t-41.5 -16.5
q-24 0 -40.5 16.5t-16.5 40.5t16.5 40.5t40.5 16.5q25 0 41.5 -16.5z" />
    <glyph glyph-name="uni1EF4" unicode="&#x1ef4;" horiz-adv-x="550" 
d="M323 265v-265h-96v264l-222 425h105l168 -341l168 341h99zM321 -92q18 -18 18 -45t-18 -44.5t-47 -17.5q-28 0 -46 17.5t-18 44.5t18 45t46 18q29 0 47 -18z" />
    <glyph glyph-name="Ygrave" unicode="&#x1ef2;" horiz-adv-x="550" 
d="M323 265v-265h-96v264l-222 425h105l168 -341l168 341h99zM388 804l-24 -49l-216 79l39 77z" />
    <glyph glyph-name="uni01B3" unicode="&#x1b3;" horiz-adv-x="586" 
d="M227 264l-222 425h105l168 -341l110 239q28 61 61.5 87.5t86.5 26.5q31 0 56 -10.5t49 -29.5l-36 -54q-29 22 -63 22q-24 0 -40 -14.5t-35 -53.5l-144 -296v-265h-96v264z" />
    <glyph glyph-name="uni1EF6" unicode="&#x1ef6;" horiz-adv-x="550" 
d="M323 265v-265h-96v264l-222 425h105l168 -341l168 341h99zM239 847q39 5 55 13.5t16 29.5q0 18 -12 27t-32 9q-30 0 -57 -15l-22 53q41 24 94 24q51 0 79.5 -24.5t28.5 -66.5q0 -37 -21 -58.5t-60 -27.5v-48h-69v84z" />
    <glyph glyph-name="uni1EF8" unicode="&#x1ef8;" horiz-adv-x="550" 
d="M323 265v-265h-96v264l-222 425h105l168 -341l168 341h99zM301.5 789q-15.5 7 -34.5 20q-15 11 -25.5 16t-21.5 5q-16 0 -28 -11t-25 -35l-56 28q19 40 46.5 64t62.5 24q21 0 36 -7.5t34 -20.5q3 -2 12.5 -8t17.5 -9t16 -3q15 0 27 10.5t26 33.5l56 -28q-19 -42 -47 -64
t-62 -22q-19 0 -34.5 7z" />
    <glyph glyph-name="Z" unicode="Z" horiz-adv-x="522" 
d="M477 612l-341 -531h341l-11 -81h-436v76l344 533h-308v80h411v-77z" />
    <glyph glyph-name="Zacute" unicode="&#x179;" horiz-adv-x="522" 
d="M477 612l-341 -531h341l-11 -81h-436v76l344 533h-308v80h411v-77zM394 834l-216 -79l-24 49l200 107z" />
    <glyph glyph-name="Zcaron" unicode="&#x17d;" horiz-adv-x="522" 
d="M477 612l-341 -531h341l-11 -81h-436v76l344 533h-308v80h411v-77zM438 864l-135 -110h-61l-136 110l40 45l126 -81l127 81z" />
    <glyph glyph-name="Zdotaccent" unicode="&#x17b;" horiz-adv-x="522" 
d="M477 612l-341 -531h341l-11 -81h-436v76l344 533h-308v80h411v-77zM318 888q18 -18 18 -45t-18 -44.5t-47 -17.5q-28 0 -46 17.5t-18 44.5t18 45t46 18q29 0 47 -18z" />
    <glyph glyph-name="uni1E92" unicode="&#x1e92;" horiz-adv-x="522" 
d="M477 612l-341 -531h341l-11 -81h-436v76l344 533h-308v80h411v-77zM304 -92q18 -18 18 -45t-18 -44.5t-47 -17.5q-28 0 -46 17.5t-18 44.5t18 45t46 18q29 0 47 -18z" />
    <glyph glyph-name="Cacute.loclPLK" 
d="M445.5 685q42.5 -16 86.5 -52l-52 -61q-63 51 -133 51q-86 0 -138.5 -66t-52.5 -212q0 -142 52 -209.5t138 -67.5q44 0 76 15t70 43l48 -61q-31 -33 -81.5 -55t-115.5 -22q-84 0 -149.5 41.5t-102 122t-36.5 193.5t38 193.5t103 121.5t145 41q62 0 104.5 -16zM471 879
l-132 -145l-45 28l105 164z" />
    <glyph glyph-name="Nacute.loclPLK" horiz-adv-x="683" 
d="M583 0h-127l-280 585q6 -69 9.5 -127.5t3.5 -141.5v-316h-89v689h124l283 -586q-3 26 -8 91t-5 119v376h89v-689zM477 879l-132 -145l-45 28l105 164z" />
    <glyph glyph-name="Oacute.loclPLK" horiz-adv-x="692" 
d="M498.5 659.5q65.5 -41.5 102 -121.5t36.5 -194q0 -112 -36.5 -192t-102 -122t-152.5 -42t-152.5 41t-102 121t-36.5 193q0 111 36.5 192t102.5 123.5t152 42.5q87 0 152.5 -41.5zM206 555q-50 -68 -50 -212q0 -143 50.5 -210t139.5 -67q190 0 190 278q0 279 -190 279
q-90 0 -140 -68zM470 879l-132 -145l-45 28l105 164z" />
    <glyph glyph-name="Sacute.loclPLK" horiz-adv-x="545" 
d="M388 681.5q49 -19.5 95 -60.5l-54 -60q-37 33 -74.5 47.5t-80.5 14.5q-54 0 -89 -25t-35 -73q0 -30 12 -50.5t44.5 -37.5t94.5 -36q65 -20 108 -43t69.5 -63.5t26.5 -102.5q0 -60 -29.5 -106t-85 -72t-131.5 -26q-143 0 -234 89l55 61q75 -72 178 -72q64 0 106 31.5
t42 91.5q0 34 -13 56.5t-44.5 40.5t-91.5 36q-106 32 -155 77t-49 122q0 52 27.5 93t77 64t112.5 23q69 0 118 -19.5zM400 879l-132 -145l-45 28l105 164z" />
    <glyph glyph-name="Zacute.loclPLK" horiz-adv-x="522" 
d="M477 612l-341 -531h341l-11 -81h-436v76l344 533h-308v80h411v-77zM396 879l-132 -145l-45 28l105 164z" />
    <glyph glyph-name="uni0181.ss01" horiz-adv-x="579" 
d="M479.5 377q69.5 -53 69.5 -157q0 -114 -71.5 -167t-195.5 -53h-182v689h375l-12 -78h-268v-181h91q124 0 193.5 -53zM407 107q41 31 41 111q0 74 -41 106t-120 32h-92v-280h95q76 0 117 31z" />
    <glyph glyph-name="uniA78D.ss01" horiz-adv-x="601" 
d="M406 268h-358v421h95v-343h263v343h95v-689h-95v268z" />
    <glyph glyph-name="Eng.ss01" horiz-adv-x="672" 
d="M532.5 647.5q46.5 -53.5 46.5 -140.5v-564q0 -76 -40 -116t-111 -40q-65 0 -115 38l36 61q20 -12 35.5 -17.5t38.5 -5.5q61 0 61 74v551q0 68 -26.5 101.5t-83.5 33.5q-55 0 -93.5 -22.5t-85.5 -70.5v-530h-95v689h82l8 -83q44 46 93 70.5t111 24.5q92 0 138.5 -53.5z
" />
    <glyph glyph-name="uni019D.ss01" horiz-adv-x="672" 
d="M532.5 647.5q46.5 -53.5 46.5 -140.5v-507h-95v488q0 68 -26.5 101.5t-83.5 33.5q-55 0 -93.5 -22.5t-85.5 -70.5v-587q0 -76 -40 -116t-111 -40q-65 0 -115 38l36 61q20 -12 35.5 -17.5t38.5 -5.5q61 0 61 74v752h82l8 -83q44 46 93 70.5t111 24.5q92 0 138.5 -53.5z
" />
    <glyph glyph-name="uni2C64.ss01" horiz-adv-x="420" 
d="M256 -137q23 0 38.5 5.5t35.5 17.5l36 -61q-50 -38 -115 -38q-71 0 -111 40t-40 116v746h82l8 -98q25 56 64 83t99 27q40 0 67 -10l-22 -90q-26 7 -54 7q-59 0 -95.5 -36.5t-53.5 -112.5v-522q0 -74 61 -74z" />
    <glyph glyph-name="uni0299" unicode="&#x299;" horiz-adv-x="564" 
d="M474 247q33 -32 33 -91q0 -79 -60.5 -117.5t-161.5 -38.5h-190v520q93 19 173 19q97 0 154.5 -36t57.5 -102q0 -43 -24.5 -72t-82.5 -43q68 -7 101 -39zM187 462v-149h94q50 0 77.5 18t27.5 61q0 40 -29 58t-88 18q-42 0 -82 -6zM371.5 88.5q38.5 16.5 38.5 68.5
q0 51 -32 69.5t-91 18.5h-100v-173h83q63 0 101.5 16.5z" />
    <glyph glyph-name="uni0262" unicode="&#x262;" 
d="M402.5 523q41.5 -16 82.5 -48l-51 -58q-32 24 -61.5 35t-67.5 11q-64 0 -107 -49.5t-43 -147.5q0 -107 35 -155.5t102 -48.5q57 0 104 22v142h-96l-10 71h196v-255q-91 -53 -195 -53q-111 0 -172.5 70.5t-61.5 206.5q0 82 33.5 144t90 95.5t123.5 33.5q57 0 98.5 -16z
" />
    <glyph glyph-name="uni029B" unicode="&#x29b;" 
d="M659 712l-36 -59q-20 12 -35.5 17.5t-38.5 5.5q-64 0 -64 -74v-127l-46 -52q-33 20 -63.5 30t-69.5 10q-66 0 -108.5 -49t-42.5 -148q0 -107 35 -155.5t102 -48.5q57 0 104 22v142h-96l-10 71h196v-255q-91 -53 -195 -53q-111 0 -172.5 70.5t-61.5 206.5q0 82 33.5 144
t90 95.5t123.5 33.5q48 0 89 -19v74q0 76 40 116t111 40q65 0 115 -38z" />
    <glyph glyph-name="uni029C" unicode="&#x29c;" horiz-adv-x="593" 
d="M406 232h-219v-232h-92v527h92v-221h219v221h92v-527h-92v232z" />
    <glyph glyph-name="uni026A" unicode="&#x26a;" horiz-adv-x="333" 
d="M212 455v-383h96v-72h-283v72h95v383h-95v72h283v-72h-96z" />
    <glyph glyph-name="uni029F" unicode="&#x29f;" horiz-adv-x="436" 
d="M187 78h234l-11 -78h-315v527h92v-449z" />
    <glyph glyph-name="uni0274" unicode="&#x274;" horiz-adv-x="595" 
d="M500 0h-118l-213 436q11 -104 11 -227v-209h-85v527h118l213 -438q-11 68 -11 151v287h85v-527z" />
    <glyph glyph-name="uni0276" unicode="&#x276;" horiz-adv-x="758" 
d="M723 0h-357q-39 -12 -74 -12q-111 0 -173 74t-62 201q0 82 28 144.5t81 97t127 34.5q26 0 43 -2.5t38 -9.5h344l-10 -71h-252q28 -26 46 -66t24 -87h152v-71h-151q-9 -103 -76 -161h272v-71zM191 112q35 -50 102 -50q61 0 99 50.5t38 150.5q0 101 -37.5 151.5t-99.5 50.5
q-137 0 -137 -202q0 -101 35 -151z" />
    <glyph glyph-name="uni0280" unicode="&#x280;" horiz-adv-x="522" 
d="M261 202h-74v-202h-92v527h143q107 0 163.5 -41t56.5 -120q0 -106 -113 -146l147 -220h-104zM187 272h63q55 0 83.5 22.5t28.5 71.5q0 47 -31 69t-94 22h-50v-185z" />
    <glyph glyph-name="uni0281" unicode="&#x281;" horiz-adv-x="522" 
d="M429 257q29 -36 29 -91q0 -82 -56.5 -124t-163.5 -42h-143v527h92v-202h79l127 202h99l-145 -217q53 -17 82 -53zM331.5 92.5q30.5 22.5 30.5 73.5q0 89 -112 89h-63v-185h50q64 0 94.5 22.5z" />
    <glyph glyph-name="uni028F" unicode="&#x28f;" horiz-adv-x="458" 
d="M275 198v-198h-92v197l-183 330h100l132 -261l129 261h97z" />
    <glyph glyph-name="a" unicode="a" horiz-adv-x="544" 
d="M461 75.5q11 -15.5 33 -23.5l-21 -64q-41 5 -66 23t-37 56q-53 -79 -157 -79q-78 0 -123 44t-45 115q0 84 60.5 129t171.5 45h81v39q0 56 -27 80t-83 24q-58 0 -142 -28l-23 67q98 36 182 36q93 0 139 -45.5t46 -129.5v-241q0 -32 11 -47.5zM358 139v121h-69
q-146 0 -146 -108q0 -47 23 -71t68 -24q79 0 124 82z" />
    <glyph glyph-name="aacute" unicode="&#xe1;" horiz-adv-x="544" 
d="M461 75.5q11 -15.5 33 -23.5l-21 -64q-41 5 -66 23t-37 56q-53 -79 -157 -79q-78 0 -123 44t-45 115q0 84 60.5 129t171.5 45h81v39q0 56 -27 80t-83 24q-58 0 -142 -28l-23 67q98 36 182 36q93 0 139 -45.5t46 -129.5v-241q0 -32 11 -47.5zM358 139v121h-69
q-146 0 -146 -108q0 -47 23 -71t68 -24q79 0 124 82zM371 724l-212 -86l-28 49l199 114z" />
    <glyph glyph-name="abreve" unicode="&#x103;" horiz-adv-x="544" 
d="M461 75.5q11 -15.5 33 -23.5l-21 -64q-41 5 -66 23t-37 56q-53 -79 -157 -79q-78 0 -123 44t-45 115q0 84 60.5 129t171.5 45h81v39q0 56 -27 80t-83 24q-58 0 -142 -28l-23 67q98 36 182 36q93 0 139 -45.5t46 -129.5v-241q0 -32 11 -47.5zM358 139v121h-69
q-146 0 -146 -108q0 -47 23 -71t68 -24q79 0 124 82zM156.5 678.5q-41.5 35.5 -47.5 97.5l61 13q21 -76 89 -76q71 0 92 76l61 -13q-6 -62 -48.5 -97.5t-104.5 -35.5q-61 0 -102.5 35.5z" />
    <glyph glyph-name="uni1EAF" unicode="&#x1eaf;" horiz-adv-x="544" 
d="M257 728l-38 35l118 145l56 -54zM157 632q-42 34 -48 89l61 13q23 -66 89 -66q34 0 57.5 17.5t34.5 48.5l61 -13q-6 -55 -49 -89t-104 -34q-60 0 -102 34zM461 75.5q11 -15.5 33 -23.5l-21 -64q-41 5 -66 23t-37 56q-53 -79 -157 -79q-78 0 -123 44t-45 115
q0 84 60.5 129t171.5 45h81v39q0 56 -27 80t-83 24q-58 0 -142 -28l-23 67q98 36 182 36q93 0 139 -45.5t46 -129.5v-241q0 -32 11 -47.5zM358 139v121h-69q-146 0 -146 -108q0 -47 23 -71t68 -24q79 0 124 82z" />
    <glyph glyph-name="uni1EB7" unicode="&#x1eb7;" horiz-adv-x="544" 
d="M461 75.5q11 -15.5 33 -23.5l-21 -64q-41 5 -66 23t-37 56q-53 -79 -157 -79q-78 0 -123 44t-45 115q0 84 60.5 129t171.5 45h81v39q0 56 -27 80t-83 24q-58 0 -142 -28l-23 67q98 36 182 36q93 0 139 -45.5t46 -129.5v-241q0 -32 11 -47.5zM358 139v121h-69
q-146 0 -146 -108q0 -47 23 -71t68 -24q79 0 124 82zM307 -92q18 -18 18 -45t-18 -44.5t-47 -17.5q-28 0 -46 17.5t-18 44.5t18 45t46 18q29 0 47 -18zM156.5 678.5q-41.5 35.5 -47.5 97.5l61 13q21 -76 89 -76q71 0 92 76l61 -13q-6 -62 -48.5 -97.5t-104.5 -35.5
q-61 0 -102.5 35.5z" />
    <glyph glyph-name="uni1EB1" unicode="&#x1eb1;" horiz-adv-x="544" 
d="M260 728l-136 126l56 54l118 -145zM157 632q-42 34 -48 89l61 13q23 -66 89 -66q34 0 57.5 17.5t34.5 48.5l61 -13q-6 -55 -49 -89t-104 -34q-60 0 -102 34zM461 75.5q11 -15.5 33 -23.5l-21 -64q-41 5 -66 23t-37 56q-53 -79 -157 -79q-78 0 -123 44t-45 115
q0 84 60.5 129t171.5 45h81v39q0 56 -27 80t-83 24q-58 0 -142 -28l-23 67q98 36 182 36q93 0 139 -45.5t46 -129.5v-241q0 -32 11 -47.5zM358 139v121h-69q-146 0 -146 -108q0 -47 23 -71t68 -24q79 0 124 82z" />
    <glyph glyph-name="uni1EB3" unicode="&#x1eb3;" horiz-adv-x="544" 
d="M190 874l-22 53q41 24 94 24q51 0 79.5 -24.5t28.5 -66.5q0 -37 -21 -58.5t-60 -27.5v-58h-69v94q39 5 55 13.5t16 29.5q0 18 -12 27t-32 9q-30 0 -57 -15zM157 632q-42 34 -48 89l61 13q23 -66 89 -66q34 0 57.5 17.5t34.5 48.5l61 -13q-6 -55 -49 -89t-104 -34
q-60 0 -102 34zM461 75.5q11 -15.5 33 -23.5l-21 -64q-41 5 -66 23t-37 56q-53 -79 -157 -79q-78 0 -123 44t-45 115q0 84 60.5 129t171.5 45h81v39q0 56 -27 80t-83 24q-58 0 -142 -28l-23 67q98 36 182 36q93 0 139 -45.5t46 -129.5v-241q0 -32 11 -47.5zM358 139v121h-69
q-146 0 -146 -108q0 -47 23 -71t68 -24q79 0 124 82z" />
    <glyph glyph-name="uni1EB5" unicode="&#x1eb5;" horiz-adv-x="544" 
d="M173 798q-12 -11 -25 -35l-56 28q19 40 46.5 64t62.5 24q21 0 36 -7.5t34 -20.5q3 -2 12.5 -8t17.5 -9t16 -3q15 0 27 10.5t26 33.5l56 -28q-19 -42 -47 -64t-62 -22q-19 0 -34.5 7t-34.5 20q-15 11 -25.5 16t-21.5 5q-16 0 -28 -11zM316.5 685.5q23.5 17.5 34.5 48.5
l61 -13q-6 -55 -49 -89t-104 -34q-60 0 -102 34t-48 89l61 13q23 -66 89 -66q34 0 57.5 17.5zM461 75.5q11 -15.5 33 -23.5l-21 -64q-41 5 -66 23t-37 56q-53 -79 -157 -79q-78 0 -123 44t-45 115q0 84 60.5 129t171.5 45h81v39q0 56 -27 80t-83 24q-58 0 -142 -28l-23 67
q98 36 182 36q93 0 139 -45.5t46 -129.5v-241q0 -32 11 -47.5zM358 139v121h-69q-146 0 -146 -108q0 -47 23 -71t68 -24q79 0 124 82z" />
    <glyph glyph-name="uni01CE" unicode="&#x1ce;" horiz-adv-x="544" 
d="M461 75.5q11 -15.5 33 -23.5l-21 -64q-41 5 -66 23t-37 56q-53 -79 -157 -79q-78 0 -123 44t-45 115q0 84 60.5 129t171.5 45h81v39q0 56 -27 80t-83 24q-58 0 -142 -28l-23 67q98 36 182 36q93 0 139 -45.5t46 -129.5v-241q0 -32 11 -47.5zM358 139v121h-69
q-146 0 -146 -108q0 -47 23 -71t68 -24q79 0 124 82zM426 740l-135 -113h-61l-136 113l40 45l126 -84l127 84z" />
    <glyph glyph-name="acircumflex" unicode="&#xe2;" horiz-adv-x="544" 
d="M461 75.5q11 -15.5 33 -23.5l-21 -64q-41 5 -66 23t-37 56q-53 -79 -157 -79q-78 0 -123 44t-45 115q0 84 60.5 129t171.5 45h81v39q0 56 -27 80t-83 24q-58 0 -142 -28l-23 67q98 36 182 36q93 0 139 -45.5t46 -129.5v-241q0 -32 11 -47.5zM358 139v121h-69
q-146 0 -146 -108q0 -47 23 -71t68 -24q79 0 124 82zM95 679l135 113h61l136 -113l-40 -45l-126 84l-127 -84z" />
    <glyph glyph-name="uni1EA5" unicode="&#x1ea5;" horiz-adv-x="544" 
d="M387 712l-38 35l118 145l56 -54zM130 589l-40 45l136 110h61l135 -110l-39 -45l-127 81zM461 75.5q11 -15.5 33 -23.5l-21 -64q-41 5 -66 23t-37 56q-53 -79 -157 -79q-78 0 -123 44t-45 115q0 84 60.5 129t171.5 45h81v39q0 56 -27 80t-83 24q-58 0 -142 -28l-23 67
q98 36 182 36q93 0 139 -45.5t46 -129.5v-241q0 -32 11 -47.5zM358 139v121h-69q-146 0 -146 -108q0 -47 23 -71t68 -24q79 0 124 82z" />
    <glyph glyph-name="uni1EAD" unicode="&#x1ead;" horiz-adv-x="544" 
d="M461 75.5q11 -15.5 33 -23.5l-21 -64q-41 5 -66 23t-37 56q-53 -79 -157 -79q-78 0 -123 44t-45 115q0 84 60.5 129t171.5 45h81v39q0 56 -27 80t-83 24q-58 0 -142 -28l-23 67q98 36 182 36q93 0 139 -45.5t46 -129.5v-241q0 -32 11 -47.5zM358 139v121h-69
q-146 0 -146 -108q0 -47 23 -71t68 -24q79 0 124 82zM307 -92q18 -18 18 -45t-18 -44.5t-47 -17.5q-28 0 -46 17.5t-18 44.5t18 45t46 18q29 0 47 -18zM95 679l135 113h61l136 -113l-40 -45l-126 84l-127 -84z" />
    <glyph glyph-name="uni1EA7" unicode="&#x1ea7;" horiz-adv-x="544" 
d="M126 712l-136 126l56 54l118 -145zM90 634l136 110h61l135 -110l-39 -45l-127 81l-126 -81zM461 75.5q11 -15.5 33 -23.5l-21 -64q-41 5 -66 23t-37 56q-53 -79 -157 -79q-78 0 -123 44t-45 115q0 84 60.5 129t171.5 45h81v39q0 56 -27 80t-83 24q-58 0 -142 -28l-23 67
q98 36 182 36q93 0 139 -45.5t46 -129.5v-241q0 -32 11 -47.5zM358 139v121h-69q-146 0 -146 -108q0 -47 23 -71t68 -24q79 0 124 82z" />
    <glyph glyph-name="uni1EA9" unicode="&#x1ea9;" horiz-adv-x="544" 
d="M491.5 926.5q28.5 -24.5 28.5 -66.5q0 -37 -21 -58.5t-60 -27.5v-58h-69v94q39 5 55 13.5t16 29.5q0 18 -12 27t-32 9q-30 0 -57 -15l-22 53q41 24 94 24q51 0 79.5 -24.5zM130 589l-40 45l136 110h61l135 -110l-39 -45l-127 81zM461 75.5q11 -15.5 33 -23.5l-21 -64
q-41 5 -66 23t-37 56q-53 -79 -157 -79q-78 0 -123 44t-45 115q0 84 60.5 129t171.5 45h81v39q0 56 -27 80t-83 24q-58 0 -142 -28l-23 67q98 36 182 36q93 0 139 -45.5t46 -129.5v-241q0 -32 11 -47.5zM358 139v121h-69q-146 0 -146 -108q0 -47 23 -71t68 -24q79 0 124 82z
" />
    <glyph glyph-name="uni1EAB" unicode="&#x1eab;" horiz-adv-x="544" 
d="M171 794q-12 -11 -25 -35l-56 28q19 40 46.5 64t62.5 24q21 0 36 -7.5t34 -20.5q3 -2 12.5 -8t17.5 -9t16 -3q15 0 27 10.5t26 33.5l56 -28q-19 -42 -47 -64t-62 -22q-19 0 -34.5 7t-34.5 20q-15 11 -25.5 16t-21.5 5q-16 0 -28 -11zM130 579l-40 45l136 110h61l135 -110
l-39 -45l-127 81zM461 75.5q11 -15.5 33 -23.5l-21 -64q-41 5 -66 23t-37 56q-53 -79 -157 -79q-78 0 -123 44t-45 115q0 84 60.5 129t171.5 45h81v39q0 56 -27 80t-83 24q-58 0 -142 -28l-23 67q98 36 182 36q93 0 139 -45.5t46 -129.5v-241q0 -32 11 -47.5zM358 139v121
h-69q-146 0 -146 -108q0 -47 23 -71t68 -24q79 0 124 82z" />
    <glyph glyph-name="adieresis" unicode="&#xe4;" horiz-adv-x="544" 
d="M461 75.5q11 -15.5 33 -23.5l-21 -64q-41 5 -66 23t-37 56q-53 -79 -157 -79q-78 0 -123 44t-45 115q0 84 60.5 129t171.5 45h81v39q0 56 -27 80t-83 24q-58 0 -142 -28l-23 67q98 36 182 36q93 0 139 -45.5t46 -129.5v-241q0 -32 11 -47.5zM358 139v121h-69
q-146 0 -146 -108q0 -47 23 -71t68 -24q79 0 124 82zM196.5 751.5q16.5 -16.5 16.5 -40.5t-16.5 -40.5t-40.5 -16.5q-25 0 -41.5 16.5t-16.5 40.5t16.5 40.5t41.5 16.5q24 0 40.5 -16.5zM406.5 751.5q16.5 -16.5 16.5 -40.5t-16.5 -40.5t-41.5 -16.5q-24 0 -40.5 16.5
t-16.5 40.5t16.5 40.5t40.5 16.5q25 0 41.5 -16.5z" />
    <glyph glyph-name="uni01DF" unicode="&#x1df;" horiz-adv-x="544" 
d="M397 787h-273v69h273v-69zM114.5 640.5q-16.5 16.5 -16.5 40.5t16.5 40.5t41.5 16.5q24 0 40.5 -16.5t16.5 -40.5t-16.5 -40.5t-40.5 -16.5q-25 0 -41.5 16.5zM324.5 721.5q16.5 16.5 40.5 16.5q25 0 41.5 -16.5t16.5 -40.5t-16.5 -40.5t-41.5 -16.5q-24 0 -40.5 16.5
t-16.5 40.5t16.5 40.5zM461 75.5q11 -15.5 33 -23.5l-21 -64q-41 5 -66 23t-37 56q-53 -79 -157 -79q-78 0 -123 44t-45 115q0 84 60.5 129t171.5 45h81v39q0 56 -27 80t-83 24q-58 0 -142 -28l-23 67q98 36 182 36q93 0 139 -45.5t46 -129.5v-241q0 -32 11 -47.5zM358 139
v121h-69q-146 0 -146 -108q0 -47 23 -71t68 -24q79 0 124 82z" />
    <glyph glyph-name="uni1EA1" unicode="&#x1ea1;" horiz-adv-x="544" 
d="M461 75.5q11 -15.5 33 -23.5l-21 -64q-41 5 -66 23t-37 56q-53 -79 -157 -79q-78 0 -123 44t-45 115q0 84 60.5 129t171.5 45h81v39q0 56 -27 80t-83 24q-58 0 -142 -28l-23 67q98 36 182 36q93 0 139 -45.5t46 -129.5v-241q0 -32 11 -47.5zM358 139v121h-69
q-146 0 -146 -108q0 -47 23 -71t68 -24q79 0 124 82zM307 -92q18 -18 18 -45t-18 -44.5t-47 -17.5q-28 0 -46 17.5t-18 44.5t18 45t46 18q29 0 47 -18z" />
    <glyph glyph-name="agrave" unicode="&#xe0;" horiz-adv-x="544" 
d="M461 75.5q11 -15.5 33 -23.5l-21 -64q-41 5 -66 23t-37 56q-53 -79 -157 -79q-78 0 -123 44t-45 115q0 84 60.5 129t171.5 45h81v39q0 56 -27 80t-83 24q-58 0 -142 -28l-23 67q98 36 182 36q93 0 139 -45.5t46 -129.5v-241q0 -32 11 -47.5zM358 139v121h-69
q-146 0 -146 -108q0 -47 23 -71t68 -24q79 0 124 82zM391 687l-28 -49l-212 86l41 77z" />
    <glyph glyph-name="uni1EA3" unicode="&#x1ea3;" horiz-adv-x="544" 
d="M461 75.5q11 -15.5 33 -23.5l-21 -64q-41 5 -66 23t-37 56q-53 -79 -157 -79q-78 0 -123 44t-45 115q0 84 60.5 129t171.5 45h81v39q0 56 -27 80t-83 24q-58 0 -142 -28l-23 67q98 36 182 36q93 0 139 -45.5t46 -129.5v-241q0 -32 11 -47.5zM358 139v121h-69
q-146 0 -146 -108q0 -47 23 -71t68 -24q79 0 124 82zM222 705q39 5 55 13.5t16 29.5q0 18 -12 27t-32 9q-30 0 -57 -15l-22 53q41 24 94 24q51 0 79.5 -24.5t28.5 -66.5q0 -37 -21 -58.5t-60 -27.5v-58h-69v94z" />
    <glyph glyph-name="amacron" unicode="&#x101;" horiz-adv-x="544" 
d="M461 75.5q11 -15.5 33 -23.5l-21 -64q-41 5 -66 23t-37 56q-53 -79 -157 -79q-78 0 -123 44t-45 115q0 84 60.5 129t171.5 45h81v39q0 56 -27 80t-83 24q-58 0 -142 -28l-23 67q98 36 182 36q93 0 139 -45.5t46 -129.5v-241q0 -32 11 -47.5zM358 139v121h-69
q-146 0 -146 -108q0 -47 23 -71t68 -24q79 0 124 82zM124 667v69h273v-69h-273z" />
    <glyph glyph-name="aogonek" unicode="&#x105;" horiz-adv-x="544" 
d="M376 -69.5q-26 -26.5 -26 -56.5q0 -48 56 -48q27 0 61 7l-9 -70q-35 -7 -63 -7q-57 0 -91 28.5t-34 72.5q0 49 35.5 85.5t108.5 63.5q-31 19 -44 61q-53 -79 -157 -79q-78 0 -123 44t-45 115q0 84 60.5 129t171.5 45h81v39q0 56 -27 80t-83 24q-58 0 -142 -28l-23 67
q98 36 182 36q93 0 139 -45.5t46 -129.5v-241q0 -32 11 -47.5t33 -23.5l-21 -64q-71 -31 -97 -57.5zM358 139v121h-69q-146 0 -146 -108q0 -47 23 -71t68 -24q79 0 124 82z" />
    <glyph glyph-name="aring" unicode="&#xe5;" horiz-adv-x="544" 
d="M461 75.5q11 -15.5 33 -23.5l-21 -64q-41 5 -66 23t-37 56q-53 -79 -157 -79q-78 0 -123 44t-45 115q0 84 60.5 129t171.5 45h81v39q0 56 -27 80t-83 24q-58 0 -142 -28l-23 67q98 36 182 36q93 0 139 -45.5t46 -129.5v-241q0 -32 11 -47.5zM358 139v121h-69
q-146 0 -146 -108q0 -47 23 -71t68 -24q79 0 124 82zM343 805.5q32 -30.5 32 -75.5t-32 -75.5t-82 -30.5t-82 30.5t-32 75.5t32 75.5t82 30.5t82 -30.5zM222 771q-14 -15 -14 -41t14 -41t39 -15q24 0 38.5 15t14.5 41t-14 41t-39 15t-39 -15z" />
    <glyph glyph-name="uni0251" unicode="&#x251;" horiz-adv-x="599" 
d="M508 85.5q10 -16.5 36 -28.5l-29 -69q-45 11 -68 31t-33 51q-27 -39 -67.5 -60.5t-85.5 -21.5q-95 0 -149.5 74.5t-54.5 198.5q0 81 25.5 144t74 98.5t113.5 35.5q48 0 82 -19t61 -53l6 60h79v-388q0 -37 10 -53.5zM348 80.5q30 19.5 58 58.5v258q-26 34 -55.5 51.5
t-66.5 17.5q-61 0 -94.5 -51t-33.5 -152q0 -102 30.5 -152t88.5 -50q43 0 73 19.5z" />
    <glyph glyph-name="uni0252" unicode="&#x252;" horiz-adv-x="599" 
d="M91 441.5q-10 16.5 -36 28.5l29 69q45 -11 68 -31t33 -51q27 39 67.5 60.5t85.5 21.5q95 0 149.5 -74.5t54.5 -198.5q0 -81 -25.5 -144t-74 -98.5t-113.5 -35.5q-48 0 -82 19t-61 53l-6 -60h-79v388q0 37 -10 53.5zM251 446.5q-30 -19.5 -58 -58.5v-258
q26 -34 55.5 -51.5t66.5 -17.5q61 0 94.5 51t33.5 152q0 102 -30.5 152t-88.5 50q-43 0 -73 -19.5z" />
    <glyph glyph-name="atilde" unicode="&#xe3;" horiz-adv-x="544" 
d="M461 75.5q11 -15.5 33 -23.5l-21 -64q-41 5 -66 23t-37 56q-53 -79 -157 -79q-78 0 -123 44t-45 115q0 84 60.5 129t171.5 45h81v39q0 56 -27 80t-83 24q-58 0 -142 -28l-23 67q98 36 182 36q93 0 139 -45.5t46 -129.5v-241q0 -32 11 -47.5zM358 139v121h-69
q-146 0 -146 -108q0 -47 23 -71t68 -24q79 0 124 82zM284.5 663q-15.5 7 -34.5 20q-15 11 -25.5 16t-21.5 5q-16 0 -28 -11t-25 -35l-56 28q19 40 46.5 64t62.5 24q21 0 36 -7.5t34 -20.5q3 -2 12.5 -8t17.5 -9t16 -3q15 0 27 10.5t26 33.5l56 -28q-19 -42 -47 -64t-62 -22
q-19 0 -34.5 7z" />
    <glyph glyph-name="uni0250" unicode="&#x250;" horiz-adv-x="544" 
d="M83 451.5q-11 15.5 -33 23.5l21 64q41 -5 66 -23t37 -56q53 79 157 79q78 0 123 -44t45 -115q0 -84 -60.5 -129t-171.5 -45h-81v-39q0 -56 27 -80t83 -24q58 0 142 28l23 -67q-98 -36 -182 -36q-93 0 -139 45.5t-46 129.5v241q0 32 -11 47.5zM186 388v-121h69
q146 0 146 108q0 47 -23 71t-68 24q-79 0 -124 -82z" />
    <glyph glyph-name="ae" unicode="&#xe6;" horiz-adv-x="854" 
d="M795 232h-336q6 -87 44 -128t98 -41q38 0 70 11t67 35l40 -55q-84 -66 -184 -66q-63 0 -111.5 25t-78.5 72q-36 -52 -81 -74.5t-107 -22.5q-79 0 -125 44t-46 115q0 84 62 129t173 45h81v39q0 56 -27 80t-83 24q-58 0 -142 -28l-23 67q98 36 182 36q114 0 157 -84
q57 84 159 84t157.5 -69t55.5 -191q0 -23 -2 -47zM706 306q0 78 -31 119t-93 41q-113 0 -123 -166h247v6zM312.5 79q33.5 22 63.5 70q-15 48 -15 108v3h-69q-146 0 -146 -108q0 -47 23 -71t68 -24q42 0 75.5 22z" />
    <glyph glyph-name="aeacute" unicode="&#x1fd;" horiz-adv-x="854" 
d="M795 232h-336q6 -87 44 -128t98 -41q38 0 70 11t67 35l40 -55q-84 -66 -184 -66q-63 0 -111.5 25t-78.5 72q-36 -52 -81 -74.5t-107 -22.5q-79 0 -125 44t-46 115q0 84 62 129t173 45h81v39q0 56 -27 80t-83 24q-58 0 -142 -28l-23 67q98 36 182 36q114 0 157 -84
q57 84 159 84t157.5 -69t55.5 -191q0 -23 -2 -47zM706 306q0 78 -31 119t-93 41q-113 0 -123 -166h247v6zM312.5 79q33.5 22 63.5 70q-15 48 -15 108v3h-69q-146 0 -146 -108q0 -47 23 -71t68 -24q42 0 75.5 22zM532 724l-212 -86l-28 49l199 114z" />
    <glyph glyph-name="b" unicode="b" horiz-adv-x="594" 
d="M479 466.5q53 -72.5 53 -202.5q0 -82 -25 -144.5t-72 -97t-110 -34.5q-83 0 -140 70l-9 -58h-81v739l92 11v-289q57 78 149 78q90 0 143 -72.5zM398.5 110.5q34.5 49.5 34.5 153.5q0 107 -32 154.5t-91 47.5q-70 0 -123 -82v-252q21 -33 51.5 -52t64.5 -19
q61 0 95.5 49.5z" />
    <glyph glyph-name="uni1E05" unicode="&#x1e05;" horiz-adv-x="594" 
d="M479 466.5q53 -72.5 53 -202.5q0 -82 -25 -144.5t-72 -97t-110 -34.5q-83 0 -140 70l-9 -58h-81v739l92 11v-289q57 78 149 78q90 0 143 -72.5zM398.5 110.5q34.5 49.5 34.5 153.5q0 107 -32 154.5t-91 47.5q-70 0 -123 -82v-252q21 -33 51.5 -52t64.5 -19
q61 0 95.5 49.5zM354 -92q18 -18 18 -45t-18 -44.5t-47 -17.5q-28 0 -46 17.5t-18 44.5t18 45t46 18q29 0 47 -18z" />
    <glyph glyph-name="uni0253" unicode="&#x253;" horiz-adv-x="594" 
d="M479 466.5q53 -72.5 53 -202.5q0 -82 -25 -144.5t-72 -97t-110 -34.5q-83 0 -140 70l-9 -58h-81v599q0 68 43.5 109.5t121.5 41.5q36 0 64.5 -6.5t61.5 -20.5l-29 -67q-45 20 -92 20q-42 0 -60 -18.5t-18 -57.5v-139q57 78 149 78q90 0 143 -72.5zM398.5 110.5
q34.5 49.5 34.5 153.5q0 107 -32 154.5t-91 47.5q-70 0 -123 -82v-252q21 -33 51.5 -52t64.5 -19q61 0 95.5 49.5z" />
    <glyph glyph-name="uni0298" unicode="&#x298;" horiz-adv-x="792" 
d="M573 659q77 -42 120.5 -122.5t43.5 -191.5q0 -110 -43.5 -191t-121 -123.5t-176.5 -42.5t-176.5 42t-121 122.5t-43.5 191.5q0 109 44 189.5t121 124t176 43.5q100 0 177 -42zM212.5 555.5q-68.5 -71.5 -68.5 -211.5q0 -141 69 -211.5t183 -70.5q116 0 184 70t68 213
q0 140 -67.5 211t-184.5 71q-115 0 -183.5 -71.5zM441 390q18 -18 18 -45t-18 -44.5t-47 -17.5q-28 0 -46 17.5t-18 44.5t18 45t46 18q29 0 47 -18z" />
    <glyph glyph-name="c" unicode="c" horiz-adv-x="478" 
d="M373 525.5q39 -13.5 75 -43.5l-45 -60q-27 21 -53 31t-59 10q-64 0 -99.5 -51t-35.5 -151t35 -147.5t100 -47.5q32 0 57.5 10t55.5 33l44 -63q-72 -58 -161 -58q-107 0 -168.5 72t-61.5 199q0 84 28 147t79.5 98t122.5 35q47 0 86 -13.5z" />
    <glyph glyph-name="cacute" unicode="&#x107;" horiz-adv-x="478" 
d="M373 525.5q39 -13.5 75 -43.5l-45 -60q-27 21 -53 31t-59 10q-64 0 -99.5 -51t-35.5 -151t35 -147.5t100 -47.5q32 0 57.5 10t55.5 33l44 -63q-72 -58 -161 -58q-107 0 -168.5 72t-61.5 199q0 84 28 147t79.5 98t122.5 35q47 0 86 -13.5zM399 724l-212 -86l-28 49
l199 114z" />
    <glyph glyph-name="ccaron" unicode="&#x10d;" horiz-adv-x="478" 
d="M373 525.5q39 -13.5 75 -43.5l-45 -60q-27 21 -53 31t-59 10q-64 0 -99.5 -51t-35.5 -151t35 -147.5t100 -47.5q32 0 57.5 10t55.5 33l44 -63q-72 -58 -161 -58q-107 0 -168.5 72t-61.5 199q0 84 28 147t79.5 98t122.5 35q47 0 86 -13.5zM454 740l-135 -113h-61l-136 113
l40 45l126 -84l127 84z" />
    <glyph glyph-name="ccedilla" unicode="&#xe7;" horiz-adv-x="478" 
d="M308 -11v-45q48 -4 70.5 -27.5t22.5 -57.5q0 -48 -35 -74t-89 -26q-28 0 -52 6.5t-39 17.5l25 52q30 -16 63 -16q23 0 36.5 9.5t13.5 30.5t-21 31.5t-68 10.5l11 90q-89 14 -139 84t-50 184q0 84 28 147t79.5 98t122.5 35q47 0 86 -13.5t75 -43.5l-45 -60q-27 21 -53 31
t-59 10q-64 0 -99.5 -51t-35.5 -151t35 -147.5t100 -47.5q32 0 57.5 10t55.5 33l44 -63q-63 -51 -140 -57z" />
    <glyph glyph-name="ccircumflex" unicode="&#x109;" horiz-adv-x="478" 
d="M373 525.5q39 -13.5 75 -43.5l-45 -60q-27 21 -53 31t-59 10q-64 0 -99.5 -51t-35.5 -151t35 -147.5t100 -47.5q32 0 57.5 10t55.5 33l44 -63q-72 -58 -161 -58q-107 0 -168.5 72t-61.5 199q0 84 28 147t79.5 98t122.5 35q47 0 86 -13.5zM123 679l135 113h61l136 -113
l-40 -45l-126 84l-127 -84z" />
    <glyph glyph-name="uni0255" unicode="&#x255;" horiz-adv-x="488" 
d="M431.5 205q31.5 -29 31.5 -78q0 -65 -49 -102t-127 -37q-39 0 -71 10l-33 -73l-59 25l33 75q-48 33 -74 93t-26 141q0 84 28 147t79.5 98t122.5 35q47 0 86 -13.5t75 -43.5l-45 -60q-27 21 -53 31t-59 10q-64 0 -99.5 -51t-35.5 -151q0 -106 41 -155v1q26 66 61 96.5
t91 30.5q51 0 82.5 -29zM360 81q22 15 22 45q0 20 -10.5 30.5t-30.5 10.5q-29 0 -47.5 -19t-43.5 -74q20 -8 47 -8q41 0 63 15z" />
    <glyph glyph-name="cdotaccent" unicode="&#x10b;" horiz-adv-x="478" 
d="M373 525.5q39 -13.5 75 -43.5l-45 -60q-27 21 -53 31t-59 10q-64 0 -99.5 -51t-35.5 -151t35 -147.5t100 -47.5q32 0 57.5 10t55.5 33l44 -63q-72 -58 -161 -58q-107 0 -168.5 72t-61.5 199q0 84 28 147t79.5 98t122.5 35q47 0 86 -13.5zM335 762q18 -18 18 -45
t-18 -44.5t-47 -17.5q-28 0 -46 17.5t-18 44.5t18 45t46 18q29 0 47 -18z" />
    <glyph glyph-name="uni0188" unicode="&#x188;" horiz-adv-x="478" 
d="M622 712l-36 -59q-20 12 -35.5 17.5t-38.5 5.5q-64 0 -64 -74v-120l-38 -50q-27 15 -54 23t-65 8q-64 0 -99.5 -51t-35.5 -151t35 -147.5t100 -47.5q32 0 57.5 10t55.5 33l44 -63q-72 -58 -161 -58q-107 0 -168.5 72t-61.5 199q0 84 28 147t79.5 98t122.5 35q39 0 69 -12
v67q0 76 40 116t111 40q65 0 115 -38z" />
    <glyph glyph-name="d" unicode="d" horiz-adv-x="598" 
d="M503 739v-739h-81l-9 73q-26 -40 -65 -62.5t-87 -22.5q-94 0 -146.5 74t-52.5 199q0 81 25 144t72 98.5t110 35.5q81 0 142 -65v276zM353 80.5q30 19.5 58 58.5v258q-26 34 -55.5 51.5t-66.5 17.5q-61 0 -94.5 -51t-33.5 -152q0 -102 31 -152t89 -50q42 0 72 19.5z" />
    <glyph glyph-name="eth" unicode="&#xf0;" horiz-adv-x="570" 
d="M470 500.5q38 -95.5 38 -235.5q0 -83 -29 -145.5t-81 -97t-120 -34.5q-62 0 -112.5 29t-79.5 85t-29 133q0 62 22.5 117t68 89t110.5 34q91 0 147 -67q-12 63 -41 112t-78 87l-72 -68l-63 32l74 74q-54 23 -113 35l20 70q85 -17 149 -48l70 74l54 -47l-63 -65
q90 -68 128 -163.5zM377.5 114q37.5 53 37.5 152q0 21 -2 59q-26 39 -60.5 58.5t-80.5 19.5q-121 0 -121 -164q0 -86 34 -132t92 -46q63 0 100.5 53z" />
    <glyph glyph-name="dcaron" unicode="&#x10f;" horiz-adv-x="598" 
d="M503 739v-739h-81l-9 73q-26 -40 -65 -62.5t-87 -22.5q-94 0 -146.5 74t-52.5 199q0 81 25 144t72 98.5t110 35.5q81 0 142 -65v276zM353 80.5q30 19.5 58 58.5v258q-26 34 -55.5 51.5t-66.5 17.5q-61 0 -94.5 -51t-33.5 -152q0 -102 31 -152t89 -50q42 0 72 19.5z
M651 739l-50 -184l-53 8l20 186z" />
    <glyph glyph-name="uni1E13" unicode="&#x1e13;" horiz-adv-x="598" 
d="M503 739v-739h-81l-9 73q-26 -40 -65 -62.5t-87 -22.5q-94 0 -146.5 74t-52.5 199q0 81 25 144t72 98.5t110 35.5q81 0 142 -65v276zM353 80.5q30 19.5 58 58.5v258q-26 34 -55.5 51.5t-66.5 17.5q-61 0 -94.5 -51t-33.5 -152q0 -102 31 -152t89 -50q42 0 72 19.5z
M142 -181l135 113h61l136 -113l-40 -45l-126 84l-127 -84z" />
    <glyph glyph-name="dcroat" unicode="&#x111;" horiz-adv-x="607" 
d="M582 676v-70h-79v-606h-81l-9 73q-26 -40 -65 -62.5t-87 -22.5q-94 0 -146.5 74t-52.5 199q0 81 25 144t72 98.5t110 35.5q81 0 142 -65v132h-158v70h158v74l92 -11v-63h79zM353 80.5q30 19.5 58 58.5v258q-26 34 -55.5 51.5t-66.5 17.5q-61 0 -94.5 -51t-33.5 -152
q0 -102 31 -152t89 -50q42 0 72 19.5z" />
    <glyph glyph-name="uni1E0D" unicode="&#x1e0d;" horiz-adv-x="598" 
d="M503 739v-739h-81l-9 73q-26 -40 -65 -62.5t-87 -22.5q-94 0 -146.5 74t-52.5 199q0 81 25 144t72 98.5t110 35.5q81 0 142 -65v276zM353 80.5q30 19.5 58 58.5v258q-26 34 -55.5 51.5t-66.5 17.5q-61 0 -94.5 -51t-33.5 -152q0 -102 31 -152t89 -50q42 0 72 19.5z
M354 -92q18 -18 18 -45t-18 -44.5t-47 -17.5q-28 0 -46 17.5t-18 44.5t18 45t46 18q29 0 47 -18z" />
    <glyph glyph-name="uni02A4" unicode="&#x2a4;" horiz-adv-x="949" 
d="M861.5 155q60.5 -51 60.5 -151q0 -64 -30 -113t-84 -76.5t-126 -27.5q-69 0 -120 22.5t-91 67.5l54 50q35 -34 71.5 -49.5t83.5 -15.5q70 0 106.5 37t36.5 107q0 72 -36 102t-120 30h-79v67l205 246h-290v-451h-81l-9 73q-26 -40 -65 -62.5t-87 -22.5q-94 0 -146.5 74
t-52.5 199q0 81 25 144t72 98.5t110 35.5q81 0 142 -65v276l92 -11v-212h395v-70l-214 -251h3q114 0 174.5 -51zM353 80.5q30 19.5 58 58.5v258q-26 34 -55.5 51.5t-66.5 17.5q-61 0 -94.5 -51t-33.5 -152q0 -102 31 -152t89 -50q42 0 72 19.5z" />
    <glyph glyph-name="uni0257" unicode="&#x257;" horiz-adv-x="598" 
d="M677 712l-36 -59q-20 12 -35.5 17.5t-38.5 5.5q-64 0 -64 -74v-602h-81l-9 73q-26 -40 -65 -62.5t-87 -22.5q-94 0 -146.5 74t-52.5 199q0 81 25 144t72 98.5t110 35.5q81 0 142 -65v120q0 76 40 116t111 40q65 0 115 -38zM353 80.5q30 19.5 58 58.5v258
q-26 34 -55.5 51.5t-66.5 17.5q-61 0 -94.5 -51t-33.5 -152q0 -102 31 -152t89 -50q42 0 72 19.5z" />
    <glyph glyph-name="uni1E0F" unicode="&#x1e0f;" horiz-adv-x="598" 
d="M503 739v-739h-81l-9 73q-26 -40 -65 -62.5t-87 -22.5q-94 0 -146.5 74t-52.5 199q0 81 25 144t72 98.5t110 35.5q81 0 142 -65v276zM353 80.5q30 19.5 58 58.5v258q-26 34 -55.5 51.5t-66.5 17.5q-61 0 -94.5 -51t-33.5 -152q0 -102 31 -152t89 -50q42 0 72 19.5z
M171 -173v69h273v-69h-273z" />
    <glyph glyph-name="uni0256" unicode="&#x256;" horiz-adv-x="598" 
d="M677 -175q-50 -38 -115 -38q-70 0 -110.5 40t-40.5 116v127q-26 -39 -64.5 -60.5t-85.5 -21.5q-94 0 -146.5 74t-52.5 199q0 81 25 144t72 98.5t110 35.5q81 0 142 -65v276l92 -11v-804q0 -74 64 -74q23 0 38.5 5.5t35.5 17.5zM353 80.5q30 19.5 58 58.5v258
q-26 34 -55.5 51.5t-66.5 17.5q-61 0 -94.5 -51t-33.5 -152q0 -102 31 -152t89 -50q42 0 72 19.5z" />
    <glyph glyph-name="e" unicode="e" horiz-adv-x="550" 
d="M491 232h-336q6 -87 44 -128t98 -41q38 0 70 11t67 35l40 -55q-84 -66 -184 -66q-110 0 -171.5 72t-61.5 198q0 82 26.5 145.5t76 99.5t116.5 36q105 0 161 -69t56 -191q0 -23 -2 -47zM402 306q0 78 -31 119t-93 41q-113 0 -123 -166h247v6z" />
    <glyph glyph-name="eacute" unicode="&#xe9;" horiz-adv-x="550" 
d="M491 232h-336q6 -87 44 -128t98 -41q38 0 70 11t67 35l40 -55q-84 -66 -184 -66q-110 0 -171.5 72t-61.5 198q0 82 26.5 145.5t76 99.5t116.5 36q105 0 161 -69t56 -191q0 -23 -2 -47zM402 306q0 78 -31 119t-93 41q-113 0 -123 -166h247v6zM389 724l-212 -86l-28 49
l199 114z" />
    <glyph glyph-name="ebreve" unicode="&#x115;" horiz-adv-x="550" 
d="M491 232h-336q6 -87 44 -128t98 -41q38 0 70 11t67 35l40 -55q-84 -66 -184 -66q-110 0 -171.5 72t-61.5 198q0 82 26.5 145.5t76 99.5t116.5 36q105 0 161 -69t56 -191q0 -23 -2 -47zM402 306q0 78 -31 119t-93 41q-113 0 -123 -166h247v6zM174.5 678.5
q-41.5 35.5 -47.5 97.5l61 13q21 -76 89 -76q71 0 92 76l61 -13q-6 -62 -48.5 -97.5t-104.5 -35.5q-61 0 -102.5 35.5z" />
    <glyph glyph-name="ecaron" unicode="&#x11b;" horiz-adv-x="550" 
d="M491 232h-336q6 -87 44 -128t98 -41q38 0 70 11t67 35l40 -55q-84 -66 -184 -66q-110 0 -171.5 72t-61.5 198q0 82 26.5 145.5t76 99.5t116.5 36q105 0 161 -69t56 -191q0 -23 -2 -47zM402 306q0 78 -31 119t-93 41q-113 0 -123 -166h247v6zM444 740l-135 -113h-61
l-136 113l40 45l126 -84l127 84z" />
    <glyph glyph-name="uni0229" unicode="&#x229;" horiz-adv-x="550" 
d="M491 232h-336q6 -87 44 -128t98 -41q38 0 70 11t67 35l40 -55q-71 -57 -157 -65v-45q48 -4 70.5 -27.5t22.5 -57.5q0 -48 -35 -74t-89 -26q-28 0 -52 6.5t-39 17.5l25 52q30 -16 63 -16q23 0 36.5 9.5t13.5 30.5t-21 31.5t-68 10.5l11 89q-94 11 -146 82t-52 186
q0 82 26.5 145.5t76 99.5t116.5 36q105 0 161 -69t56 -191q0 -23 -2 -47zM402 306q0 78 -31 119t-93 41q-113 0 -123 -166h247v6z" />
    <glyph glyph-name="ecircumflex" unicode="&#xea;" horiz-adv-x="550" 
d="M491 232h-336q6 -87 44 -128t98 -41q38 0 70 11t67 35l40 -55q-84 -66 -184 -66q-110 0 -171.5 72t-61.5 198q0 82 26.5 145.5t76 99.5t116.5 36q105 0 161 -69t56 -191q0 -23 -2 -47zM402 306q0 78 -31 119t-93 41q-113 0 -123 -166h247v6zM113 679l135 113h61l136 -113
l-40 -45l-126 84l-127 -84z" />
    <glyph glyph-name="uni1EBF" unicode="&#x1ebf;" horiz-adv-x="550" 
d="M405 712l-38 35l118 145l56 -54zM148 589l-40 45l136 110h61l135 -110l-39 -45l-127 81zM437 470q56 -69 56 -191q0 -23 -2 -47h-336q6 -87 44 -128t98 -41q38 0 70 11t67 35l40 -55q-84 -66 -184 -66q-110 0 -171.5 72t-61.5 198q0 82 26.5 145.5t76 99.5t116.5 36
q105 0 161 -69zM402 306q0 78 -31 119t-93 41q-113 0 -123 -166h247v6z" />
    <glyph glyph-name="uni1EC7" unicode="&#x1ec7;" horiz-adv-x="550" 
d="M491 232h-336q6 -87 44 -128t98 -41q38 0 70 11t67 35l40 -55q-84 -66 -184 -66q-110 0 -171.5 72t-61.5 198q0 82 26.5 145.5t76 99.5t116.5 36q105 0 161 -69t56 -191q0 -23 -2 -47zM402 306q0 78 -31 119t-93 41q-113 0 -123 -166h247v6zM339 -92q18 -18 18 -45
t-18 -44.5t-47 -17.5q-28 0 -46 17.5t-18 44.5t18 45t46 18q29 0 47 -18zM113 679l135 113h61l136 -113l-40 -45l-126 84l-127 -84z" />
    <glyph glyph-name="uni1EC1" unicode="&#x1ec1;" horiz-adv-x="550" 
d="M144 712l-136 126l56 54l118 -145zM108 634l136 110h61l135 -110l-39 -45l-127 81l-126 -81zM491 232h-336q6 -87 44 -128t98 -41q38 0 70 11t67 35l40 -55q-84 -66 -184 -66q-110 0 -171.5 72t-61.5 198q0 82 26.5 145.5t76 99.5t116.5 36q105 0 161 -69t56 -191
q0 -23 -2 -47zM402 306q0 78 -31 119t-93 41q-113 0 -123 -166h247v6z" />
    <glyph glyph-name="uni1EC3" unicode="&#x1ec3;" horiz-adv-x="550" 
d="M509.5 926.5q28.5 -24.5 28.5 -66.5q0 -37 -21 -58.5t-60 -27.5v-58h-69v94q39 5 55 13.5t16 29.5q0 18 -12 27t-32 9q-30 0 -57 -15l-22 53q41 24 94 24q51 0 79.5 -24.5zM148 589l-40 45l136 110h61l135 -110l-39 -45l-127 81zM437 470q56 -69 56 -191q0 -23 -2 -47
h-336q6 -87 44 -128t98 -41q38 0 70 11t67 35l40 -55q-84 -66 -184 -66q-110 0 -171.5 72t-61.5 198q0 82 26.5 145.5t76 99.5t116.5 36q105 0 161 -69zM402 306q0 78 -31 119t-93 41q-113 0 -123 -166h247v6z" />
    <glyph glyph-name="uni1EC5" unicode="&#x1ec5;" horiz-adv-x="550" 
d="M189 794q-12 -11 -25 -35l-56 28q19 40 46.5 64t62.5 24q21 0 36 -7.5t34 -20.5q3 -2 12.5 -8t17.5 -9t16 -3q15 0 27 10.5t26 33.5l56 -28q-19 -42 -47 -64t-62 -22q-19 0 -34.5 7t-34.5 20q-15 11 -25.5 16t-21.5 5q-16 0 -28 -11zM148 579l-40 45l136 110h61l135 -110
l-39 -45l-127 81zM491 232h-336q6 -87 44 -128t98 -41q38 0 70 11t67 35l40 -55q-84 -66 -184 -66q-110 0 -171.5 72t-61.5 198q0 82 26.5 145.5t76 99.5t116.5 36q105 0 161 -69t56 -191q0 -23 -2 -47zM402 306q0 78 -31 119t-93 41q-113 0 -123 -166h247v6z" />
    <glyph glyph-name="edieresis" unicode="&#xeb;" horiz-adv-x="550" 
d="M491 232h-336q6 -87 44 -128t98 -41q38 0 70 11t67 35l40 -55q-84 -66 -184 -66q-110 0 -171.5 72t-61.5 198q0 82 26.5 145.5t76 99.5t116.5 36q105 0 161 -69t56 -191q0 -23 -2 -47zM402 306q0 78 -31 119t-93 41q-113 0 -123 -166h247v6zM214.5 751.5
q16.5 -16.5 16.5 -40.5t-16.5 -40.5t-40.5 -16.5q-25 0 -41.5 16.5t-16.5 40.5t16.5 40.5t41.5 16.5q24 0 40.5 -16.5zM424.5 751.5q16.5 -16.5 16.5 -40.5t-16.5 -40.5t-41.5 -16.5q-24 0 -40.5 16.5t-16.5 40.5t16.5 40.5t40.5 16.5q25 0 41.5 -16.5z" />
    <glyph glyph-name="edotaccent" unicode="&#x117;" horiz-adv-x="550" 
d="M491 232h-336q6 -87 44 -128t98 -41q38 0 70 11t67 35l40 -55q-84 -66 -184 -66q-110 0 -171.5 72t-61.5 198q0 82 26.5 145.5t76 99.5t116.5 36q105 0 161 -69t56 -191q0 -23 -2 -47zM402 306q0 78 -31 119t-93 41q-113 0 -123 -166h247v6zM325 762q18 -18 18 -45
t-18 -44.5t-47 -17.5q-28 0 -46 17.5t-18 44.5t18 45t46 18q29 0 47 -18z" />
    <glyph glyph-name="uni1EB9" unicode="&#x1eb9;" horiz-adv-x="550" 
d="M491 232h-336q6 -87 44 -128t98 -41q38 0 70 11t67 35l40 -55q-84 -66 -184 -66q-110 0 -171.5 72t-61.5 198q0 82 26.5 145.5t76 99.5t116.5 36q105 0 161 -69t56 -191q0 -23 -2 -47zM402 306q0 78 -31 119t-93 41q-113 0 -123 -166h247v6zM339 -92q18 -18 18 -45
t-18 -44.5t-47 -17.5q-28 0 -46 17.5t-18 44.5t18 45t46 18q29 0 47 -18z" />
    <glyph glyph-name="egrave" unicode="&#xe8;" horiz-adv-x="550" 
d="M491 232h-336q6 -87 44 -128t98 -41q38 0 70 11t67 35l40 -55q-84 -66 -184 -66q-110 0 -171.5 72t-61.5 198q0 82 26.5 145.5t76 99.5t116.5 36q105 0 161 -69t56 -191q0 -23 -2 -47zM402 306q0 78 -31 119t-93 41q-113 0 -123 -166h247v6zM409 687l-28 -49l-212 86
l41 77z" />
    <glyph glyph-name="uni1EBB" unicode="&#x1ebb;" horiz-adv-x="550" 
d="M491 232h-336q6 -87 44 -128t98 -41q38 0 70 11t67 35l40 -55q-84 -66 -184 -66q-110 0 -171.5 72t-61.5 198q0 82 26.5 145.5t76 99.5t116.5 36q105 0 161 -69t56 -191q0 -23 -2 -47zM402 306q0 78 -31 119t-93 41q-113 0 -123 -166h247v6zM240 705q39 5 55 13.5
t16 29.5q0 18 -12 27t-32 9q-30 0 -57 -15l-22 53q41 24 94 24q51 0 79.5 -24.5t28.5 -66.5q0 -37 -21 -58.5t-60 -27.5v-58h-69v94z" />
    <glyph glyph-name="emacron" unicode="&#x113;" horiz-adv-x="550" 
d="M491 232h-336q6 -87 44 -128t98 -41q38 0 70 11t67 35l40 -55q-84 -66 -184 -66q-110 0 -171.5 72t-61.5 198q0 82 26.5 145.5t76 99.5t116.5 36q105 0 161 -69t56 -191q0 -23 -2 -47zM402 306q0 78 -31 119t-93 41q-113 0 -123 -166h247v6zM142 667v69h273v-69h-273z
" />
    <glyph glyph-name="eogonek" unicode="&#x119;" horiz-adv-x="550" 
d="M491 232h-336q6 -87 44 -128t98 -41q38 0 70 11t67 35l40 -55q-44 -35 -93 -52q-66 -29 -90.5 -55t-24.5 -55q0 -48 56 -48q27 0 61 7l-9 -70q-35 -7 -63 -7q-57 0 -91 28.5t-34 72.5q0 72 83 114q-100 7 -156 78t-56 191q0 82 26.5 145.5t76 99.5t116.5 36
q105 0 161 -69t56 -191q0 -23 -2 -47zM402 306q0 78 -31 119t-93 41q-113 0 -123 -166h247v6z" />
    <glyph glyph-name="uni025B" unicode="&#x25b;" horiz-adv-x="468" 
d="M358 526.5q41 -12.5 76 -36.5l-44 -55q-28 17 -55.5 24.5t-62.5 7.5q-48 0 -73.5 -20.5t-25.5 -58.5q0 -35 28 -56t76 -21h61l-11 -72h-56q-62 0 -88.5 -20.5t-26.5 -67.5q0 -40 29.5 -64.5t83.5 -24.5q40 0 74 11.5t67 34.5l43 -58q-37 -30 -86 -46t-103 -16
q-94 0 -150.5 42t-56.5 117q0 117 132 134q-111 22 -111 114q0 66 50.5 105t134.5 39q54 0 95 -12.5z" />
    <glyph glyph-name="uni025C" unicode="&#x25c;" horiz-adv-x="500" 
d="M318.5 522.5q43.5 -16.5 70 -48.5t26.5 -77q0 -44 -25.5 -72t-80.5 -43q66 -11 100 -41t34 -86q0 -82 -63.5 -124.5t-161.5 -42.5q-119 0 -203 66l48 57q34 -25 70 -37t82 -12q129 0 129 94q0 46 -36.5 64.5t-101.5 18.5h-70l6 72h54q56 0 90 20t34 62q0 39 -29 56.5
t-76 17.5q-41 0 -72.5 -10.5t-63.5 -32.5l-44 55q40 30 86 45t104 15q50 0 93.5 -16.5z" />
    <glyph glyph-name="uni025E" unicode="&#x25e;" horiz-adv-x="569" 
d="M117.5 61q-60.5 73 -60.5 202q0 82 28 144.5t81.5 97t128.5 34.5q81 0 135 -39.5t54 -105.5q0 -42 -25.5 -69.5t-80.5 -42.5q66 -11 100 -41t34 -86q0 -76 -60 -121.5t-154 -45.5q-120 0 -180.5 73zM382 84.5q33 22.5 33 71.5q0 83 -130 83h-39l6 72h23q49 0 82 20t33 62
q0 35 -25.5 54.5t-69.5 19.5q-140 0 -140 -204q0 -104 33 -152.5t107 -48.5q54 0 87 22.5z" />
    <glyph glyph-name="uni025D" unicode="&#x25d;" horiz-adv-x="709" 
d="M729 351q-50 -38 -118 -38q-67 0 -104 35t-37 97v8l-57 -31q2 -16 2 -25q0 -44 -25.5 -72t-80.5 -43q66 -11 100 -41t34 -86q0 -82 -63.5 -124.5t-161.5 -42.5q-119 0 -203 66l48 57q34 -25 70 -37t82 -12q129 0 129 94q0 46 -36.5 64.5t-101.5 18.5h-70l6 72h54
q56 0 90 20t34 62q0 39 -29 56.5t-76 17.5q-41 0 -72.5 -10.5t-63.5 -32.5l-44 55q40 30 86 45t104 15q47 0 88.5 -15t68.5 -42l86 45h87v-70q0 -70 64 -70q23 0 38.5 5.5t35.5 17.5z" />
    <glyph glyph-name="uni0258" unicode="&#x258;" horiz-adv-x="550" 
d="M438 464q55 -75 55 -206q0 -126 -62 -198t-171 -72q-100 0 -184 66l40 55q35 -25 68.5 -35.5t78.5 -10.5q59 0 93 40.5t39 128.5h-336q-2 24 -2 47q0 122 57 191t161 69q108 0 163 -75zM148 300h247q-4 90 -32 128t-90 38q-61 0 -93 -41.5t-32 -118.5v-6z" />
    <glyph glyph-name="uni0283" unicode="&#x283;" horiz-adv-x="300" 
d="M370 712l-36 -59q-20 12 -35.5 17.5t-38.5 5.5q-64 0 -64 -74v-659q0 -76 -40.5 -116t-110.5 -40q-65 0 -115 38l36 59q20 -12 35.5 -17.5t38.5 -5.5q64 0 64 74v659q0 76 40 116t111 40q65 0 115 -38z" />
    <glyph glyph-name="uni1EBD" unicode="&#x1ebd;" horiz-adv-x="550" 
d="M491 232h-336q6 -87 44 -128t98 -41q38 0 70 11t67 35l40 -55q-84 -66 -184 -66q-110 0 -171.5 72t-61.5 198q0 82 26.5 145.5t76 99.5t116.5 36q105 0 161 -69t56 -191q0 -23 -2 -47zM402 306q0 78 -31 119t-93 41q-113 0 -123 -166h247v6zM302.5 663q-15.5 7 -34.5 20
q-15 11 -25.5 16t-21.5 5q-16 0 -28 -11t-25 -35l-56 28q19 40 46.5 64t62.5 24q21 0 36 -7.5t34 -20.5q3 -2 12.5 -8t17.5 -9t16 -3q15 0 27 10.5t26 33.5l56 -28q-19 -42 -47 -64t-62 -22q-19 0 -34.5 7z" />
    <glyph glyph-name="uni01DD" unicode="&#x1dd;" horiz-adv-x="559" 
d="M445 466.5q57 -72.5 57 -202.5q0 -84 -27.5 -146.5t-78.5 -96t-120 -33.5q-101 0 -160 69.5t-59 190.5q0 33 2 47h345q-5 88 -38 128.5t-94 40.5q-38 0 -70.5 -11t-64.5 -38l-42 61q78 63 179 63q114 0 171 -72.5zM368.5 100q32.5 39 36.5 127h-258v-8q0 -75 34.5 -116.5
t94.5 -41.5t92.5 39z" />
    <glyph glyph-name="uni0292" unicode="&#x292;" horiz-adv-x="481" 
d="M390.5 155q60.5 -51 60.5 -151q0 -64 -30 -113t-84 -76.5t-126 -27.5q-69 0 -120 22.5t-91 67.5l54 50q35 -34 71.5 -49.5t83.5 -15.5q70 0 106.5 37t36.5 107q0 72 -36 102t-120 30h-79v67l205 246h-291v76h396v-70l-214 -251h3q114 0 174.5 -51z" />
    <glyph glyph-name="f" unicode="f" horiz-adv-x="335" 
d="M214 657.5q-18 -18.5 -18 -57.5v-73h128l-10 -71h-118v-456h-92v456h-94v71h94v72q0 68 43.5 109.5t121.5 41.5q36 0 64.5 -6.5t61.5 -20.5l-29 -67q-45 20 -92 20q-42 0 -60 -18.5z" />
    <glyph glyph-name="g" unicode="g" horiz-adv-x="520" 
d="M520 503q-30 -10 -66 -13t-88 -3q93 -42 93 -133q0 -79 -54 -129t-147 -50q-36 0 -67 10q-12 -8 -19 -21.5t-7 -27.5q0 -43 69 -43h84q53 0 94 -19t63.5 -52t22.5 -75q0 -77 -63 -118.5t-184 -41.5q-85 0 -134.5 17.5t-70.5 52.5t-21 90h83q0 -32 12 -50.5t43 -28
t88 -9.5q83 0 118.5 20.5t35.5 61.5q0 37 -28 56t-78 19h-83q-67 0 -101.5 28.5t-34.5 71.5q0 26 15 50t43 43q-46 24 -67.5 59.5t-21.5 86.5q0 53 26.5 95t73 65.5t103.5 23.5q62 -1 104 4.5t69.5 15t67.5 27.5zM171.5 440.5q-28.5 -32.5 -28.5 -85.5q0 -54 29 -86.5
t82 -32.5q54 0 82.5 31.5t28.5 88.5q0 117 -113 117q-52 0 -80.5 -32.5z" />
    <glyph glyph-name="uni0263" unicode="&#x263;" horiz-adv-x="492" 
d="M298 64q34 -59 49 -98t15 -80q0 -46 -30 -72.5t-84 -26.5q-55 0 -84.5 26t-29.5 72q0 35 15 75t49 102l-188 465h98l140 -403l139 403h95zM272.5 -60.5q-7.5 23.5 -24.5 60.5q-18 -41 -25 -63t-7 -46q0 -17 8 -26t24 -9t24 9t8 26q0 25 -7.5 48.5z" />
    <glyph glyph-name="gbreve" unicode="&#x11f;" horiz-adv-x="520" 
d="M520 503q-30 -10 -66 -13t-88 -3q93 -42 93 -133q0 -79 -54 -129t-147 -50q-36 0 -67 10q-12 -8 -19 -21.5t-7 -27.5q0 -43 69 -43h84q53 0 94 -19t63.5 -52t22.5 -75q0 -77 -63 -118.5t-184 -41.5q-85 0 -134.5 17.5t-70.5 52.5t-21 90h83q0 -32 12 -50.5t43 -28
t88 -9.5q83 0 118.5 20.5t35.5 61.5q0 37 -28 56t-78 19h-83q-67 0 -101.5 28.5t-34.5 71.5q0 26 15 50t43 43q-46 24 -67.5 59.5t-21.5 86.5q0 53 26.5 95t73 65.5t103.5 23.5q62 -1 104 4.5t69.5 15t67.5 27.5zM171.5 440.5q-28.5 -32.5 -28.5 -85.5q0 -54 29 -86.5
t82 -32.5q54 0 82.5 31.5t28.5 88.5q0 117 -113 117q-52 0 -80.5 -32.5zM152.5 678.5q-41.5 35.5 -47.5 97.5l61 13q21 -76 89 -76q71 0 92 76l61 -13q-6 -62 -48.5 -97.5t-104.5 -35.5q-61 0 -102.5 35.5z" />
    <glyph glyph-name="gcaron" unicode="&#x1e7;" horiz-adv-x="520" 
d="M520 503q-30 -10 -66 -13t-88 -3q93 -42 93 -133q0 -79 -54 -129t-147 -50q-36 0 -67 10q-12 -8 -19 -21.5t-7 -27.5q0 -43 69 -43h84q53 0 94 -19t63.5 -52t22.5 -75q0 -77 -63 -118.5t-184 -41.5q-85 0 -134.5 17.5t-70.5 52.5t-21 90h83q0 -32 12 -50.5t43 -28
t88 -9.5q83 0 118.5 20.5t35.5 61.5q0 37 -28 56t-78 19h-83q-67 0 -101.5 28.5t-34.5 71.5q0 26 15 50t43 43q-46 24 -67.5 59.5t-21.5 86.5q0 53 26.5 95t73 65.5t103.5 23.5q62 -1 104 4.5t69.5 15t67.5 27.5zM171.5 440.5q-28.5 -32.5 -28.5 -85.5q0 -54 29 -86.5
t82 -32.5q54 0 82.5 31.5t28.5 88.5q0 117 -113 117q-52 0 -80.5 -32.5zM422 740l-135 -113h-61l-136 113l40 45l126 -84l127 84z" />
    <glyph glyph-name="gcircumflex" unicode="&#x11d;" horiz-adv-x="520" 
d="M520 503q-30 -10 -66 -13t-88 -3q93 -42 93 -133q0 -79 -54 -129t-147 -50q-36 0 -67 10q-12 -8 -19 -21.5t-7 -27.5q0 -43 69 -43h84q53 0 94 -19t63.5 -52t22.5 -75q0 -77 -63 -118.5t-184 -41.5q-85 0 -134.5 17.5t-70.5 52.5t-21 90h83q0 -32 12 -50.5t43 -28
t88 -9.5q83 0 118.5 20.5t35.5 61.5q0 37 -28 56t-78 19h-83q-67 0 -101.5 28.5t-34.5 71.5q0 26 15 50t43 43q-46 24 -67.5 59.5t-21.5 86.5q0 53 26.5 95t73 65.5t103.5 23.5q62 -1 104 4.5t69.5 15t67.5 27.5zM171.5 440.5q-28.5 -32.5 -28.5 -85.5q0 -54 29 -86.5
t82 -32.5q54 0 82.5 31.5t28.5 88.5q0 117 -113 117q-52 0 -80.5 -32.5zM91 679l135 113h61l136 -113l-40 -45l-126 84l-127 -84z" />
    <glyph glyph-name="gcommaaccent" unicode="&#x123;" horiz-adv-x="520" 
d="M520 503q-30 -10 -66 -13t-88 -3q93 -42 93 -133q0 -79 -54 -129t-147 -50q-36 0 -67 10q-12 -8 -19 -21.5t-7 -27.5q0 -43 69 -43h84q53 0 94 -19t63.5 -52t22.5 -75q0 -77 -63 -118.5t-184 -41.5q-85 0 -134.5 17.5t-70.5 52.5t-21 90h83q0 -32 12 -50.5t43 -28
t88 -9.5q83 0 118.5 20.5t35.5 61.5q0 37 -28 56t-78 19h-83q-67 0 -101.5 28.5t-34.5 71.5q0 26 15 50t43 43q-46 24 -67.5 59.5t-21.5 86.5q0 53 26.5 95t73 65.5t103.5 23.5q62 -1 104 4.5t69.5 15t67.5 27.5zM171.5 440.5q-28.5 -32.5 -28.5 -85.5q0 -54 29 -86.5
t82 -32.5q54 0 82.5 31.5t28.5 88.5q0 117 -113 117q-52 0 -80.5 -32.5zM213.5 620q-16.5 16 -16.5 40q0 13 5.5 29t20.5 48l41 86h53l-29 -116q24 -21 24 -47q0 -24 -17 -40t-41 -16t-40.5 16z" />
    <glyph glyph-name="gdotaccent" unicode="&#x121;" horiz-adv-x="520" 
d="M520 503q-30 -10 -66 -13t-88 -3q93 -42 93 -133q0 -79 -54 -129t-147 -50q-36 0 -67 10q-12 -8 -19 -21.5t-7 -27.5q0 -43 69 -43h84q53 0 94 -19t63.5 -52t22.5 -75q0 -77 -63 -118.5t-184 -41.5q-85 0 -134.5 17.5t-70.5 52.5t-21 90h83q0 -32 12 -50.5t43 -28
t88 -9.5q83 0 118.5 20.5t35.5 61.5q0 37 -28 56t-78 19h-83q-67 0 -101.5 28.5t-34.5 71.5q0 26 15 50t43 43q-46 24 -67.5 59.5t-21.5 86.5q0 53 26.5 95t73 65.5t103.5 23.5q62 -1 104 4.5t69.5 15t67.5 27.5zM171.5 440.5q-28.5 -32.5 -28.5 -85.5q0 -54 29 -86.5
t82 -32.5q54 0 82.5 31.5t28.5 88.5q0 117 -113 117q-52 0 -80.5 -32.5zM303 762q18 -18 18 -45t-18 -44.5t-47 -17.5q-28 0 -46 17.5t-18 44.5t18 45t46 18q29 0 47 -18z" />
    <glyph glyph-name="uni0260" unicode="&#x260;" horiz-adv-x="598" 
d="M677 712l-36 -59q-20 12 -35.5 17.5t-38.5 5.5q-64 0 -64 -74v-599q0 -106 -56 -161t-167 -55q-99 0 -165 44l31 62q62 -32 129 -32q74 0 105 31.5t31 102.5v95q-26 -39 -64.5 -60.5t-85.5 -21.5q-94 0 -146.5 72.5t-52.5 190.5q0 76 25 137t72 96t110 35q81 0 142 -65
v120q0 76 40 116t111 40q65 0 115 -38zM353 100.5q30 19.5 58 58.5v238q-26 34 -55.5 51.5t-66.5 17.5q-60 0 -94 -49.5t-34 -143.5q0 -95 31 -143.5t89 -48.5q42 0 72 19.5z" />
    <glyph glyph-name="uni0294" unicode="&#x294;" horiz-adv-x="441" 
d="M132 348l61 18q61 18 93 53.5t32 105.5q0 71 -32.5 111t-98.5 40q-41 0 -76 -15.5t-71 -47.5l-50 52q45 44 93 64.5t108 20.5q69 0 120 -28.5t78 -79t27 -115.5q0 -99 -50 -149t-128 -72l-14 -4v-302h-92v348z" />
    <glyph glyph-name="uni0295" unicode="&#x295;" horiz-adv-x="442" 
d="M218 0v302l-14 4q-79 22 -129 72t-50 148q0 66 28.5 116.5t80.5 79t121 28.5q59 0 106 -21t91 -64l-50 -52q-36 32 -69.5 47.5t-74.5 15.5q-65 0 -100 -40t-35 -111q0 -70 32.5 -105.5t93.5 -53.5l61 -18v-348h-92z" />
    <glyph glyph-name="uni0242" unicode="&#x242;" horiz-adv-x="441" 
d="M120 197l72 19q53 14 81.5 45t28.5 84q0 51 -29.5 83.5t-81.5 32.5q-42 0 -71.5 -13t-63.5 -40l-51 56q42 38 85.5 56.5t103.5 18.5q62 0 109 -25.5t72.5 -69.5t25.5 -97q0 -81 -46 -127t-118 -63l-25 -6v-151h-92v197z" />
    <glyph glyph-name="uni02A1" unicode="&#x2a1;" horiz-adv-x="441" 
d="M224 302v-87h108v-70h-108v-145h-92v145h-68v70h68v133l61 18q61 18 93 53.5t32 105.5q0 71 -32.5 111t-98.5 40q-41 0 -76 -15.5t-71 -47.5l-50 52q45 44 93 64.5t108 20.5q69 0 120 -28.5t78 -79t27 -115.5q0 -99 -50 -149t-128 -72z" />
    <glyph glyph-name="uni02A2" unicode="&#x2a2;" horiz-adv-x="442" 
d="M158 636q-35 -40 -35 -111q0 -70 32.5 -105.5t93.5 -53.5l61 -18v-133h68v-70h-68v-145h-92v145h-108v70h108v87l-14 4q-79 22 -129 72t-50 148q0 66 28.5 116.5t80.5 79t121 28.5q59 0 106 -21t91 -64l-50 -52q-36 32 -69.5 47.5t-74.5 15.5q-65 0 -100 -40z" />
    <glyph glyph-name="uni0261" unicode="&#x261;" horiz-adv-x="598" 
d="M503 527v-524q0 -106 -56 -161t-167 -55q-99 0 -165 44l31 62q62 -32 129 -32q74 0 105 31.5t31 102.5v95q-26 -39 -64.5 -60.5t-85.5 -21.5q-94 0 -146.5 72.5t-52.5 190.5q0 76 25 137t72 96t110 35q84 0 149 -72l6 60h79zM353 100.5q30 19.5 58 58.5v238
q-26 34 -55.5 51.5t-66.5 17.5q-60 0 -94 -49.5t-34 -143.5q0 -95 31 -143.5t89 -48.5q42 0 72 19.5z" />
    <glyph glyph-name="h" unicode="h" horiz-adv-x="586" 
d="M455.5 496q40.5 -43 40.5 -118v-378h-92v365q0 56 -21.5 79t-62.5 23t-73 -24t-60 -68v-375h-92v738l92 10v-294q62 85 156 85q72 0 112.5 -43z" />
    <glyph glyph-name="hbar" unicode="&#x127;" horiz-adv-x="592" 
d="M461.5 496q40.5 -43 40.5 -118v-378h-92v365q0 56 -21.5 79t-62.5 23t-73 -24t-60 -68v-375h-92v606h-76v70h76v62l92 10v-72h151v-70h-151v-152q62 85 156 85q72 0 112.5 -43z" />
    <glyph glyph-name="hcircumflex" unicode="&#x125;" horiz-adv-x="586" 
d="M455.5 496q40.5 -43 40.5 -118v-378h-92v365q0 56 -21.5 79t-62.5 23t-73 -24t-60 -68v-375h-92v738l92 10v-294q62 85 156 85q72 0 112.5 -43zM291 890l-126 -81l-40 45l136 110h61l135 -110l-39 -45z" />
    <glyph glyph-name="uni1E25" unicode="&#x1e25;" horiz-adv-x="586" 
d="M455.5 496q40.5 -43 40.5 -118v-378h-92v365q0 56 -21.5 79t-62.5 23t-73 -24t-60 -68v-375h-92v738l92 10v-294q62 85 156 85q72 0 112.5 -43zM342 -92q18 -18 18 -45t-18 -44.5t-47 -17.5q-28 0 -46 17.5t-18 44.5t18 45t46 18q29 0 47 -18z" />
    <glyph glyph-name="uni0267" unicode="&#x267;" horiz-adv-x="586" 
d="M455.5 496q40.5 -43 40.5 -118v-435q0 -76 -40.5 -116t-110.5 -40q-65 0 -115 38l36 59q20 -12 35.5 -17.5t38.5 -5.5q64 0 64 74v430q0 56 -21.5 79t-62.5 23t-73 -24t-60 -68v-375h-92v599q0 68 43.5 109.5t121.5 41.5q36 0 64.5 -6.5t61.5 -20.5l-29 -67
q-45 20 -92 20q-42 0 -60 -18.5t-18 -57.5v-146q62 85 156 85q72 0 112.5 -43z" />
    <glyph glyph-name="uni0266" unicode="&#x266;" horiz-adv-x="586" 
d="M455.5 496q40.5 -43 40.5 -118v-378h-92v365q0 56 -21.5 79t-62.5 23t-73 -24t-60 -68v-375h-92v599q0 68 43.5 109.5t121.5 41.5q36 0 64.5 -6.5t61.5 -20.5l-29 -67q-45 20 -92 20q-42 0 -60 -18.5t-18 -57.5v-146q62 85 156 85q72 0 112.5 -43z" />
    <glyph glyph-name="uni0265" unicode="&#x265;" horiz-adv-x="586" 
d="M491 527v-740l-92 11v275q-62 -85 -156 -85q-72 0 -112.5 43t-40.5 118v378h92v-365q0 -56 21.5 -79t62.5 -23t73 24t60 68v375h92z" />
    <glyph glyph-name="i" unicode="i" horiz-adv-x="282" 
d="M187 0h-92v527h92v-527zM187 762q18 -18 18 -45t-18 -44.5t-47 -17.5q-28 0 -46 17.5t-18 44.5t18 45t46 18q29 0 47 -18z" />
    <glyph glyph-name="dotlessi" unicode="&#x131;" horiz-adv-x="282" 
d="M187 0h-92v527h92v-527z" />
    <glyph glyph-name="iacute" unicode="&#xed;" horiz-adv-x="282" 
d="M187 0h-92v527h92v-527zM251 724l-212 -86l-28 49l199 114z" />
    <glyph glyph-name="ibreve" unicode="&#x12d;" horiz-adv-x="282" 
d="M187 0h-92v527h92v-527zM36.5 678.5q-41.5 35.5 -47.5 97.5l61 13q21 -76 89 -76q71 0 92 76l61 -13q-6 -62 -48.5 -97.5t-104.5 -35.5q-61 0 -102.5 35.5z" />
    <glyph glyph-name="uni01D0" unicode="&#x1d0;" horiz-adv-x="282" 
d="M187 0h-92v527h92v-527zM306 740l-135 -113h-61l-136 113l40 45l126 -84l127 84z" />
    <glyph glyph-name="icircumflex" unicode="&#xee;" horiz-adv-x="282" 
d="M187 0h-92v527h92v-527zM-25 679l135 113h61l136 -113l-40 -45l-126 84l-127 -84z" />
    <glyph glyph-name="idieresis" unicode="&#xef;" horiz-adv-x="282" 
d="M187 0h-92v527h92v-527zM76.5 751.5q16.5 -16.5 16.5 -40.5t-16.5 -40.5t-40.5 -16.5q-25 0 -41.5 16.5t-16.5 40.5t16.5 40.5t41.5 16.5q24 0 40.5 -16.5zM286.5 751.5q16.5 -16.5 16.5 -40.5t-16.5 -40.5t-41.5 -16.5q-24 0 -40.5 16.5t-16.5 40.5t16.5 40.5t40.5 16.5
q25 0 41.5 -16.5z" />
    <glyph glyph-name="uni1E2F" unicode="&#x1e2f;" horiz-adv-x="282" 
d="M279 839l-136 -126l-38 35l118 145zM76.5 721.5q16.5 -16.5 16.5 -40.5t-16.5 -40.5t-40.5 -16.5q-25 0 -41.5 16.5t-16.5 40.5t16.5 40.5t41.5 16.5q24 0 40.5 -16.5zM286.5 721.5q16.5 -16.5 16.5 -40.5t-16.5 -40.5t-41.5 -16.5q-24 0 -40.5 16.5t-16.5 40.5
t16.5 40.5t40.5 16.5q25 0 41.5 -16.5zM187 0h-92v527h92v-527z" />
    <glyph glyph-name="i.loclTRK" horiz-adv-x="282" 
d="M187 0h-92v527h92v-527zM187 762q18 -18 18 -45t-18 -44.5t-47 -17.5q-28 0 -46 17.5t-18 44.5t18 45t46 18q29 0 47 -18z" />
    <glyph glyph-name="uni1ECB" unicode="&#x1ecb;" horiz-adv-x="282" 
d="M187 762q18 -18 18 -45t-18 -44.5t-47 -17.5q-28 0 -46 17.5t-18 44.5t18 45t46 18q29 0 47 -18zM187 0h-92v527h92v-527zM187 -92q18 -18 18 -45t-18 -44.5t-47 -17.5q-28 0 -46 17.5t-18 44.5t18 45t46 18q29 0 47 -18z" />
    <glyph glyph-name="igrave" unicode="&#xec;" horiz-adv-x="282" 
d="M187 0h-92v527h92v-527zM271 687l-28 -49l-212 86l41 77z" />
    <glyph glyph-name="uni1EC9" unicode="&#x1ec9;" horiz-adv-x="282" 
d="M187 0h-92v527h92v-527zM102 705q39 5 55 13.5t16 29.5q0 18 -12 27t-32 9q-30 0 -57 -15l-22 53q41 24 94 24q51 0 79.5 -24.5t28.5 -66.5q0 -37 -21 -58.5t-60 -27.5v-58h-69v94z" />
    <glyph glyph-name="ij" unicode="&#x133;" horiz-adv-x="562" 
d="M187 762q18 -18 18 -45t-18 -44.5t-47 -17.5q-28 0 -46 17.5t-18 44.5t18 45t46 18q29 0 47 -18zM468 762q18 -18 18 -45t-18 -44.5t-47 -17.5q-28 0 -46 17.5t-18 44.5t18 45t46 18q29 0 47 -18zM187 0h-92v527h92v-527zM467 32q0 -73 -18 -117t-52.5 -71.5t-96.5 -55.5
l-27 67q39 18 60 35.5t31.5 49t10.5 86.5v501h92v-495z" />
    <glyph glyph-name="imacron" unicode="&#x12b;" horiz-adv-x="282" 
d="M187 0h-92v527h92v-527zM4 667v69h273v-69h-273z" />
    <glyph glyph-name="iogonek" unicode="&#x12f;" horiz-adv-x="282" 
d="M187 762q18 -18 18 -45t-18 -44.5t-47 -17.5q-28 0 -46 17.5t-18 44.5t18 45t46 18q29 0 47 -18zM95 527h92v-527q-71 -31 -97 -57.5t-26 -56.5q0 -48 56 -48q27 0 61 7l-9 -70q-35 -7 -63 -7q-57 0 -91 28.5t-34 72.5q0 43 27.5 76.5t83.5 59.5v522z" />
    <glyph glyph-name="uni0269" unicode="&#x269;" horiz-adv-x="283" 
d="M182 141q0 -38 10 -55t36 -29l-29 -69q-60 16 -84.5 47.5t-24.5 94.5v397h92v-386z" />
    <glyph glyph-name="uni0268" unicode="&#x268;" horiz-adv-x="313" 
d="M109 672.5q-18 17.5 -18 44.5t18 45t46 18q29 0 47 -18t18 -45t-18 -44.5t-47 -17.5q-28 0 -46 17.5zM298 247h-96v-247h-92v247h-95v70h95v210h92v-210h96v-70z" />
    <glyph glyph-name="itilde" unicode="&#x129;" horiz-adv-x="282" 
d="M187 0h-92v527h92v-527zM164.5 663q-15.5 7 -34.5 20q-15 11 -25.5 16t-21.5 5q-16 0 -28 -11t-25 -35l-56 28q19 40 46.5 64t62.5 24q21 0 36 -7.5t34 -20.5q3 -2 12.5 -8t17.5 -9t16 -3q15 0 27 10.5t26 33.5l56 -28q-19 -42 -47 -64t-62 -22q-19 0 -34.5 7z" />
    <glyph glyph-name="j" unicode="j" horiz-adv-x="280" 
d="M185 32q0 -73 -18 -117t-52.5 -71.5t-96.5 -55.5l-27 67q39 18 60 35.5t31.5 49t10.5 86.5v501h92v-495zM186 762q18 -18 18 -45t-18 -44.5t-47 -17.5q-28 0 -46 17.5t-18 44.5t18 45t46 18q29 0 47 -18z" />
    <glyph glyph-name="uni0237" unicode="&#x237;" horiz-adv-x="280" 
d="M185 32q0 -73 -18 -117t-52.5 -71.5t-96.5 -55.5l-27 67q39 18 60 35.5t31.5 49t10.5 86.5v501h92v-495z" />
    <glyph glyph-name="jcircumflex" unicode="&#x135;" horiz-adv-x="280" 
d="M185 32q0 -73 -18 -117t-52.5 -71.5t-96.5 -55.5l-27 67q39 18 60 35.5t31.5 49t10.5 86.5v501h92v-495zM-26 679l135 113h61l136 -113l-40 -45l-126 84l-127 -84z" />
    <glyph glyph-name="uni029D" unicode="&#x29d;" horiz-adv-x="307" 
d="M117 672.5q-18 17.5 -18 44.5t18 45t46 18q29 0 47 -18t18 -45t-18 -44.5t-47 -17.5q-28 0 -46 17.5zM300 -98q-7 3 -35 13.5t-59 18.5q-12 -72 -55 -108.5t-112 -36.5q-59 0 -94 29.5t-35 77.5q0 55 40 86t108 31q36 0 60 -3v517h92v-536q56 -14 112 -39zM96 -124.5
q18 23.5 21 74.5q-25 5 -58 5q-38 0 -57.5 -14t-19.5 -41q0 -48 56 -48q40 0 58 23.5z" />
    <glyph glyph-name="uni025F" unicode="&#x25f;" horiz-adv-x="312" 
d="M297 0h-94q-4 -60 -23 -98.5t-52.5 -63.5t-90.5 -50l-27 67q36 17 56.5 33t32 42t13.5 70h-98v70h98v457h92v-457h93v-70z" />
    <glyph glyph-name="uni0284" unicode="&#x284;" horiz-adv-x="312" 
d="M297 70v-70h-94q-4 -60 -23 -98.5t-52.5 -63.5t-90.5 -50l-27 67q36 17 56.5 33t32 42t13.5 70h-98v70h98v524q0 76 40 116t111 40q65 0 115 -38l-36 -59q-20 12 -35.5 17.5t-38.5 5.5q-64 0 -64 -74v-532h93z" />
    <glyph glyph-name="k" unicode="k" horiz-adv-x="512" 
d="M187 0h-92v739l92 11v-750zM296 294l216 -294h-110l-209 288l194 239h103z" />
    <glyph glyph-name="kcommaaccent" unicode="&#x137;" horiz-adv-x="512" 
d="M187 0h-92v739l92 11v-750zM296 294l216 -294h-110l-209 288l194 239h103zM298.5 -93q16.5 -16 16.5 -40q0 -13 -5.5 -29t-20.5 -48l-41 -86h-53l29 116q-24 21 -24 47q0 24 17 40t41 16t40.5 -16z" />
    <glyph glyph-name="kgreenlandic" unicode="&#x138;" horiz-adv-x="509" 
d="M187 0h-92v527h92v-527zM293 284l216 -284h-110l-209 278l194 249h103z" />
    <glyph glyph-name="uni0199" unicode="&#x199;" horiz-adv-x="512" 
d="M205 657.5q-18 -18.5 -18 -57.5v-600h-92v599q0 68 43.5 109.5t121.5 41.5q36 0 64.5 -6.5t61.5 -20.5l-29 -67q-45 20 -92 20q-42 0 -60 -18.5zM512 0h-110l-209 288l194 239h103l-194 -233z" />
    <glyph glyph-name="l" unicode="l" horiz-adv-x="293" 
d="M119.5 18.5q-29.5 30.5 -29.5 85.5v635l92 11v-644q0 -22 7.5 -32t25.5 -10q19 0 34 6l24 -64q-33 -18 -73 -18q-51 0 -80.5 30.5z" />
    <glyph glyph-name="lacute" unicode="&#x13a;" horiz-adv-x="293" 
d="M119.5 18.5q-29.5 30.5 -29.5 85.5v635l92 11v-644q0 -22 7.5 -32t25.5 -10q19 0 34 6l24 -64q-33 -18 -73 -18q-51 0 -80.5 30.5zM258 884l-216 -79l-24 49l200 107z" />
    <glyph glyph-name="uni026C" unicode="&#x26c;" horiz-adv-x="363" 
d="M328 6q-33 -18 -73 -18q-51 0 -80.5 30.5t-29.5 85.5v150q-68 2 -104 31.5t-36 79.5q0 46 32 73.5t77 27.5q10 0 31 -3v276l92 11v-434q28 1 76 11l11 -56q-43 -11 -87 -14v-151q0 -21 7.5 -31.5t25.5 -10.5q19 0 34 6zM145 316v88q-10 3 -25 3q-20 0 -31 -10.5
t-11 -31.5q0 -49 67 -49z" />
    <glyph glyph-name="lcaron" unicode="&#x13e;" horiz-adv-x="293" 
d="M119.5 18.5q-29.5 30.5 -29.5 85.5v635l92 11v-644q0 -22 7.5 -32t25.5 -10q19 0 34 6l24 -64q-33 -18 -73 -18q-51 0 -80.5 30.5zM331 739l-50 -184l-53 8l20 186z" />
    <glyph glyph-name="uni1E3D" unicode="&#x1e3d;" horiz-adv-x="293" 
d="M119.5 18.5q-29.5 30.5 -29.5 85.5v635l92 11v-644q0 -22 7.5 -32t25.5 -10q19 0 34 6l24 -64q-33 -18 -73 -18q-51 0 -80.5 30.5zM12 -181l135 113h61l136 -113l-40 -45l-126 84l-127 -84z" />
    <glyph glyph-name="lcommaaccent" unicode="&#x13c;" horiz-adv-x="293" 
d="M119.5 18.5q-29.5 30.5 -29.5 85.5v635l92 11v-644q0 -22 7.5 -32t25.5 -10q19 0 34 6l24 -64q-33 -18 -73 -18q-51 0 -80.5 30.5zM221.5 -93q16.5 -16 16.5 -40q0 -13 -5.5 -29t-20.5 -48l-41 -86h-53l29 116q-24 21 -24 47q0 24 17 40t41 16t40.5 -16z" />
    <glyph glyph-name="ldot" unicode="&#x140;" horiz-adv-x="332" 
d="M119.5 18.5q-29.5 30.5 -29.5 85.5v635l92 11v-644q0 -22 7.5 -32t25.5 -10q19 0 34 6l24 -64q-33 -18 -73 -18q-51 0 -80.5 30.5zM344 422q18 -18 18 -45t-18 -44.5t-47 -17.5q-28 0 -46 17.5t-18 44.5t18 45t46 18q29 0 47 -18z" />
    <glyph glyph-name="uni1E37" unicode="&#x1e37;" horiz-adv-x="293" 
d="M119.5 18.5q-29.5 30.5 -29.5 85.5v635l92 11v-644q0 -22 7.5 -32t25.5 -10q19 0 34 6l24 -64q-33 -18 -73 -18q-51 0 -80.5 30.5zM224 -92q18 -18 18 -45t-18 -44.5t-47 -17.5q-28 0 -46 17.5t-18 44.5t18 45t46 18q29 0 47 -18z" />
    <glyph glyph-name="uni026E" unicode="&#x26e;" horiz-adv-x="661" 
d="M570.5 155q60.5 -51 60.5 -151q0 -64 -30 -113t-84 -76.5t-126 -27.5q-66 0 -116 21t-89 62l51 51q35 -31 70.5 -45t80.5 -14q70 0 107 37t37 107q0 72 -36 102t-120 30h-79v67l205 246h-320v-345q0 -22 7.5 -32t25.5 -10q19 0 34 6l24 -64q-33 -18 -73 -18
q-51 0 -80.5 30.5t-29.5 85.5v635l92 11v-223h425v-70l-214 -251h3q114 0 174.5 -51z" />
    <glyph glyph-name="uni026D" unicode="&#x26d;" horiz-adv-x="282" 
d="M361 -175q-50 -38 -115 -38q-70 0 -110.5 40t-40.5 116v796l92 11v-815q0 -74 64 -74q23 0 38.5 5.5t35.5 17.5z" />
    <glyph glyph-name="uni026B" unicode="&#x26b;" horiz-adv-x="388" 
d="M230 302v-196q0 -21 7.5 -31.5t25.5 -10.5q19 0 34 6l24 -64q-33 -18 -73 -18q-51 0 -80.5 30.5t-29.5 85.5v248q-14 8 -27 8q-24 0 -39.5 -14.5t-30.5 -41.5l-61 31q50 97 137 97q7 0 21 -2v309l92 11v-364q23 -15 40 -15q23 0 38 13t29 37l61 -32q-47 -91 -134 -91
q-21 0 -34 4z" />
    <glyph glyph-name="lslash" unicode="&#x142;" horiz-adv-x="312" 
d="M255 70l24 -64q-33 -18 -73 -18q-51 0 -80.5 30.5t-29.5 85.5v196l-51 -31l-35 59l86 54v357l92 11v-313l91 55l33 -60l-124 -76v-250q0 -22 7.5 -32t25.5 -10q19 0 34 6z" />
    <glyph glyph-name="m" unicode="m" horiz-adv-x="857" 
d="M728 495.5q39 -43.5 39 -117.5v-378h-92v365q0 102 -74 102q-39 0 -66 -22.5t-58 -70.5v-374h-92v365q0 102 -74 102q-40 0 -67 -23t-57 -70v-374h-92v527h79l8 -77q59 89 152 89q49 0 83.5 -25t49.5 -70q31 46 68.5 70.5t88.5 24.5q65 0 104 -43.5z" />
    <glyph glyph-name="uni1E3F" unicode="&#x1e3f;" horiz-adv-x="857" 
d="M728 495.5q39 -43.5 39 -117.5v-378h-92v365q0 102 -74 102q-39 0 -66 -22.5t-58 -70.5v-374h-92v365q0 102 -74 102q-40 0 -67 -23t-57 -70v-374h-92v527h79l8 -77q59 89 152 89q49 0 83.5 -25t49.5 -70q31 46 68.5 70.5t88.5 24.5q65 0 104 -43.5zM539 724l-212 -86
l-28 49l199 114z" />
    <glyph glyph-name="uni0271" unicode="&#x271;" horiz-adv-x="857" 
d="M728 495.5q39 -43.5 39 -117.5v-435q0 -76 -40.5 -116t-110.5 -40q-65 0 -115 38l36 59q20 -12 35.5 -17.5t38.5 -5.5q64 0 64 74v430q0 102 -74 102q-39 0 -66 -22.5t-58 -70.5v-374h-92v365q0 102 -74 102q-40 0 -67 -23t-57 -70v-374h-92v527h79l8 -77q59 89 152 89
q49 0 83.5 -25t49.5 -70q31 46 68.5 70.5t88.5 24.5q65 0 104 -43.5z" />
    <glyph glyph-name="uni0270" unicode="&#x270;" horiz-adv-x="857" 
d="M762 527v-740l-92 11v272q-59 -82 -147 -82q-49 0 -83.5 25t-49.5 70q-31 -46 -68.5 -70.5t-88.5 -24.5q-65 0 -104 43.5t-39 117.5v378h92v-365q0 -102 74 -102q39 0 66 22.5t58 70.5v374h92v-365q0 -102 74 -102q40 0 67 23t57 70v374h92z" />
    <glyph glyph-name="uni026F" unicode="&#x26f;" horiz-adv-x="857" 
d="M129 31.5q-39 43.5 -39 117.5v378h92v-365q0 -102 74 -102q39 0 66 22.5t58 70.5v374h92v-365q0 -102 74 -102q40 0 67 23t57 70v374h92v-527h-79l-8 77q-59 -89 -152 -89q-49 0 -83.5 25t-49.5 70q-31 -46 -68.5 -70.5t-88.5 -24.5q-65 0 -104 43.5z" />
    <glyph glyph-name="n" unicode="n" horiz-adv-x="586" 
d="M455.5 496q40.5 -43 40.5 -118v-378h-92v365q0 56 -21 79t-62 23q-42 0 -74 -24t-60 -69v-374h-92v527h79l8 -78q28 42 69.5 66t91.5 24q72 0 112.5 -43z" />
    <glyph glyph-name="nacute" unicode="&#x144;" horiz-adv-x="586" 
d="M455.5 496q40.5 -43 40.5 -118v-378h-92v365q0 56 -21 79t-62 23q-42 0 -74 -24t-60 -69v-374h-92v527h79l8 -78q28 42 69.5 66t91.5 24q72 0 112.5 -43zM408 724l-212 -86l-28 49l199 114z" />
    <glyph glyph-name="napostrophe" unicode="&#x149;" horiz-adv-x="586" 
d="M145.5 685q-5.5 -16 -20.5 -48l-41 -86h-53l29 116q-24 21 -24 47q0 24 17 40t41 16t40.5 -16t16.5 -40q0 -13 -5.5 -29zM455.5 496q40.5 -43 40.5 -118v-378h-92v365q0 56 -21 79t-62 23q-42 0 -74 -24t-60 -69v-374h-92v527h79l8 -78q28 42 69.5 66t91.5 24
q72 0 112.5 -43z" />
    <glyph glyph-name="ncaron" unicode="&#x148;" horiz-adv-x="586" 
d="M455.5 496q40.5 -43 40.5 -118v-378h-92v365q0 56 -21 79t-62 23q-42 0 -74 -24t-60 -69v-374h-92v527h79l8 -78q28 42 69.5 66t91.5 24q72 0 112.5 -43zM463 740l-135 -113h-61l-136 113l40 45l126 -84l127 84z" />
    <glyph glyph-name="uni1E4B" unicode="&#x1e4b;" horiz-adv-x="586" 
d="M455.5 496q40.5 -43 40.5 -118v-378h-92v365q0 56 -21 79t-62 23q-42 0 -74 -24t-60 -69v-374h-92v527h79l8 -78q28 42 69.5 66t91.5 24q72 0 112.5 -43zM127 -181l135 113h61l136 -113l-40 -45l-126 84l-127 -84z" />
    <glyph glyph-name="ncommaaccent" unicode="&#x146;" horiz-adv-x="586" 
d="M455.5 496q40.5 -43 40.5 -118v-378h-92v365q0 56 -21 79t-62 23q-42 0 -74 -24t-60 -69v-374h-92v527h79l8 -78q28 42 69.5 66t91.5 24q72 0 112.5 -43zM336.5 -93q16.5 -16 16.5 -40q0 -13 -5.5 -29t-20.5 -48l-41 -86h-53l29 116q-24 21 -24 47q0 24 17 40t41 16
t40.5 -16z" />
    <glyph glyph-name="uni1E45" unicode="&#x1e45;" horiz-adv-x="586" 
d="M455.5 496q40.5 -43 40.5 -118v-378h-92v365q0 56 -21 79t-62 23q-42 0 -74 -24t-60 -69v-374h-92v527h79l8 -78q28 42 69.5 66t91.5 24q72 0 112.5 -43zM344 762q18 -18 18 -45t-18 -44.5t-47 -17.5q-28 0 -46 17.5t-18 44.5t18 45t46 18q29 0 47 -18z" />
    <glyph glyph-name="uni1E47" unicode="&#x1e47;" horiz-adv-x="586" 
d="M455.5 496q40.5 -43 40.5 -118v-378h-92v365q0 56 -21 79t-62 23q-42 0 -74 -24t-60 -69v-374h-92v527h79l8 -78q28 42 69.5 66t91.5 24q72 0 112.5 -43zM339 -92q18 -18 18 -45t-18 -44.5t-47 -17.5q-28 0 -46 17.5t-18 44.5t18 45t46 18q29 0 47 -18z" />
    <glyph glyph-name="eng" unicode="&#x14b;" horiz-adv-x="586" 
d="M455.5 496q40.5 -43 40.5 -118v-435q0 -76 -40.5 -116t-110.5 -40q-65 0 -115 38l36 59q20 -12 35.5 -17.5t38.5 -5.5q64 0 64 74v430q0 56 -21 79t-62 23q-42 0 -74 -24t-60 -69v-374h-92v527h79l8 -78q28 42 69.5 66t91.5 24q72 0 112.5 -43z" />
    <glyph glyph-name="uni0272" unicode="&#x272;" horiz-adv-x="586" 
d="M455.5 496q40.5 -43 40.5 -118v-378h-92v365q0 56 -21 79t-62 23q-42 0 -74 -24t-60 -69v-431q0 -76 -40.5 -116t-110.5 -40q-65 0 -115 38l36 59q20 -12 35.5 -17.5t38.5 -5.5q64 0 64 74v592h79l8 -78q28 42 69.5 66t91.5 24q72 0 112.5 -43z" />
    <glyph glyph-name="uni0273" unicode="&#x273;" horiz-adv-x="586" 
d="M670 -175q-50 -38 -115 -38q-70 0 -110.5 40t-40.5 116v422q0 56 -21 79t-62 23q-42 0 -74 -24t-60 -69v-374h-92v527h79l8 -78q28 42 69.5 66t91.5 24q72 0 112.5 -43t40.5 -118v-443q0 -74 64 -74q23 0 38.5 5.5t35.5 17.5z" />
    <glyph glyph-name="ntilde" unicode="&#xf1;" horiz-adv-x="586" 
d="M455.5 496q40.5 -43 40.5 -118v-378h-92v365q0 56 -21 79t-62 23q-42 0 -74 -24t-60 -69v-374h-92v527h79l8 -78q28 42 69.5 66t91.5 24q72 0 112.5 -43zM321.5 663q-15.5 7 -34.5 20q-15 11 -25.5 16t-21.5 5q-16 0 -28 -11t-25 -35l-56 28q19 40 46.5 64t62.5 24
q21 0 36 -7.5t34 -20.5q3 -2 12.5 -8t17.5 -9t16 -3q15 0 27 10.5t26 33.5l56 -28q-19 -42 -47 -64t-62 -22q-19 0 -34.5 7z" />
    <glyph glyph-name="o" unicode="o" horiz-adv-x="584" 
d="M465.5 465q61.5 -74 61.5 -201q0 -82 -28 -144.5t-81 -97t-126 -34.5q-111 0 -173 74t-62 201q0 82 28 144.5t81 97t127 34.5q111 0 172.5 -74zM156 263q0 -201 136 -201t136 202q0 201 -135 201q-137 0 -137 -202z" />
    <glyph glyph-name="oacute" unicode="&#xf3;" horiz-adv-x="584" 
d="M465.5 465q61.5 -74 61.5 -201q0 -82 -28 -144.5t-81 -97t-126 -34.5q-111 0 -173 74t-62 201q0 82 28 144.5t81 97t127 34.5q111 0 172.5 -74zM156 263q0 -201 136 -201t136 202q0 201 -135 201q-137 0 -137 -202zM402 724l-212 -86l-28 49l199 114z" />
    <glyph glyph-name="uni0275" unicode="&#x275;" horiz-adv-x="584" 
d="M465.5 465q61.5 -74 61.5 -201q0 -82 -28 -144.5t-81 -97t-126 -34.5q-111 0 -173 74t-62 201q0 82 28 144.5t81 97t127 34.5q111 0 172.5 -74zM157 303h271q-13 162 -135 162q-124 0 -136 -162zM428 233h-272q10 -171 136 -171t136 171z" />
    <glyph glyph-name="obreve" unicode="&#x14f;" horiz-adv-x="584" 
d="M465.5 465q61.5 -74 61.5 -201q0 -82 -28 -144.5t-81 -97t-126 -34.5q-111 0 -173 74t-62 201q0 82 28 144.5t81 97t127 34.5q111 0 172.5 -74zM156 263q0 -201 136 -201t136 202q0 201 -135 201q-137 0 -137 -202zM187.5 678.5q-41.5 35.5 -47.5 97.5l61 13
q21 -76 89 -76q71 0 92 76l61 -13q-6 -62 -48.5 -97.5t-104.5 -35.5q-61 0 -102.5 35.5z" />
    <glyph glyph-name="uni01D2" unicode="&#x1d2;" horiz-adv-x="584" 
d="M465.5 465q61.5 -74 61.5 -201q0 -82 -28 -144.5t-81 -97t-126 -34.5q-111 0 -173 74t-62 201q0 82 28 144.5t81 97t127 34.5q111 0 172.5 -74zM156 263q0 -201 136 -201t136 202q0 201 -135 201q-137 0 -137 -202zM457 740l-135 -113h-61l-136 113l40 45l126 -84l127 84
z" />
    <glyph glyph-name="ocircumflex" unicode="&#xf4;" horiz-adv-x="584" 
d="M465.5 465q61.5 -74 61.5 -201q0 -82 -28 -144.5t-81 -97t-126 -34.5q-111 0 -173 74t-62 201q0 82 28 144.5t81 97t127 34.5q111 0 172.5 -74zM156 263q0 -201 136 -201t136 202q0 201 -135 201q-137 0 -137 -202zM126 679l135 113h61l136 -113l-40 -45l-126 84
l-127 -84z" />
    <glyph glyph-name="uni1ED1" unicode="&#x1ed1;" horiz-adv-x="584" 
d="M554 838l-136 -126l-38 35l118 145zM287 670l-126 -81l-40 45l136 110h61l135 -110l-39 -45zM465.5 465q61.5 -74 61.5 -201q0 -82 -28 -144.5t-81 -97t-126 -34.5q-111 0 -173 74t-62 201q0 82 28 144.5t81 97t127 34.5q111 0 172.5 -74zM156 263q0 -201 136 -201
t136 202q0 201 -135 201q-137 0 -137 -202z" />
    <glyph glyph-name="uni1ED9" unicode="&#x1ed9;" horiz-adv-x="584" 
d="M465.5 465q61.5 -74 61.5 -201q0 -82 -28 -144.5t-81 -97t-126 -34.5q-111 0 -173 74t-62 201q0 82 28 144.5t81 97t127 34.5q111 0 172.5 -74zM156 263q0 -201 136 -201t136 202q0 201 -135 201q-137 0 -137 -202zM338 -92q18 -18 18 -45t-18 -44.5t-47 -17.5
q-28 0 -46 17.5t-18 44.5t18 45t46 18q29 0 47 -18zM126 679l135 113h61l136 -113l-40 -45l-126 84l-127 -84z" />
    <glyph glyph-name="uni1ED3" unicode="&#x1ed3;" horiz-adv-x="584" 
d="M195 747l-38 -35l-136 126l56 54zM287 670l-126 -81l-40 45l136 110h61l135 -110l-39 -45zM465.5 465q61.5 -74 61.5 -201q0 -82 -28 -144.5t-81 -97t-126 -34.5q-111 0 -173 74t-62 201q0 82 28 144.5t81 97t127 34.5q111 0 172.5 -74zM156 263q0 -201 136 -201t136 202
q0 201 -135 201q-137 0 -137 -202z" />
    <glyph glyph-name="uni1ED5" unicode="&#x1ed5;" horiz-adv-x="584" 
d="M401 810q39 5 55 13.5t16 29.5q0 18 -12 27t-32 9q-30 0 -57 -15l-22 53q41 24 94 24q51 0 79.5 -24.5t28.5 -66.5q0 -37 -21 -58.5t-60 -27.5v-58h-69v94zM287 670l-126 -81l-40 45l136 110h61l135 -110l-39 -45zM465.5 465q61.5 -74 61.5 -201q0 -82 -28 -144.5
t-81 -97t-126 -34.5q-111 0 -173 74t-62 201q0 82 28 144.5t81 97t127 34.5q111 0 172.5 -74zM156 263q0 -201 136 -201t136 202q0 201 -135 201q-137 0 -137 -202z" />
    <glyph glyph-name="uni1ED7" unicode="&#x1ed7;" horiz-adv-x="584" 
d="M311.5 764q-15.5 7 -34.5 20q-15 11 -25.5 16t-21.5 5q-16 0 -28 -11t-25 -35l-56 28q19 40 46.5 64t62.5 24q21 0 36 -7.5t34 -20.5q3 -2 12.5 -8t17.5 -9t16 -3q15 0 27 10.5t26 33.5l56 -28q-19 -42 -47 -64t-62 -22q-19 0 -34.5 7zM287 660l-126 -81l-40 45l136 110
h61l135 -110l-39 -45zM465.5 465q61.5 -74 61.5 -201q0 -82 -28 -144.5t-81 -97t-126 -34.5q-111 0 -173 74t-62 201q0 82 28 144.5t81 97t127 34.5q111 0 172.5 -74zM156 263q0 -201 136 -201t136 202q0 201 -135 201q-137 0 -137 -202z" />
    <glyph glyph-name="odieresis" unicode="&#xf6;" horiz-adv-x="584" 
d="M465.5 465q61.5 -74 61.5 -201q0 -82 -28 -144.5t-81 -97t-126 -34.5q-111 0 -173 74t-62 201q0 82 28 144.5t81 97t127 34.5q111 0 172.5 -74zM156 263q0 -201 136 -201t136 202q0 201 -135 201q-137 0 -137 -202zM227.5 751.5q16.5 -16.5 16.5 -40.5t-16.5 -40.5
t-40.5 -16.5q-25 0 -41.5 16.5t-16.5 40.5t16.5 40.5t41.5 16.5q24 0 40.5 -16.5zM437.5 751.5q16.5 -16.5 16.5 -40.5t-16.5 -40.5t-41.5 -16.5q-24 0 -40.5 16.5t-16.5 40.5t16.5 40.5t40.5 16.5q25 0 41.5 -16.5z" />
    <glyph glyph-name="uni022B" unicode="&#x22b;" horiz-adv-x="584" 
d="M155 787v69h273v-69h-273zM227.5 721.5q16.5 -16.5 16.5 -40.5t-16.5 -40.5t-40.5 -16.5q-25 0 -41.5 16.5t-16.5 40.5t16.5 40.5t41.5 16.5q24 0 40.5 -16.5zM437.5 721.5q16.5 -16.5 16.5 -40.5t-16.5 -40.5t-41.5 -16.5q-24 0 -40.5 16.5t-16.5 40.5t16.5 40.5
t40.5 16.5q25 0 41.5 -16.5zM465.5 465q61.5 -74 61.5 -201q0 -82 -28 -144.5t-81 -97t-126 -34.5q-111 0 -173 74t-62 201q0 82 28 144.5t81 97t127 34.5q111 0 172.5 -74zM156 263q0 -201 136 -201t136 202q0 201 -135 201q-137 0 -137 -202z" />
    <glyph glyph-name="uni1ECD" unicode="&#x1ecd;" horiz-adv-x="584" 
d="M465.5 465q61.5 -74 61.5 -201q0 -82 -28 -144.5t-81 -97t-126 -34.5q-111 0 -173 74t-62 201q0 82 28 144.5t81 97t127 34.5q111 0 172.5 -74zM156 263q0 -201 136 -201t136 202q0 201 -135 201q-137 0 -137 -202zM338 -92q18 -18 18 -45t-18 -44.5t-47 -17.5
q-28 0 -46 17.5t-18 44.5t18 45t46 18q29 0 47 -18z" />
    <glyph glyph-name="ograve" unicode="&#xf2;" horiz-adv-x="584" 
d="M465.5 465q61.5 -74 61.5 -201q0 -82 -28 -144.5t-81 -97t-126 -34.5q-111 0 -173 74t-62 201q0 82 28 144.5t81 97t127 34.5q111 0 172.5 -74zM156 263q0 -201 136 -201t136 202q0 201 -135 201q-137 0 -137 -202zM422 687l-28 -49l-212 86l41 77z" />
    <glyph glyph-name="uni1ECF" unicode="&#x1ecf;" horiz-adv-x="584" 
d="M465.5 465q61.5 -74 61.5 -201q0 -82 -28 -144.5t-81 -97t-126 -34.5q-111 0 -173 74t-62 201q0 82 28 144.5t81 97t127 34.5q111 0 172.5 -74zM156 263q0 -201 136 -201t136 202q0 201 -135 201q-137 0 -137 -202zM253 705q39 5 55 13.5t16 29.5q0 18 -12 27t-32 9
q-30 0 -57 -15l-22 53q41 24 94 24q51 0 79.5 -24.5t28.5 -66.5q0 -37 -21 -58.5t-60 -27.5v-58h-69v94z" />
    <glyph glyph-name="ohorn" unicode="&#x1a1;" horiz-adv-x="595" 
d="M565.5 456q-24.5 -28 -70.5 -36q32 -64 32 -156q0 -82 -28 -144.5t-81 -97t-126 -34.5q-111 0 -173 74t-62 201q0 82 28 144.5t81 97t127 34.5q104 0 165 -66q55 4 55 51q0 23 -3.5 38.5t-10.5 33.5l72 15q19 -33 19 -82q0 -45 -24.5 -73zM428 264q0 201 -135 201
q-137 0 -137 -202q0 -201 136 -201t136 202z" />
    <glyph glyph-name="uni1EDB" unicode="&#x1edb;" horiz-adv-x="595" 
d="M190 638l-28 49l199 114l41 -77zM565.5 456q-24.5 -28 -70.5 -36q32 -64 32 -156q0 -82 -28 -144.5t-81 -97t-126 -34.5q-111 0 -173 74t-62 201q0 82 28 144.5t81 97t127 34.5q104 0 165 -66q55 4 55 51q0 23 -3.5 38.5t-10.5 33.5l72 15q19 -33 19 -82q0 -45 -24.5 -73
zM428 264q0 201 -135 201q-137 0 -137 -202q0 -201 136 -201t136 202z" />
    <glyph glyph-name="uni1EE3" unicode="&#x1ee3;" horiz-adv-x="595" 
d="M565.5 456q-24.5 -28 -70.5 -36q32 -64 32 -156q0 -82 -28 -144.5t-81 -97t-126 -34.5q-111 0 -173 74t-62 201q0 82 28 144.5t81 97t127 34.5q104 0 165 -66q55 4 55 51q0 23 -3.5 38.5t-10.5 33.5l72 15q19 -33 19 -82q0 -45 -24.5 -73zM428 264q0 201 -135 201
q-137 0 -137 -202q0 -201 136 -201t136 202zM338 -92q18 -18 18 -45t-18 -44.5t-47 -17.5q-28 0 -46 17.5t-18 44.5t18 45t46 18q29 0 47 -18z" />
    <glyph glyph-name="uni1EDD" unicode="&#x1edd;" horiz-adv-x="595" 
d="M394 638l-212 86l41 77l199 -114zM565.5 456q-24.5 -28 -70.5 -36q32 -64 32 -156q0 -82 -28 -144.5t-81 -97t-126 -34.5q-111 0 -173 74t-62 201q0 82 28 144.5t81 97t127 34.5q104 0 165 -66q55 4 55 51q0 23 -3.5 38.5t-10.5 33.5l72 15q19 -33 19 -82
q0 -45 -24.5 -73zM428 264q0 201 -135 201q-137 0 -137 -202q0 -201 136 -201t136 202z" />
    <glyph glyph-name="uni1EDF" unicode="&#x1edf;" horiz-adv-x="595" 
d="M223 769l-22 53q41 24 94 24q51 0 79.5 -24.5t28.5 -66.5q0 -37 -21 -58.5t-60 -27.5v-58h-69v94q39 5 55 13.5t16 29.5q0 18 -12 27t-32 9q-30 0 -57 -15zM565.5 456q-24.5 -28 -70.5 -36q32 -64 32 -156q0 -82 -28 -144.5t-81 -97t-126 -34.5q-111 0 -173 74t-62 201
q0 82 28 144.5t81 97t127 34.5q104 0 165 -66q55 4 55 51q0 23 -3.5 38.5t-10.5 33.5l72 15q19 -33 19 -82q0 -45 -24.5 -73zM428 264q0 201 -135 201q-137 0 -137 -202q0 -201 136 -201t136 202z" />
    <glyph glyph-name="uni1EE1" unicode="&#x1ee1;" horiz-adv-x="595" 
d="M206 693q-12 -11 -25 -35l-56 28q19 40 46.5 64t62.5 24q21 0 36 -7.5t34 -20.5q3 -2 12.5 -8t17.5 -9t16 -3q15 0 27 10.5t26 33.5l56 -28q-19 -42 -47 -64t-62 -22q-19 0 -34.5 7t-34.5 20q-15 11 -25.5 16t-21.5 5q-16 0 -28 -11zM565.5 456q-24.5 -28 -70.5 -36
q32 -64 32 -156q0 -82 -28 -144.5t-81 -97t-126 -34.5q-111 0 -173 74t-62 201q0 82 28 144.5t81 97t127 34.5q104 0 165 -66q55 4 55 51q0 23 -3.5 38.5t-10.5 33.5l72 15q19 -33 19 -82q0 -45 -24.5 -73zM428 264q0 201 -135 201q-137 0 -137 -202q0 -201 136 -201
t136 202z" />
    <glyph glyph-name="ohungarumlaut" unicode="&#x151;" horiz-adv-x="584" 
d="M465.5 465q61.5 -74 61.5 -201q0 -82 -28 -144.5t-81 -97t-126 -34.5q-111 0 -173 74t-62 201q0 82 28 144.5t81 97t127 34.5q111 0 172.5 -74zM156 263q0 -201 136 -201t136 202q0 201 -135 201q-137 0 -137 -202zM341 791l-96 -152l-58 25l76 168zM493 791l-106 -157
l-58 25l86 173z" />
    <glyph glyph-name="omacron" unicode="&#x14d;" horiz-adv-x="584" 
d="M465.5 465q61.5 -74 61.5 -201q0 -82 -28 -144.5t-81 -97t-126 -34.5q-111 0 -173 74t-62 201q0 82 28 144.5t81 97t127 34.5q111 0 172.5 -74zM156 263q0 -201 136 -201t136 202q0 201 -135 201q-137 0 -137 -202zM155 667v69h273v-69h-273z" />
    <glyph glyph-name="uni1E53" unicode="&#x1e53;" horiz-adv-x="584" 
d="M414 805l-216 -79l-24 49l200 107zM155 617v69h273v-69h-273zM465.5 465q61.5 -74 61.5 -201q0 -82 -28 -144.5t-81 -97t-126 -34.5q-111 0 -173 74t-62 201q0 82 28 144.5t81 97t127 34.5q111 0 172.5 -74zM156 263q0 -201 136 -201t136 202q0 201 -135 201
q-137 0 -137 -202z" />
    <glyph glyph-name="uni1E51" unicode="&#x1e51;" horiz-adv-x="584" 
d="M402 775l-24 -49l-216 79l39 77zM155 617v69h273v-69h-273zM465.5 465q61.5 -74 61.5 -201q0 -82 -28 -144.5t-81 -97t-126 -34.5q-111 0 -173 74t-62 201q0 82 28 144.5t81 97t127 34.5q111 0 172.5 -74zM156 263q0 -201 136 -201t136 202q0 201 -135 201
q-137 0 -137 -202z" />
    <glyph glyph-name="uni0254" unicode="&#x254;" horiz-adv-x="484" 
d="M30 46l43 58q31 -22 57 -31.5t62 -10.5q136 0 136 202q0 102 -33 151.5t-99 49.5q-32 0 -60 -9.5t-59 -30.5l-42 57q68 57 162 57q110 0 170 -74t60 -201q0 -82 -28 -144.5t-81 -97t-126 -34.5q-93 0 -162 58z" />
    <glyph glyph-name="oslash" unicode="&#xf8;" horiz-adv-x="584" 
d="M498.5 412.5q28.5 -62.5 28.5 -148.5q0 -82 -28 -144.5t-81 -97t-126 -34.5q-24 0 -51 5l-39 -123l-75 22l42 127q-54 33 -83 96t-29 148q0 82 28 144.5t81 97t127 34.5q24 0 51 -5l39 122l75 -22l-42 -126q54 -33 82.5 -95.5zM156 263q0 -129 48 -174l124 373
q-17 3 -35 3q-137 0 -137 -202zM428 264q0 67 -11.5 109t-35.5 64l-123 -372q15 -3 34 -3q136 0 136 202z" />
    <glyph glyph-name="oslashacute" unicode="&#x1ff;" horiz-adv-x="584" 
d="M498.5 412.5q28.5 -62.5 28.5 -148.5q0 -82 -28 -144.5t-81 -97t-126 -34.5q-24 0 -51 5l-39 -123l-75 22l42 127q-54 33 -83 96t-29 148q0 82 28 144.5t81 97t127 34.5q24 0 51 -5l39 122l75 -22l-42 -126q54 -33 82.5 -95.5zM156 263q0 -129 48 -174l124 373
q-17 3 -35 3q-137 0 -137 -202zM428 264q0 67 -11.5 109t-35.5 64l-123 -372q15 -3 34 -3q136 0 136 202zM402 724l-212 -86l-28 49l199 114z" />
    <glyph glyph-name="otilde" unicode="&#xf5;" horiz-adv-x="584" 
d="M465.5 465q61.5 -74 61.5 -201q0 -82 -28 -144.5t-81 -97t-126 -34.5q-111 0 -173 74t-62 201q0 82 28 144.5t81 97t127 34.5q111 0 172.5 -74zM156 263q0 -201 136 -201t136 202q0 201 -135 201q-137 0 -137 -202zM315.5 663q-15.5 7 -34.5 20q-15 11 -25.5 16t-21.5 5
q-16 0 -28 -11t-25 -35l-56 28q19 40 46.5 64t62.5 24q21 0 36 -7.5t34 -20.5q3 -2 12.5 -8t17.5 -9t16 -3q15 0 27 10.5t26 33.5l56 -28q-19 -42 -47 -64t-62 -22q-19 0 -34.5 7z" />
    <glyph glyph-name="uni1E4D" unicode="&#x1e4d;" horiz-adv-x="584" 
d="M414 815l-216 -79l-24 49l200 107zM315.5 603q-15.5 7 -34.5 20q-15 11 -25.5 16t-21.5 5q-16 0 -28 -11t-25 -35l-56 28q19 40 46.5 64t62.5 24q21 0 36 -7.5t34 -20.5q3 -2 12.5 -8t17.5 -9t16 -3q15 0 27 10.5t26 33.5l56 -28q-19 -42 -47 -64t-62 -22q-19 0 -34.5 7z
M465.5 465q61.5 -74 61.5 -201q0 -82 -28 -144.5t-81 -97t-126 -34.5q-111 0 -173 74t-62 201q0 82 28 144.5t81 97t127 34.5q111 0 172.5 -74zM156 263q0 -201 136 -201t136 202q0 201 -135 201q-137 0 -137 -202z" />
    <glyph glyph-name="oe" unicode="&#x153;" horiz-adv-x="921" 
d="M862 232h-336q6 -87 44 -128t98 -41q38 0 70 11t67 35l40 -55q-84 -66 -184 -66q-125 0 -185 109q-62 -109 -184 -109q-111 0 -173 74t-62 201q0 82 28 144.5t81 97t127 34.5q126 0 185 -105q58 105 169 105q105 0 161 -69t56 -191q0 -23 -2 -47zM773 306q0 78 -31 119
t-93 41q-113 0 -123 -166h247v6zM428 264q0 201 -135 201q-137 0 -137 -202q0 -201 136 -201t136 202z" />
    <glyph glyph-name="p" unicode="p" horiz-adv-x="594" 
d="M485 467q47 -72 47 -203q0 -124 -54 -200t-153 -76q-88 0 -138 60v-250l-92 -11v740h79l7 -71q29 40 70 61.5t86 21.5q101 0 148 -72zM433 264q0 202 -119 202q-39 0 -71 -23t-56 -59v-257q20 -31 50 -47.5t66 -16.5q130 0 130 201z" />
    <glyph glyph-name="uni0278" unicode="&#x278;" horiz-adv-x="628" 
d="M522 77.5q-60 -68.5 -162 -74.5v-205l-92 -11v217q-106 7 -164 75.5t-58 183.5q0 119 60 187.5t162 73.5v214l92 10v-225q107 -7 164.5 -75t57.5 -183q0 -119 -60 -187.5zM176.5 129q31.5 -48 94.5 -53v377q-65 -7 -95.5 -54.5t-30.5 -135.5q0 -86 31.5 -134zM483 265
q0 84 -32 132.5t-94 53.5v-376q126 15 126 190z" />
    <glyph glyph-name="uni01A5" unicode="&#x1a5;" horiz-adv-x="594" 
d="M662 712l-36 -59q-20 12 -35.5 17.5t-38.5 5.5q-64 0 -64 -74v-142q22 -35 33 -86t11 -110q0 -124 -54 -200t-153 -76q-88 0 -138 60v-250l-92 -11v740h79l8 -76q29 43 69 65.5t86 22.5q38 0 59 -12v67q0 76 40 116t111 40q65 0 115 -38zM433 264q0 202 -119 202
q-39 0 -71 -23t-56 -59v-257q20 -31 50 -47.5t66 -16.5q130 0 130 201z" />
    <glyph glyph-name="thorn" unicode="&#xfe;" horiz-adv-x="594" 
d="M485 467q47 -72 47 -203q0 -124 -54 -200t-153 -76q-88 0 -138 60v-246l-92 -15v952l92 11v-287q28 37 67 56.5t83 19.5q101 0 148 -72zM433 264q0 202 -119 202q-39 0 -71 -23t-56 -59v-257q20 -31 50 -47.5t66 -16.5q130 0 130 201z" />
    <glyph glyph-name="q" unicode="q" horiz-adv-x="593" 
d="M498 527v-740l-92 11v272q-26 -39 -64.5 -60.5t-85.5 -21.5q-94 0 -146.5 74t-52.5 199q0 81 25 144t72 98.5t110 35.5q84 0 148 -71l7 59h79zM348 80.5q30 19.5 58 58.5v258q-26 34 -55.5 51.5t-66.5 17.5q-61 0 -94.5 -51t-33.5 -152q0 -102 31 -152t89 -50
q42 0 72 19.5z" />
    <glyph glyph-name="uni024B" unicode="&#x24b;" horiz-adv-x="593" 
d="M589 -195q-33 -18 -73 -18q-50 0 -80 30.5t-30 85.5v167q-26 -39 -64.5 -60.5t-85.5 -21.5q-94 0 -146.5 74t-52.5 199q0 81 25 144t72 98.5t110 35.5q84 0 148 -71l7 59h79v-624q0 -22 7.5 -32t25.5 -10q14 0 34 6zM348 80.5q30 19.5 58 58.5v258q-26 34 -55.5 51.5
t-66.5 17.5q-61 0 -94.5 -51t-33.5 -152q0 -102 31 -152t89 -50q42 0 72 19.5z" />
    <glyph glyph-name="r" unicode="r" horiz-adv-x="386" 
d="M376 533l-17 -90q-24 6 -46 6q-49 0 -79 -36t-47 -112v-301h-92v527h79l9 -107q21 59 57 89t84 30q28 0 52 -6z" />
    <glyph glyph-name="racute" unicode="&#x155;" horiz-adv-x="386" 
d="M376 533l-17 -90q-24 6 -46 6q-49 0 -79 -36t-47 -112v-301h-92v527h79l9 -107q21 59 57 89t84 30q28 0 52 -6zM348 724l-212 -86l-28 49l199 114z" />
    <glyph glyph-name="uni0264" unicode="&#x264;" horiz-adv-x="523" 
d="M488.5 532q17.5 -7 34.5 -21l-30 -52q-10 6 -17.5 8.5t-19.5 2.5q-13 0 -20.5 -8.5t-21.5 -35.5l-103 -199q33 -52 45.5 -81t12.5 -63q0 -43 -28 -69t-80 -26q-51 0 -79.5 26t-28.5 68q0 31 12.5 60.5t45.5 84.5l-102 199q-13 26 -21.5 35t-20.5 9t-19.5 -2.5t-17.5 -8.5
l-30 52q33 28 75 28t68 -24t49 -77l69 -153l71 153q25 55 49.5 78t66.5 23q23 0 40.5 -7zM283.5 122q-6.5 16 -22.5 47q-3 -5 -12 -23.5t-13 -31.5t-4 -25q0 -32 29 -32t29 32q0 17 -6.5 33z" />
    <glyph glyph-name="rcaron" unicode="&#x159;" horiz-adv-x="386" 
d="M376 533l-17 -90q-24 6 -46 6q-49 0 -79 -36t-47 -112v-301h-92v527h79l9 -107q21 59 57 89t84 30q28 0 52 -6zM403 740l-135 -113h-61l-136 113l40 45l126 -84l127 84z" />
    <glyph glyph-name="rcommaaccent" unicode="&#x157;" horiz-adv-x="386" 
d="M376 533l-17 -90q-24 6 -46 6q-49 0 -79 -36t-47 -112v-301h-92v527h79l9 -107q21 59 57 89t84 30q28 0 52 -6zM184.5 -93q16.5 -16 16.5 -40q0 -13 -5.5 -29t-20.5 -48l-41 -86h-53l29 116q-24 21 -24 47q0 24 17 40t41 16t40.5 -16z" />
    <glyph glyph-name="uni027E" unicode="&#x27e;" horiz-adv-x="369" 
d="M356 503l-36 -59q-20 12 -35.5 17.5t-38.5 5.5q-64 0 -64 -74v-393h-92v385q0 76 40.5 116t110.5 40q65 0 115 -38z" />
    <glyph glyph-name="uni027D" unicode="&#x27d;" horiz-adv-x="386" 
d="M289.5 -133.5q15.5 5.5 35.5 17.5l36 -59q-50 -38 -115 -38q-70 0 -110.5 40t-40.5 116v584h79l9 -107q21 59 57 89t84 30q28 0 52 -6l-17 -90q-24 6 -46 6q-49 0 -79 -36t-47 -112v-366q0 -74 64 -74q23 0 38.5 5.5z" />
    <glyph glyph-name="uni027B" unicode="&#x27b;" horiz-adv-x="386" 
d="M465 -175q-50 -38 -115 -38q-70 0 -110.5 40t-40.5 116v154q-21 -54 -56 -81.5t-81 -27.5q-28 0 -52 6l17 90q24 -6 46 -6q49 0 79 36t47 112v301h92v-592q0 -74 64 -74q23 0 38.5 5.5t35.5 17.5z" />
    <glyph glyph-name="uni027A" unicode="&#x27a;" horiz-adv-x="386" 
d="M291 739v-739h-79l-9 107q-21 -59 -57 -89t-84 -30q-28 0 -52 6l17 90q24 -6 46 -6q49 0 79 36t47 112v524z" />
    <glyph glyph-name="uni0279" unicode="&#x279;" horiz-adv-x="386" 
d="M10 -6l17 90q24 -6 46 -6q49 0 79 36t47 112v301h92v-527h-79l-9 107q-21 -59 -57 -89t-84 -30q-28 0 -52 6z" />
    <glyph glyph-name="s" unicode="s" horiz-adv-x="467" 
d="M335 524q43 -15 82 -45l-40 -61q-35 25 -67.5 36.5t-68.5 11.5q-45 0 -71 -18.5t-26 -50.5t24.5 -50t88.5 -35q88 -22 131.5 -60t43.5 -104q0 -78 -60.5 -119t-147.5 -41q-120 0 -199 69l51 58q62 -53 146 -53q51 0 82 21t31 56q0 28 -11 45.5t-37.5 30t-79.5 26.5
q-84 22 -121.5 59.5t-37.5 94.5q0 41 24.5 74t68 51.5t97.5 18.5t97 -15z" />
    <glyph glyph-name="sacute" unicode="&#x15b;" horiz-adv-x="467" 
d="M335 524q43 -15 82 -45l-40 -61q-35 25 -67.5 36.5t-68.5 11.5q-45 0 -71 -18.5t-26 -50.5t24.5 -50t88.5 -35q88 -22 131.5 -60t43.5 -104q0 -78 -60.5 -119t-147.5 -41q-120 0 -199 69l51 58q62 -53 146 -53q51 0 82 21t31 56q0 28 -11 45.5t-37.5 30t-79.5 26.5
q-84 22 -121.5 59.5t-37.5 94.5q0 41 24.5 74t68 51.5t97.5 18.5t97 -15zM355 724l-212 -86l-28 49l199 114z" />
    <glyph glyph-name="uniA78C" unicode="&#xa78c;" horiz-adv-x="219" 
d="M60 689h99l-14 -302h-71z" />
    <glyph glyph-name="scaron" unicode="&#x161;" horiz-adv-x="467" 
d="M335 524q43 -15 82 -45l-40 -61q-35 25 -67.5 36.5t-68.5 11.5q-45 0 -71 -18.5t-26 -50.5t24.5 -50t88.5 -35q88 -22 131.5 -60t43.5 -104q0 -78 -60.5 -119t-147.5 -41q-120 0 -199 69l51 58q62 -53 146 -53q51 0 82 21t31 56q0 28 -11 45.5t-37.5 30t-79.5 26.5
q-84 22 -121.5 59.5t-37.5 94.5q0 41 24.5 74t68 51.5t97.5 18.5t97 -15zM410 740l-135 -113h-61l-136 113l40 45l126 -84l127 84z" />
    <glyph glyph-name="scedilla" unicode="&#x15f;" horiz-adv-x="467" 
d="M383 38q-49 -40 -124 -48v-46q48 -4 70.5 -27.5t22.5 -57.5q0 -48 -35 -74t-89 -26q-28 0 -52 6.5t-39 17.5l25 52q30 -16 63 -16q23 0 36.5 9.5t13.5 30.5t-21 31.5t-68 10.5l11 88q-102 7 -172 68l51 58q62 -53 146 -53q51 0 82 21t31 56q0 28 -11 45.5t-37.5 30
t-79.5 26.5q-84 22 -121.5 59.5t-37.5 94.5q0 41 24.5 74t68 51.5t97.5 18.5t97 -15t82 -45l-40 -61q-35 25 -67.5 36.5t-68.5 11.5q-45 0 -71 -18.5t-26 -50.5t24.5 -50t88.5 -35q88 -22 131.5 -60t43.5 -104q0 -70 -49 -110z" />
    <glyph glyph-name="uni025A" unicode="&#x25a;" horiz-adv-x="774" 
d="M794 351q-50 -38 -118 -38q-67 0 -104 35t-37 97v8l-62 -33q29 -62 29 -156q0 -84 -27.5 -146.5t-78.5 -96t-120 -33.5q-101 0 -160 69.5t-59 190.5q0 33 2 47h345q-5 88 -38 128.5t-94 40.5q-38 0 -70.5 -11t-64.5 -38l-42 61q78 63 179 63q105 0 163 -63l96 51h87v-70
q0 -70 64 -70q23 0 38.5 5.5t35.5 17.5zM368.5 100q32.5 39 36.5 127h-258v-8q0 -75 34.5 -116.5t94.5 -41.5t92.5 39z" />
    <glyph glyph-name="scircumflex" unicode="&#x15d;" horiz-adv-x="467" 
d="M335 524q43 -15 82 -45l-40 -61q-35 25 -67.5 36.5t-68.5 11.5q-45 0 -71 -18.5t-26 -50.5t24.5 -50t88.5 -35q88 -22 131.5 -60t43.5 -104q0 -78 -60.5 -119t-147.5 -41q-120 0 -199 69l51 58q62 -53 146 -53q51 0 82 21t31 56q0 28 -11 45.5t-37.5 30t-79.5 26.5
q-84 22 -121.5 59.5t-37.5 94.5q0 41 24.5 74t68 51.5t97.5 18.5t97 -15zM79 679l135 113h61l136 -113l-40 -45l-126 84l-127 -84z" />
    <glyph glyph-name="scommaaccent" unicode="&#x219;" horiz-adv-x="467" 
d="M335 524q43 -15 82 -45l-40 -61q-35 25 -67.5 36.5t-68.5 11.5q-45 0 -71 -18.5t-26 -50.5t24.5 -50t88.5 -35q88 -22 131.5 -60t43.5 -104q0 -78 -60.5 -119t-147.5 -41q-120 0 -199 69l51 58q62 -53 146 -53q51 0 82 21t31 56q0 28 -11 45.5t-37.5 30t-79.5 26.5
q-84 22 -121.5 59.5t-37.5 94.5q0 41 24.5 74t68 51.5t97.5 18.5t97 -15zM278.5 -93q16.5 -16 16.5 -40q0 -13 -5.5 -29t-20.5 -48l-41 -86h-53l29 116q-24 21 -24 47q0 24 17 40t41 16t40.5 -16z" />
    <glyph glyph-name="uni1E63" unicode="&#x1e63;" horiz-adv-x="467" 
d="M335 524q43 -15 82 -45l-40 -61q-35 25 -67.5 36.5t-68.5 11.5q-45 0 -71 -18.5t-26 -50.5t24.5 -50t88.5 -35q88 -22 131.5 -60t43.5 -104q0 -78 -60.5 -119t-147.5 -41q-120 0 -199 69l51 58q62 -53 146 -53q51 0 82 21t31 56q0 28 -11 45.5t-37.5 30t-79.5 26.5
q-84 22 -121.5 59.5t-37.5 94.5q0 41 24.5 74t68 51.5t97.5 18.5t97 -15zM281 -92q18 -18 18 -45t-18 -44.5t-47 -17.5q-28 0 -46 17.5t-18 44.5t18 45t46 18q29 0 47 -18z" />
    <glyph glyph-name="germandbls" unicode="&#xdf;" horiz-adv-x="593" 
d="M391.5 731q40.5 -19 62.5 -51.5t22 -72.5q0 -41 -17 -65t-49 -50q-24 -20 -34.5 -33t-10.5 -32q0 -23 17 -40t52 -41q38 -26 61.5 -47t40.5 -55t17 -82q0 -52 -24.5 -91.5t-65.5 -61t-88 -21.5q-59 0 -102 23l27 64q26 -13 66 -13q42 0 67.5 26t25.5 75q0 45 -23.5 73
t-69.5 61q-43 31 -65.5 57t-22.5 66q0 33 14 52t43 43q27 22 40 40t13 47q0 37 -26.5 56.5t-66.5 19.5q-108 0 -108 -139v-539h-92v539q0 100 52.5 155.5t148.5 55.5q55 0 95.5 -19z" />
    <glyph glyph-name="uni0282" unicode="&#x282;" horiz-adv-x="467" 
d="M117 8v-76q0 -74 64 -74q23 0 38.5 5.5t35.5 17.5l36 -59q-50 -38 -115 -38q-71 0 -111 40t-40 116v117l43 49q67 -44 154 -44q51 0 82 21t31 56q0 28 -11 45.5t-37.5 30t-79.5 26.5q-84 22 -121.5 59.5t-37.5 94.5q0 41 24.5 74t68 51.5t97.5 18.5t97 -15t82 -45
l-40 -61q-35 25 -67.5 36.5t-68.5 11.5q-45 0 -71 -18.5t-26 -50.5t24.5 -50t88.5 -35q88 -22 131.5 -60t43.5 -104q0 -53 -28.5 -89t-75.5 -53.5t-101 -17.5q-61 0 -110 20z" />
    <glyph glyph-name="uni0259" unicode="&#x259;" horiz-adv-x="559" 
d="M445 466.5q57 -72.5 57 -202.5q0 -84 -27.5 -146.5t-78.5 -96t-120 -33.5q-101 0 -160 69.5t-59 190.5q0 33 2 47h345q-5 88 -38 128.5t-94 40.5q-38 0 -70.5 -11t-64.5 -38l-42 61q78 63 179 63q114 0 171 -72.5zM368.5 100q32.5 39 36.5 127h-258v-8q0 -75 34.5 -116.5
t94.5 -41.5t92.5 39z" />
    <glyph glyph-name="t" unicode="t" horiz-adv-x="361" 
d="M361 24q-52 -36 -118 -36q-67 0 -104.5 38.5t-37.5 111.5v318h-92v71h92v119l92 11v-130h125l-10 -71h-115v-314q0 -41 14.5 -59.5t48.5 -18.5q33 0 70 23z" />
    <glyph glyph-name="tbar" unicode="&#x167;" horiz-adv-x="361" 
d="M361 24q-52 -36 -118 -36q-67 0 -104.5 38.5t-37.5 111.5v148h-81v71h81v99h-92v71h92v119l92 11v-130h125l-10 -71h-115v-99h110v-71h-110v-144q0 -41 14.5 -59.5t48.5 -18.5q33 0 70 23z" />
    <glyph glyph-name="tcaron" unicode="&#x165;" horiz-adv-x="361" 
d="M361 24q-52 -36 -118 -36q-67 0 -104.5 38.5t-37.5 111.5v318h-92v71h92v119l92 11v-130h125l-10 -71h-115v-314q0 -41 14.5 -59.5t48.5 -18.5q33 0 70 23zM327 748l-50 -184l-53 8l20 186z" />
    <glyph glyph-name="uni0163" unicode="&#x163;" horiz-adv-x="361" 
d="M328.5 -83.5q22.5 -23.5 22.5 -57.5q0 -48 -35 -74t-89 -26q-28 0 -52 6.5t-39 17.5l25 52q30 -16 63 -16q23 0 36.5 9.5t13.5 30.5t-21 31.5t-68 10.5l11 93q-45 11 -70 48t-25 96v318h-92v71h92v119l92 11v-130h125l-10 -71h-115v-314q0 -41 14.5 -59.5t48.5 -18.5
q33 0 70 23l35 -63q-47 -32 -103 -36v-44q48 -4 70.5 -27.5z" />
    <glyph glyph-name="uni1E71" unicode="&#x1e71;" horiz-adv-x="361" 
d="M361 24q-52 -36 -118 -36q-67 0 -104.5 38.5t-37.5 111.5v318h-92v71h92v119l92 11v-130h125l-10 -71h-115v-314q0 -41 14.5 -59.5t48.5 -18.5q33 0 70 23zM68 -181l135 113h61l136 -113l-40 -45l-126 84l-127 -84z" />
    <glyph glyph-name="uni021B" unicode="&#x21b;" horiz-adv-x="361" 
d="M361 24q-52 -36 -118 -36q-67 0 -104.5 38.5t-37.5 111.5v318h-92v71h92v119l92 11v-130h125l-10 -71h-115v-314q0 -41 14.5 -59.5t48.5 -18.5q33 0 70 23zM277.5 -93q16.5 -16 16.5 -40q0 -13 -5.5 -29t-20.5 -48l-41 -86h-53l29 116q-24 21 -24 47q0 24 17 40t41 16
t40.5 -16z" />
    <glyph glyph-name="uni1E6D" unicode="&#x1e6d;" horiz-adv-x="361" 
d="M361 24q-52 -36 -118 -36q-67 0 -104.5 38.5t-37.5 111.5v318h-92v71h92v119l92 11v-130h125l-10 -71h-115v-314q0 -41 14.5 -59.5t48.5 -18.5q33 0 70 23zM280 -92q18 -18 18 -45t-18 -44.5t-47 -17.5q-28 0 -46 17.5t-18 44.5t18 45t46 18q29 0 47 -18z" />
    <glyph glyph-name="uni02A7" unicode="&#x2a7;" horiz-adv-x="592" 
d="M662 712l-36 -59q-20 12 -35.5 17.5t-38.5 5.5q-64 0 -64 -74v-659q0 -76 -40.5 -116t-110.5 -40q-65 0 -115 38l36 59q20 -12 35.5 -17.5t38.5 -5.5q64 0 64 74v77q-30 -11 -58.5 -17.5t-64.5 -6.5q-87 0 -129.5 39.5t-42.5 120.5v308h-92v71h92v119l92 11v-130h203v67
q0 76 40 116t111 40q65 0 115 -38zM396 78v378h-203v-304q0 -47 19.5 -67.5t63.5 -20.5q52 0 120 14z" />
    <glyph glyph-name="uni01AD" unicode="&#x1ad;" horiz-adv-x="361" 
d="M326 87l35 -63q-52 -36 -118 -36q-67 0 -104.5 38.5t-37.5 111.5v318h-92v71h92v67q0 76 39.5 116t108.5 40q62 0 112 -38l-36 -59q-20 12 -35 17.5t-36 5.5q-28 0 -44.5 -18t-16.5 -56v-75h125l-10 -71h-115v-314q0 -41 14.5 -59.5t48.5 -18.5q33 0 70 23z" />
    <glyph glyph-name="uni1E6F" unicode="&#x1e6f;" horiz-adv-x="361" 
d="M361 24q-52 -36 -118 -36q-67 0 -104.5 38.5t-37.5 111.5v318h-92v71h92v119l92 11v-130h125l-10 -71h-115v-314q0 -41 14.5 -59.5t48.5 -18.5q33 0 70 23zM97 -173v69h273v-69h-273z" />
    <glyph glyph-name="uni0288" unicode="&#x288;" horiz-adv-x="361" 
d="M367 -175q-50 -38 -115 -38q-70 0 -110.5 40t-40.5 116v513h-92v71h92v119l92 11v-130h125l-10 -71h-115v-521q0 -74 64 -74q23 0 38.5 5.5t35.5 17.5z" />
    <glyph glyph-name="u" unicode="u" horiz-adv-x="582" 
d="M487 0h-79l-7 82q-30 -49 -69 -71.5t-95 -22.5q-69 0 -108 42t-39 119v378h92v-368q0 -54 19 -76.5t62 -22.5q77 0 132 91v376h92v-527z" />
    <glyph glyph-name="uacute" unicode="&#xfa;" horiz-adv-x="582" 
d="M487 0h-79l-7 82q-30 -49 -69 -71.5t-95 -22.5q-69 0 -108 42t-39 119v378h92v-368q0 -54 19 -76.5t62 -22.5q77 0 132 91v376h92v-527zM399 724l-212 -86l-28 49l199 114z" />
    <glyph glyph-name="uni0289" unicode="&#x289;" horiz-adv-x="607" 
d="M582 317h-85v-317h-79l-7 82q-30 -49 -69 -71.5t-95 -22.5q-69 0 -108 42t-39 119v168h-85v70h85v140h92v-140h213v140h92v-140h85v-70zM405 317h-213v-158q0 -54 19 -76.5t62 -22.5q77 0 132 91v166z" />
    <glyph glyph-name="ubreve" unicode="&#x16d;" horiz-adv-x="582" 
d="M487 0h-79l-7 82q-30 -49 -69 -71.5t-95 -22.5q-69 0 -108 42t-39 119v378h92v-368q0 -54 19 -76.5t62 -22.5q77 0 132 91v376h92v-527zM184.5 678.5q-41.5 35.5 -47.5 97.5l61 13q21 -76 89 -76q71 0 92 76l61 -13q-6 -62 -48.5 -97.5t-104.5 -35.5q-61 0 -102.5 35.5z
" />
    <glyph glyph-name="uni01D4" unicode="&#x1d4;" horiz-adv-x="582" 
d="M487 0h-79l-7 82q-30 -49 -69 -71.5t-95 -22.5q-69 0 -108 42t-39 119v378h92v-368q0 -54 19 -76.5t62 -22.5q77 0 132 91v376h92v-527zM454 740l-135 -113h-61l-136 113l40 45l126 -84l127 84z" />
    <glyph glyph-name="ucircumflex" unicode="&#xfb;" horiz-adv-x="582" 
d="M487 0h-79l-7 82q-30 -49 -69 -71.5t-95 -22.5q-69 0 -108 42t-39 119v378h92v-368q0 -54 19 -76.5t62 -22.5q77 0 132 91v376h92v-527zM123 679l135 113h61l136 -113l-40 -45l-126 84l-127 -84z" />
    <glyph glyph-name="udieresis" unicode="&#xfc;" horiz-adv-x="582" 
d="M487 0h-79l-7 82q-30 -49 -69 -71.5t-95 -22.5q-69 0 -108 42t-39 119v378h92v-368q0 -54 19 -76.5t62 -22.5q77 0 132 91v376h92v-527zM224.5 751.5q16.5 -16.5 16.5 -40.5t-16.5 -40.5t-40.5 -16.5q-25 0 -41.5 16.5t-16.5 40.5t16.5 40.5t41.5 16.5q24 0 40.5 -16.5z
M434.5 751.5q16.5 -16.5 16.5 -40.5t-16.5 -40.5t-41.5 -16.5q-24 0 -40.5 16.5t-16.5 40.5t16.5 40.5t40.5 16.5q25 0 41.5 -16.5z" />
    <glyph glyph-name="uni01D8" unicode="&#x1d8;" horiz-adv-x="582" 
d="M427 839l-136 -126l-38 35l118 145zM224.5 721.5q16.5 -16.5 16.5 -40.5t-16.5 -40.5t-40.5 -16.5q-25 0 -41.5 16.5t-16.5 40.5t16.5 40.5t41.5 16.5q24 0 40.5 -16.5zM434.5 721.5q16.5 -16.5 16.5 -40.5t-16.5 -40.5t-41.5 -16.5q-24 0 -40.5 16.5t-16.5 40.5
t16.5 40.5t40.5 16.5q25 0 41.5 -16.5zM487 0h-79l-7 82q-30 -49 -69 -71.5t-95 -22.5q-69 0 -108 42t-39 119v378h92v-368q0 -54 19 -76.5t62 -22.5q77 0 132 91v376h92v-527z" />
    <glyph glyph-name="uni01DA" unicode="&#x1da;" horiz-adv-x="582" 
d="M452 854l-135 -110h-61l-136 110l40 45l126 -81l127 81zM224.5 721.5q16.5 -16.5 16.5 -40.5t-16.5 -40.5t-40.5 -16.5q-25 0 -41.5 16.5t-16.5 40.5t16.5 40.5t41.5 16.5q24 0 40.5 -16.5zM434.5 721.5q16.5 -16.5 16.5 -40.5t-16.5 -40.5t-41.5 -16.5q-24 0 -40.5 16.5
t-16.5 40.5t16.5 40.5t40.5 16.5q25 0 41.5 -16.5zM487 0h-79l-7 82q-30 -49 -69 -71.5t-95 -22.5q-69 0 -108 42t-39 119v378h92v-368q0 -54 19 -76.5t62 -22.5q77 0 132 91v376h92v-527z" />
    <glyph glyph-name="uni01DC" unicode="&#x1dc;" horiz-adv-x="582" 
d="M327 748l-38 -35l-136 126l56 54zM224.5 721.5q16.5 -16.5 16.5 -40.5t-16.5 -40.5t-40.5 -16.5q-25 0 -41.5 16.5t-16.5 40.5t16.5 40.5t41.5 16.5q24 0 40.5 -16.5zM434.5 721.5q16.5 -16.5 16.5 -40.5t-16.5 -40.5t-41.5 -16.5q-24 0 -40.5 16.5t-16.5 40.5t16.5 40.5
t40.5 16.5q25 0 41.5 -16.5zM487 0h-79l-7 82q-30 -49 -69 -71.5t-95 -22.5q-69 0 -108 42t-39 119v378h92v-368q0 -54 19 -76.5t62 -22.5q77 0 132 91v376h92v-527z" />
    <glyph glyph-name="uni01D6" unicode="&#x1d6;" horiz-adv-x="582" 
d="M152 787v69h273v-69h-273zM224.5 721.5q16.5 -16.5 16.5 -40.5t-16.5 -40.5t-40.5 -16.5q-25 0 -41.5 16.5t-16.5 40.5t16.5 40.5t41.5 16.5q24 0 40.5 -16.5zM434.5 721.5q16.5 -16.5 16.5 -40.5t-16.5 -40.5t-41.5 -16.5q-24 0 -40.5 16.5t-16.5 40.5t16.5 40.5
t40.5 16.5q25 0 41.5 -16.5zM487 0h-79l-7 82q-30 -49 -69 -71.5t-95 -22.5q-69 0 -108 42t-39 119v378h92v-368q0 -54 19 -76.5t62 -22.5q77 0 132 91v376h92v-527z" />
    <glyph glyph-name="uni1EE5" unicode="&#x1ee5;" horiz-adv-x="582" 
d="M487 0h-79l-7 82q-30 -49 -69 -71.5t-95 -22.5q-69 0 -108 42t-39 119v378h92v-368q0 -54 19 -76.5t62 -22.5q77 0 132 91v376h92v-527zM335 -92q18 -18 18 -45t-18 -44.5t-47 -17.5q-28 0 -46 17.5t-18 44.5t18 45t46 18q29 0 47 -18z" />
    <glyph glyph-name="ugrave" unicode="&#xf9;" horiz-adv-x="582" 
d="M487 0h-79l-7 82q-30 -49 -69 -71.5t-95 -22.5q-69 0 -108 42t-39 119v378h92v-368q0 -54 19 -76.5t62 -22.5q77 0 132 91v376h92v-527zM419 687l-28 -49l-212 86l41 77z" />
    <glyph glyph-name="uni1EE7" unicode="&#x1ee7;" horiz-adv-x="582" 
d="M487 0h-79l-7 82q-30 -49 -69 -71.5t-95 -22.5q-69 0 -108 42t-39 119v378h92v-368q0 -54 19 -76.5t62 -22.5q77 0 132 91v376h92v-527zM250 705q39 5 55 13.5t16 29.5q0 18 -12 27t-32 9q-30 0 -57 -15l-22 53q41 24 94 24q51 0 79.5 -24.5t28.5 -66.5q0 -37 -21 -58.5
t-60 -27.5v-58h-69v94z" />
    <glyph glyph-name="uhorn" unicode="&#x1b0;" horiz-adv-x="601" 
d="M487 0h-79l-7 82q-30 -49 -69 -71.5t-95 -22.5q-69 0 -108 42t-39 119v378h92v-368q0 -54 19 -76.5t62 -22.5q77 0 132 91v376h92v-527zM477 473q57 3 57 51q0 23 -3.5 38.5t-10.5 33.5l72 15q19 -33 19 -82q0 -51 -32 -80t-92 -32z" />
    <glyph glyph-name="uni1EE9" unicode="&#x1ee9;" horiz-adv-x="601" 
d="M487 0h-79l-7 82q-30 -49 -69 -71.5t-95 -22.5q-69 0 -108 42t-39 119v378h92v-368q0 -54 19 -76.5t62 -22.5q77 0 132 91v376h92v-527zM477 473q57 3 57 51q0 23 -3.5 38.5t-10.5 33.5l72 15q19 -33 19 -82q0 -51 -32 -80t-92 -32zM399 724l-212 -86l-28 49l199 114z
" />
    <glyph glyph-name="uni1EF1" unicode="&#x1ef1;" horiz-adv-x="601" 
d="M487 0h-79l-7 82q-30 -49 -69 -71.5t-95 -22.5q-69 0 -108 42t-39 119v378h92v-368q0 -54 19 -76.5t62 -22.5q77 0 132 91v376h92v-527zM477 473q57 3 57 51q0 23 -3.5 38.5t-10.5 33.5l72 15q19 -33 19 -82q0 -51 -32 -80t-92 -32zM335 -92q18 -18 18 -45t-18 -44.5
t-47 -17.5q-28 0 -46 17.5t-18 44.5t18 45t46 18q29 0 47 -18z" />
    <glyph glyph-name="uni1EEB" unicode="&#x1eeb;" horiz-adv-x="601" 
d="M487 0h-79l-7 82q-30 -49 -69 -71.5t-95 -22.5q-69 0 -108 42t-39 119v378h92v-368q0 -54 19 -76.5t62 -22.5q77 0 132 91v376h92v-527zM477 473q57 3 57 51q0 23 -3.5 38.5t-10.5 33.5l72 15q19 -33 19 -82q0 -51 -32 -80t-92 -32zM419 687l-28 -49l-212 86l41 77z" />
    <glyph glyph-name="uni1EED" unicode="&#x1eed;" horiz-adv-x="601" 
d="M487 0h-79l-7 82q-30 -49 -69 -71.5t-95 -22.5q-69 0 -108 42t-39 119v378h92v-368q0 -54 19 -76.5t62 -22.5q77 0 132 91v376h92v-527zM477 473q57 3 57 51q0 23 -3.5 38.5t-10.5 33.5l72 15q19 -33 19 -82q0 -51 -32 -80t-92 -32zM250 705q39 5 55 13.5t16 29.5
q0 18 -12 27t-32 9q-30 0 -57 -15l-22 53q41 24 94 24q51 0 79.5 -24.5t28.5 -66.5q0 -37 -21 -58.5t-60 -27.5v-58h-69v94z" />
    <glyph glyph-name="uni1EEF" unicode="&#x1eef;" horiz-adv-x="601" 
d="M487 0h-79l-7 82q-30 -49 -69 -71.5t-95 -22.5q-69 0 -108 42t-39 119v378h92v-368q0 -54 19 -76.5t62 -22.5q77 0 132 91v376h92v-527zM477 473q57 3 57 51q0 23 -3.5 38.5t-10.5 33.5l72 15q19 -33 19 -82q0 -51 -32 -80t-92 -32zM312.5 663q-15.5 7 -34.5 20
q-15 11 -25.5 16t-21.5 5q-16 0 -28 -11t-25 -35l-56 28q19 40 46.5 64t62.5 24q21 0 36 -7.5t34 -20.5q3 -2 12.5 -8t17.5 -9t16 -3q15 0 27 10.5t26 33.5l56 -28q-19 -42 -47 -64t-62 -22q-19 0 -34.5 7z" />
    <glyph glyph-name="uhungarumlaut" unicode="&#x171;" horiz-adv-x="582" 
d="M487 0h-79l-7 82q-30 -49 -69 -71.5t-95 -22.5q-69 0 -108 42t-39 119v378h92v-368q0 -54 19 -76.5t62 -22.5q77 0 132 91v376h92v-527zM338 791l-96 -152l-58 25l76 168zM490 791l-106 -157l-58 25l86 173z" />
    <glyph glyph-name="umacron" unicode="&#x16b;" horiz-adv-x="582" 
d="M487 0h-79l-7 82q-30 -49 -69 -71.5t-95 -22.5q-69 0 -108 42t-39 119v378h92v-368q0 -54 19 -76.5t62 -22.5q77 0 132 91v376h92v-527zM152 667v69h273v-69h-273z" />
    <glyph glyph-name="uogonek" unicode="&#x173;" horiz-adv-x="582" 
d="M390 -57.5q-26 -26.5 -26 -56.5q0 -48 56 -48q27 0 61 7l-9 -70q-35 -7 -63 -7q-57 0 -91 28.5t-34 72.5q0 45 30 80t93 61l-6 72q-30 -49 -69 -71.5t-95 -22.5q-69 0 -108 42t-39 119v378h92v-368q0 -54 19 -76.5t62 -22.5q77 0 132 91v376h92v-527q-71 -31 -97 -57.5z
" />
    <glyph glyph-name="uni028A" unicode="&#x28a;" horiz-adv-x="583" 
d="M167 20.5q-53 32.5 -81.5 89.5t-28.5 129q0 134 90 216h-77v72h161v-70q-36 -42 -56.5 -90.5t-20.5 -126.5q0 -88 35 -133.5t102 -45.5q66 0 102 46t36 134q0 77 -20.5 125.5t-57.5 90.5v70h161v-72h-76q90 -82 90 -216q0 -71 -29 -128t-82 -90t-124 -33t-124 32.5z" />
    <glyph glyph-name="uring" unicode="&#x16f;" horiz-adv-x="582" 
d="M487 0h-79l-7 82q-30 -49 -69 -71.5t-95 -22.5q-69 0 -108 42t-39 119v378h92v-368q0 -54 19 -76.5t62 -22.5q77 0 132 91v376h92v-527zM371 805.5q32 -30.5 32 -75.5t-32 -75.5t-82 -30.5t-82 30.5t-32 75.5t32 75.5t82 30.5t82 -30.5zM250 771q-14 -15 -14 -41t14 -41
t39 -15q24 0 38.5 15t14.5 41t-14 41t-39 15t-39 -15z" />
    <glyph glyph-name="utilde" unicode="&#x169;" horiz-adv-x="582" 
d="M487 0h-79l-7 82q-30 -49 -69 -71.5t-95 -22.5q-69 0 -108 42t-39 119v378h92v-368q0 -54 19 -76.5t62 -22.5q77 0 132 91v376h92v-527zM312.5 663q-15.5 7 -34.5 20q-15 11 -25.5 16t-21.5 5q-16 0 -28 -11t-25 -35l-56 28q19 40 46.5 64t62.5 24q21 0 36 -7.5t34 -20.5
q3 -2 12.5 -8t17.5 -9t16 -3q15 0 27 10.5t26 33.5l56 -28q-19 -42 -47 -64t-62 -22q-19 0 -34.5 7z" />
    <glyph glyph-name="v" unicode="v" horiz-adv-x="492" 
d="M303 0h-111l-182 527h100l138 -445l137 445h97z" />
    <glyph glyph-name="uni028B" unicode="&#x28b;" horiz-adv-x="581" 
d="M141 33.5q-51 45.5 -51 129.5v364h92v-356q0 -109 91 -109q58 0 97 46.5t39 154.5v158q0 22 -7.5 32t-25.5 10q-19 0 -34 -6l-24 64q33 18 71 18q52 0 82 -31t30 -91v-152q0 -95 -31.5 -157t-84 -91t-116.5 -29q-77 0 -128 45.5z" />
    <glyph glyph-name="uni028C" unicode="&#x28c;" horiz-adv-x="492" 
d="M189 527h111l182 -527h-100l-138 445l-137 -445h-97z" />
    <glyph glyph-name="w" unicode="w" horiz-adv-x="717" 
d="M577 0h-125l-92 444l-95 -444h-122l-123 527h92l95 -463l104 463h103l99 -463l96 463h88z" />
    <glyph glyph-name="wacute" unicode="&#x1e83;" horiz-adv-x="717" 
d="M577 0h-125l-92 444l-95 -444h-122l-123 527h92l95 -463l104 463h103l99 -463l96 463h88zM469 724l-212 -86l-28 49l199 114z" />
    <glyph glyph-name="wcircumflex" unicode="&#x175;" horiz-adv-x="717" 
d="M577 0h-125l-92 444l-95 -444h-122l-123 527h92l95 -463l104 463h103l99 -463l96 463h88zM193 679l135 113h61l136 -113l-40 -45l-126 84l-127 -84z" />
    <glyph glyph-name="wdieresis" unicode="&#x1e85;" horiz-adv-x="717" 
d="M577 0h-125l-92 444l-95 -444h-122l-123 527h92l95 -463l104 463h103l99 -463l96 463h88zM294.5 751.5q16.5 -16.5 16.5 -40.5t-16.5 -40.5t-40.5 -16.5q-25 0 -41.5 16.5t-16.5 40.5t16.5 40.5t41.5 16.5q24 0 40.5 -16.5zM504.5 751.5q16.5 -16.5 16.5 -40.5
t-16.5 -40.5t-41.5 -16.5q-24 0 -40.5 16.5t-16.5 40.5t16.5 40.5t40.5 16.5q25 0 41.5 -16.5z" />
    <glyph glyph-name="wgrave" unicode="&#x1e81;" horiz-adv-x="717" 
d="M577 0h-125l-92 444l-95 -444h-122l-123 527h92l95 -463l104 463h103l99 -463l96 463h88zM489 687l-28 -49l-212 86l41 77z" />
    <glyph glyph-name="uni2C73" unicode="&#x2c73;" horiz-adv-x="734" 
d="M20 527h92l95 -463l104 463h103l99 -463l78 400q12 59 39 84.5t74 25.5q35 0 73 -18l-27 -62q-15 6 -34 6q-18 0 -27 -9.5t-14 -34.5l-98 -456h-125l-92 444l-95 -444h-122z" />
    <glyph glyph-name="uni028D" unicode="&#x28d;" horiz-adv-x="717" 
d="M140 527h125l92 -444l95 444h122l123 -527h-92l-95 463l-104 -463h-103l-99 463l-96 -463h-88z" />
    <glyph glyph-name="x" unicode="x" horiz-adv-x="485" 
d="M480 0h-111l-129 223l-131 -223h-104l184 278l-163 249h108l110 -193l111 193h104l-162 -245z" />
    <glyph glyph-name="y" unicode="y" horiz-adv-x="492" 
d="M306 -3q-31 -92 -86.5 -145.5t-158.5 -64.5l-10 72q52 9 83 26t49.5 43.5t34.5 71.5h-31l-177 527h98l141 -460l138 460h95z" />
    <glyph glyph-name="yacute" unicode="&#xfd;" horiz-adv-x="492" 
d="M306 -3q-31 -92 -86.5 -145.5t-158.5 -64.5l-10 72q52 9 83 26t49.5 43.5t34.5 71.5h-31l-177 527h98l141 -460l138 460h95zM356 724l-212 -86l-28 49l199 114z" />
    <glyph glyph-name="ycircumflex" unicode="&#x177;" horiz-adv-x="492" 
d="M306 -3q-31 -92 -86.5 -145.5t-158.5 -64.5l-10 72q52 9 83 26t49.5 43.5t34.5 71.5h-31l-177 527h98l141 -460l138 460h95zM80 679l135 113h61l136 -113l-40 -45l-126 84l-127 -84z" />
    <glyph glyph-name="ydieresis" unicode="&#xff;" horiz-adv-x="492" 
d="M306 -3q-31 -92 -86.5 -145.5t-158.5 -64.5l-10 72q52 9 83 26t49.5 43.5t34.5 71.5h-31l-177 527h98l141 -460l138 460h95zM181.5 751.5q16.5 -16.5 16.5 -40.5t-16.5 -40.5t-40.5 -16.5q-25 0 -41.5 16.5t-16.5 40.5t16.5 40.5t41.5 16.5q24 0 40.5 -16.5zM391.5 751.5
q16.5 -16.5 16.5 -40.5t-16.5 -40.5t-41.5 -16.5q-24 0 -40.5 16.5t-16.5 40.5t16.5 40.5t40.5 16.5q25 0 41.5 -16.5z" />
    <glyph glyph-name="uni1EF5" unicode="&#x1ef5;" horiz-adv-x="492" 
d="M306 -3q-31 -92 -86.5 -145.5t-158.5 -64.5l-10 72q52 9 83 26t49.5 43.5t34.5 71.5h-31l-177 527h98l141 -460l138 460h95zM414 -92q18 -18 18 -45t-18 -44.5t-47 -17.5q-28 0 -46 17.5t-18 44.5t18 45t46 18q29 0 47 -18z" />
    <glyph glyph-name="ygrave" unicode="&#x1ef3;" horiz-adv-x="492" 
d="M306 -3q-31 -92 -86.5 -145.5t-158.5 -64.5l-10 72q52 9 83 26t49.5 43.5t34.5 71.5h-31l-177 527h98l141 -460l138 460h95zM376 687l-28 -49l-212 86l41 77z" />
    <glyph glyph-name="uni01B4" unicode="&#x1b4;" horiz-adv-x="496" 
d="M51 -141q52 9 83 26t49.5 43.5t34.5 71.5h-31l-177 527h98l141 -460l105 397q16 60 42.5 85t74.5 25q37 0 70 -18l-24 -62q-15 6 -34 6q-17 0 -26.5 -9.5t-16.5 -34.5l-130 -450q-28 -97 -86 -152.5t-163 -66.5z" />
    <glyph glyph-name="uni1EF7" unicode="&#x1ef7;" horiz-adv-x="492" 
d="M306 -3q-31 -92 -86.5 -145.5t-158.5 -64.5l-10 72q52 9 83 26t49.5 43.5t34.5 71.5h-31l-177 527h98l141 -460l138 460h95zM207 705q39 5 55 13.5t16 29.5q0 18 -12 27t-32 9q-30 0 -57 -15l-22 53q41 24 94 24q51 0 79.5 -24.5t28.5 -66.5q0 -37 -21 -58.5t-60 -27.5
v-58h-69v94z" />
    <glyph glyph-name="uni1EF9" unicode="&#x1ef9;" horiz-adv-x="492" 
d="M306 -3q-31 -92 -86.5 -145.5t-158.5 -64.5l-10 72q52 9 83 26t49.5 43.5t34.5 71.5h-31l-177 527h98l141 -460l138 460h95zM269.5 663q-15.5 7 -34.5 20q-15 11 -25.5 16t-21.5 5q-16 0 -28 -11t-25 -35l-56 28q19 40 46.5 64t62.5 24q21 0 36 -7.5t34 -20.5
q3 -2 12.5 -8t17.5 -9t16 -3q15 0 27 10.5t26 33.5l56 -28q-19 -42 -47 -64t-62 -22q-19 0 -34.5 7z" />
    <glyph glyph-name="uni028E" unicode="&#x28e;" horiz-adv-x="492" 
d="M186 530q23 68 52 113.5t75.5 73t117.5 35.5l10 -70q-53 -9 -84 -26.5t-49.5 -47t-34.5 -81.5h32l177 -527h-98l-141 460l-138 -460h-95z" />
    <glyph glyph-name="z" unicode="z" horiz-adv-x="437" 
d="M404 457l-275 -380h278l-11 -77h-371v69l274 380h-251v78h356v-70z" />
    <glyph glyph-name="zacute" unicode="&#x17a;" horiz-adv-x="437" 
d="M404 457l-275 -380h278l-11 -77h-371v69l274 380h-251v78h356v-70zM329 724l-212 -86l-28 49l199 114z" />
    <glyph glyph-name="zcaron" unicode="&#x17e;" horiz-adv-x="437" 
d="M404 457l-275 -380h278l-11 -77h-371v69l274 380h-251v78h356v-70zM384 740l-135 -113h-61l-136 113l40 45l126 -84l127 84z" />
    <glyph glyph-name="uni0291" unicode="&#x291;" horiz-adv-x="447" 
d="M288 0q-5 -41 -5 -122h-68q0 71 5 122h-195v69l274 380h-251v78h356v-70l-275 -380h103q13 70 48.5 103.5t88.5 33.5q45 0 74 -25t29 -69q0 -118 -184 -120zM374.5 87.5q20.5 8.5 20.5 32.5q0 33 -32 33q-21 0 -37 -16.5t-24 -59.5q52 2 72.5 10.5z" />
    <glyph glyph-name="zdotaccent" unicode="&#x17c;" horiz-adv-x="437" 
d="M404 457l-275 -380h278l-11 -77h-371v69l274 380h-251v78h356v-70zM265 762q18 -18 18 -45t-18 -44.5t-47 -17.5q-28 0 -46 17.5t-18 44.5t18 45t46 18q29 0 47 -18z" />
    <glyph glyph-name="uni1E93" unicode="&#x1e93;" horiz-adv-x="437" 
d="M404 457l-275 -380h278l-11 -77h-371v69l274 380h-251v78h356v-70zM261 -92q18 -18 18 -45t-18 -44.5t-47 -17.5q-28 0 -46 17.5t-18 44.5t18 45t46 18q29 0 47 -18z" />
    <glyph glyph-name="uni0290" unicode="&#x290;" horiz-adv-x="437" 
d="M581 -175q-50 -38 -115 -38q-70 0 -110.5 40t-40.5 116v57h-290v69l274 380h-251v78h356v-70l-275 -380h278v-142q0 -74 64 -74q23 0 38.5 5.5t35.5 17.5z" />
    <glyph glyph-name="cacute.loclPLK" horiz-adv-x="478" 
d="M373 525.5q39 -13.5 75 -43.5l-45 -60q-27 21 -53 31t-59 10q-64 0 -99.5 -51t-35.5 -151t35 -147.5t100 -47.5q32 0 57.5 10t55.5 33l44 -63q-72 -58 -161 -58q-107 0 -168.5 72t-61.5 199q0 84 28 147t79.5 98t122.5 35q47 0 86 -13.5zM412 730l-131 -153l-45 28
l104 172z" />
    <glyph glyph-name="nacute.loclPLK" horiz-adv-x="586" 
d="M455.5 496q40.5 -43 40.5 -118v-378h-92v365q0 56 -21 79t-62 23q-42 0 -74 -24t-60 -69v-374h-92v527h79l8 -78q28 42 69.5 66t91.5 24q72 0 112.5 -43zM421 730l-131 -153l-45 28l104 172z" />
    <glyph glyph-name="oacute.loclPLK" horiz-adv-x="584" 
d="M465.5 465q61.5 -74 61.5 -201q0 -82 -28 -144.5t-81 -97t-126 -34.5q-111 0 -173 74t-62 201q0 82 28 144.5t81 97t127 34.5q111 0 172.5 -74zM156 263q0 -201 136 -201t136 202q0 201 -135 201q-137 0 -137 -202zM415 730l-131 -153l-45 28l104 172z" />
    <glyph glyph-name="sacute.loclPLK" horiz-adv-x="467" 
d="M335 524q43 -15 82 -45l-40 -61q-35 25 -67.5 36.5t-68.5 11.5q-45 0 -71 -18.5t-26 -50.5t24.5 -50t88.5 -35q88 -22 131.5 -60t43.5 -104q0 -78 -60.5 -119t-147.5 -41q-120 0 -199 69l51 58q62 -53 146 -53q51 0 82 21t31 56q0 28 -11 45.5t-37.5 30t-79.5 26.5
q-84 22 -121.5 59.5t-37.5 94.5q0 41 24.5 74t68 51.5t97.5 18.5t97 -15zM368 730l-131 -153l-45 28l104 172z" />
    <glyph glyph-name="zacute.loclPLK" horiz-adv-x="437" 
d="M404 457l-275 -380h278l-11 -77h-371v69l274 380h-251v78h356v-70zM342 730l-131 -153l-45 28l104 172z" />
    <glyph glyph-name="uni01A5.ss01" horiz-adv-x="594" 
d="M485 467q47 -72 47 -203q0 -124 -54 -200t-153 -76q-88 0 -138 60v-250l-92 -11v812q0 68 43.5 109.5t121.5 41.5q36 0 64.5 -6.5t61.5 -20.5l-29 -67q-45 20 -92 20q-42 0 -60 -18.5t-18 -57.5v-142q29 40 67.5 60.5t82.5 20.5q101 0 148 -72zM433 264q0 202 -119 202
q-39 0 -71 -23t-56 -59v-257q20 -31 50 -47.5t66 -16.5q130 0 130 201z" />
    <glyph glyph-name="f_i" horiz-adv-x="585" 
d="M362.5 741q34.5 -9 69.5 -27l-32 -64q-52 25 -111 25q-53 0 -73 -19t-20 -59v-70h294v-527h-92v456h-202v-456h-92v456h-84v71h84v69q0 70 45 112t137 42q42 0 76.5 -9z" />
    <glyph glyph-name="f_l" horiz-adv-x="602" 
d="M582 6q-37 -18 -78 -18q-51 0 -78 29.5t-27 86.5v555q-31 9 -57 13t-58 4q-49 0 -68.5 -18t-19.5 -58v-73h128l-10 -71h-118v-456h-92v456h-84v71h84v72q0 69 44.5 110t129.5 41q34 0 61.5 -5t59.5 -15v1l92 11v-636q0 -21 7.5 -31.5t25.5 -10.5q19 0 34 6z" />
    <glyph glyph-name="cacute.sc.loclPLK" horiz-adv-x="502" 
d="M398 560q38 -14 76 -44l-48 -57q-54 42 -114 42q-72 0 -116 -52.5t-44 -164.5t43.5 -166t116.5 -54q36 0 63.5 12.5t60.5 35.5l46 -57q-28 -29 -72.5 -47.5t-101.5 -18.5q-74 0 -131.5 34t-89.5 100.5t-32 160.5q0 91 33.5 156.5t90.5 99.5t127 34q54 0 92 -14zM434 772
l-131 -153l-45 28l104 172z" />
    <glyph glyph-name="nacute.sc.loclPLK" horiz-adv-x="625" 
d="M525 0h-123l-230 473l3 -28q1 -10 5.5 -66.5t4.5 -132.5v-246h-85v564h120l233 -475q-4 18 -8.5 78t-4.5 110v287h85v-564zM445 772l-131 -153l-45 28l104 172z" />
    <glyph glyph-name="oacute.sc.loclPLK" horiz-adv-x="619" 
d="M443.5 540q57.5 -34 89 -99.5t31.5 -157.5t-31.5 -158.5t-89 -101t-133.5 -34.5t-133.5 34t-89.5 100t-32 159q0 90 32 156t89.5 101t133.5 35t133.5 -34zM193.5 447.5q-41.5 -53.5 -41.5 -165.5q0 -114 42 -167t116 -53q157 0 157 221q0 218 -157 218
q-75 0 -116.5 -53.5zM433 772l-131 -153l-45 28l104 172z" />
    <glyph glyph-name="sacute.sc.loclPLK" horiz-adv-x="489" 
d="M349.5 557q44.5 -17 82.5 -51l-51 -55q-30 26 -62.5 38t-70.5 12q-46 0 -75 -19t-29 -55q0 -23 10.5 -38t38 -28t80.5 -29q86 -25 131 -63t45 -111q0 -76 -58 -122.5t-158 -46.5q-65 0 -117.5 19.5t-90.5 55.5l51 57q65 -59 155 -59q53 0 87.5 24t34.5 67q0 27 -10.5 44
t-37 30.5t-77.5 28.5q-93 27 -135.5 65t-42.5 101q0 45 25 79.5t69 53.5t100 19q61 0 105.5 -17zM368 772l-131 -153l-45 28l104 172z" />
    <glyph glyph-name="zacute.sc.loclPLK" horiz-adv-x="469" 
d="M424 491l-289 -414h289l-10 -77h-384v72l293 417h-263v75h364v-73zM365 772l-131 -153l-45 28l104 172z" />
    <glyph glyph-name="uni2C6D.sc" horiz-adv-x="622" 
d="M526 85.5q10 -16.5 36 -28.5l-29 -69q-46 12 -69.5 31.5t-32.5 51.5q-31 -41 -69.5 -62t-89.5 -21q-66 0 -115 34.5t-75.5 99.5t-26.5 154q0 87 27.5 154.5t79.5 105.5t124 38q49 0 83.5 -19t61.5 -53l6 62h79v-425q0 -37 10 -53.5zM362.5 80.5q32.5 19.5 61.5 58.5v293
q-27 34 -57.5 51.5t-72.5 17.5q-66 0 -103 -56.5t-37 -166.5q0 -217 130 -217q46 0 78.5 19.5z" />
    <glyph glyph-name="uni0189.sc" horiz-adv-x="562" 
d="M425 504.5q82 -59.5 82 -218.5q0 -157 -82 -221.5t-201 -64.5h-149v256h-60v69h60v239h132q136 0 218 -59.5zM361 117q49 47 49 169t-50 164.5t-135 42.5h-58v-168h111v-69h-111v-186h64q81 0 130 47z" />
    <glyph glyph-name="uni0191.sc" horiz-adv-x="449" 
d="M192 493v-180h191v-70h-191v-300q0 -76 -40.5 -116t-110.5 -40q-65 0 -115 38l36 59q20 -12 35.5 -17.5t38.5 -5.5q64 0 64 74v629h324l-11 -71h-221z" />
    <glyph glyph-name="uni0194.sc" horiz-adv-x="489" 
d="M300 60q33 -56 47.5 -94.5t14.5 -79.5q0 -46 -30 -72.5t-84 -26.5q-55 0 -84.5 26t-29.5 72q0 35 15 76t47 97l-190 507h98l144 -445l143 445h92zM272.5 -60.5q-7.5 23.5 -24.5 60.5q-18 -41 -25 -63t-7 -46q0 -17 8 -26t24 -9t24 9t8 26q0 25 -7.5 48.5z" />
    <glyph glyph-name="uniA7AA.sc" horiz-adv-x="683" 
d="M583 564v-564h-94v259h-239v-259h-92v493h-13q-54 0 -54 -50q0 -17 5 -32.5t15 -37.5l-62 -34q-20 29 -29.5 51t-9.5 50q0 56 37.5 90t103.5 34h99v-230h239v230h94z" />
    <glyph glyph-name="uniA78D.sc" horiz-adv-x="557" 
d="M457 564v-564h-92v224q-37 -26 -70.5 -37.5t-77.5 -11.5q-81 0 -129 47.5t-48 128.5v213h92v-208q0 -55 27 -80.5t81 -25.5q77 0 125 43v271h92z" />
    <glyph glyph-name="uni0196.sc" horiz-adv-x="366" 
d="M356 27q-50 -38 -115 -38q-70 0 -110.5 40t-40.5 116v419h92v-427q0 -74 64 -74q23 0 38.5 5.5t35.5 17.5z" />
    <glyph glyph-name="uni2C64.sc" horiz-adv-x="552" 
d="M256 -139q23 0 38.5 5.5t35.5 17.5l36 -59q-50 -38 -115 -38q-70 0 -110.5 40t-40.5 116v621h163q114 0 172 -41t58 -122q0 -58 -31 -94t-95 -56l160 -251h-109l-139 234h-87v-299q0 -74 64 -74zM192 495v-193h79q63 0 94.5 23t31.5 76q0 49 -32.5 71.5t-102.5 22.5h-70z
" />
    <glyph glyph-name="uni01B1.sc" horiz-adv-x="618" 
d="M175.5 21.5q-57.5 32.5 -89 93.5t-31.5 143q0 85 29 138.5t80 94.5h-92v73h183v-70q-52 -42 -77.5 -95.5t-25.5 -140.5q0 -98 41 -146.5t116 -48.5q73 0 115 49t42 146q0 85 -25.5 139.5t-77.5 96.5v70h183v-73h-92q53 -38 81 -91.5t28 -141.5q0 -80 -32 -141
t-89.5 -94.5t-132.5 -33.5q-76 0 -133.5 32.5z" />
    <glyph glyph-name="a.sc" horiz-adv-x="505" 
d="M360 137h-218l-42 -137h-94l190 564h114l189 -564h-97zM338 209l-87 281l-87 -281h174z" />
    <glyph glyph-name="aacute.sc" horiz-adv-x="505" 
d="M360 137h-218l-42 -137h-94l190 564h114l189 -564h-97zM338 209l-87 281l-87 -281h174zM373 754l-212 -86l-28 49l199 114z" />
    <glyph glyph-name="abreve.sc" horiz-adv-x="505" 
d="M360 137h-218l-42 -137h-94l190 564h114l189 -564h-97zM338 209l-87 281l-87 -281h174zM148.5 708.5q-41.5 35.5 -47.5 97.5l61 13q21 -76 89 -76q71 0 92 76l61 -13q-6 -62 -48.5 -97.5t-104.5 -35.5q-61 0 -102.5 35.5z" />
    <glyph glyph-name="uni1EAF.sc" horiz-adv-x="505" 
d="M249 765l-38 35l118 145l56 -54zM149 669q-42 34 -48 89l61 13q23 -66 89 -66q34 0 57.5 17.5t34.5 48.5l61 -13q-6 -55 -49 -89t-104 -34q-60 0 -102 34zM360 137h-218l-42 -137h-94l190 564h114l189 -564h-97zM338 209l-87 281l-87 -281h174z" />
    <glyph glyph-name="uni1EB7.sc" horiz-adv-x="505" 
d="M360 137h-218l-42 -137h-94l190 564h114l189 -564h-97zM338 209l-87 281l-87 -281h174zM297 -92q18 -18 18 -45t-18 -44.5t-47 -17.5q-28 0 -46 17.5t-18 44.5t18 45t46 18q29 0 47 -18zM148.5 708.5q-41.5 35.5 -47.5 97.5l61 13q21 -76 89 -76q71 0 92 76l61 -13
q-6 -62 -48.5 -97.5t-104.5 -35.5q-61 0 -102.5 35.5z" />
    <glyph glyph-name="uni1EB1.sc" horiz-adv-x="505" 
d="M252 765l-136 126l56 54l118 -145zM149 669q-42 34 -48 89l61 13q23 -66 89 -66q34 0 57.5 17.5t34.5 48.5l61 -13q-6 -55 -49 -89t-104 -34q-60 0 -102 34zM360 137h-218l-42 -137h-94l190 564h114l189 -564h-97zM338 209l-87 281l-87 -281h174z" />
    <glyph glyph-name="uni1EB3.sc" horiz-adv-x="505" 
d="M182 911l-22 53q41 24 94 24q51 0 79.5 -24.5t28.5 -66.5q0 -37 -21 -58.5t-60 -27.5v-58h-69v94q39 5 55 13.5t16 29.5q0 18 -12 27t-32 9q-30 0 -57 -15zM149 669q-42 34 -48 89l61 13q23 -66 89 -66q34 0 57.5 17.5t34.5 48.5l61 -13q-6 -55 -49 -89t-104 -34
q-60 0 -102 34zM360 137h-218l-42 -137h-94l190 564h114l189 -564h-97zM338 209l-87 281l-87 -281h174z" />
    <glyph glyph-name="uni1EB5.sc" horiz-adv-x="505" 
d="M165 835q-12 -11 -25 -35l-56 28q19 40 46.5 64t62.5 24q21 0 36 -7.5t34 -20.5q3 -2 12.5 -8t17.5 -9t16 -3q15 0 27 10.5t26 33.5l56 -28q-19 -42 -47 -64t-62 -22q-19 0 -34.5 7t-34.5 20q-15 11 -25.5 16t-21.5 5q-16 0 -28 -11zM308.5 722.5q23.5 17.5 34.5 48.5
l61 -13q-6 -55 -49 -89t-104 -34q-60 0 -102 34t-48 89l61 13q23 -66 89 -66q34 0 57.5 17.5zM360 137h-218l-42 -137h-94l190 564h114l189 -564h-97zM338 209l-87 281l-87 -281h174z" />
    <glyph glyph-name="uni01CE.sc" horiz-adv-x="505" 
d="M360 137h-218l-42 -137h-94l190 564h114l189 -564h-97zM338 209l-87 281l-87 -281h174zM418 777l-135 -113h-61l-136 113l40 45l126 -84l127 84z" />
    <glyph glyph-name="acircumflex.sc" horiz-adv-x="505" 
d="M360 137h-218l-42 -137h-94l190 564h114l189 -564h-97zM338 209l-87 281l-87 -281h174zM87 709l135 113h61l136 -113l-40 -45l-126 84l-127 -84z" />
    <glyph glyph-name="uni1EA5.sc" horiz-adv-x="505" 
d="M379 749l-38 35l118 145l56 -54zM122 626l-40 45l136 110h61l135 -110l-39 -45l-127 81zM310 564l189 -564h-97l-42 137h-218l-42 -137h-94l190 564h114zM338 209l-87 281l-87 -281h174z" />
    <glyph glyph-name="uni1EAD.sc" horiz-adv-x="505" 
d="M360 137h-218l-42 -137h-94l190 564h114l189 -564h-97zM338 209l-87 281l-87 -281h174zM297 -92q18 -18 18 -45t-18 -44.5t-47 -17.5q-28 0 -46 17.5t-18 44.5t18 45t46 18q29 0 47 -18zM87 709l135 113h61l136 -113l-40 -45l-126 84l-127 -84z" />
    <glyph glyph-name="uni1EA7.sc" horiz-adv-x="505" 
d="M118 749l-136 126l56 54l118 -145zM82 671l136 110h61l135 -110l-39 -45l-127 81l-126 -81zM360 137h-218l-42 -137h-94l190 564h114l189 -564h-97zM338 209l-87 281l-87 -281h174z" />
    <glyph glyph-name="uni1EA9.sc" horiz-adv-x="505" 
d="M332 911l-22 53q41 24 94 24q51 0 79.5 -24.5t28.5 -66.5q0 -37 -21 -58.5t-60 -27.5v-58h-69v94q39 5 55 13.5t16 29.5q0 18 -12 27t-32 9q-30 0 -57 -15zM122 626l-40 45l136 110h61l135 -110l-39 -45l-127 81zM310 564l189 -564h-97l-42 137h-218l-42 -137h-94
l190 564h114zM338 209l-87 281l-87 -281h174z" />
    <glyph glyph-name="uni1EAB.sc" horiz-adv-x="505" 
d="M163 831q-12 -11 -25 -35l-56 28q19 40 46.5 64t62.5 24q21 0 36 -7.5t34 -20.5q3 -2 12.5 -8t17.5 -9t16 -3q15 0 27 10.5t26 33.5l56 -28q-19 -42 -47 -64t-62 -22q-19 0 -34.5 7t-34.5 20q-15 11 -25.5 16t-21.5 5q-16 0 -28 -11zM122 616l-40 45l136 110h61l135 -110
l-39 -45l-127 81zM360 137h-218l-42 -137h-94l190 564h114l189 -564h-97zM338 209l-87 281l-87 -281h174z" />
    <glyph glyph-name="adieresis.sc" horiz-adv-x="505" 
d="M360 137h-218l-42 -137h-94l190 564h114l189 -564h-97zM338 209l-87 281l-87 -281h174zM188.5 781.5q16.5 -16.5 16.5 -40.5t-16.5 -40.5t-40.5 -16.5q-25 0 -41.5 16.5t-16.5 40.5t16.5 40.5t41.5 16.5q24 0 40.5 -16.5zM398.5 781.5q16.5 -16.5 16.5 -40.5t-16.5 -40.5
t-41.5 -16.5q-24 0 -40.5 16.5t-16.5 40.5t16.5 40.5t40.5 16.5q25 0 41.5 -16.5z" />
    <glyph glyph-name="uni01DF.sc" horiz-adv-x="505" 
d="M389 824h-273v69h273v-69zM106.5 677.5q-16.5 16.5 -16.5 40.5t16.5 40.5t41.5 16.5q24 0 40.5 -16.5t16.5 -40.5t-16.5 -40.5t-40.5 -16.5q-25 0 -41.5 16.5zM316.5 758.5q16.5 16.5 40.5 16.5q25 0 41.5 -16.5t16.5 -40.5t-16.5 -40.5t-41.5 -16.5q-24 0 -40.5 16.5
t-16.5 40.5t16.5 40.5zM360 137h-218l-42 -137h-94l190 564h114l189 -564h-97zM338 209l-87 281l-87 -281h174z" />
    <glyph glyph-name="uni1EA1.sc" horiz-adv-x="505" 
d="M360 137h-218l-42 -137h-94l190 564h114l189 -564h-97zM338 209l-87 281l-87 -281h174zM297 -92q18 -18 18 -45t-18 -44.5t-47 -17.5q-28 0 -46 17.5t-18 44.5t18 45t46 18q29 0 47 -18z" />
    <glyph glyph-name="agrave.sc" horiz-adv-x="505" 
d="M360 137h-218l-42 -137h-94l190 564h114l189 -564h-97zM338 209l-87 281l-87 -281h174zM373 717l-28 -49l-212 86l41 77z" />
    <glyph glyph-name="uni1EA3.sc" horiz-adv-x="505" 
d="M360 137h-218l-42 -137h-94l190 564h114l189 -564h-97zM338 209l-87 281l-87 -281h174zM214 742q39 5 55 13.5t16 29.5q0 18 -12 27t-32 9q-30 0 -57 -15l-22 53q41 24 94 24q51 0 79.5 -24.5t28.5 -66.5q0 -37 -21 -58.5t-60 -27.5v-58h-69v94z" />
    <glyph glyph-name="amacron.sc" horiz-adv-x="505" 
d="M360 137h-218l-42 -137h-94l190 564h114l189 -564h-97zM338 209l-87 281l-87 -281h174zM116 697v69h273v-69h-273z" />
    <glyph glyph-name="aogonek.sc" horiz-adv-x="505" 
d="M372 -57.5q-26 -26.5 -26 -56.5q0 -48 56 -48q27 0 61 7l-9 -70q-35 -7 -63 -7q-57 0 -91 28.5t-34 72.5q0 47 32.5 82.5t99.5 61.5l-38 124h-218l-42 -137h-94l190 564h114l189 -564h-30q-71 -31 -97 -57.5zM338 209l-87 281l-87 -281h174z" />
    <glyph glyph-name="aring.sc" horiz-adv-x="505" 
d="M360 137h-218l-42 -137h-94l190 564h114l189 -564h-97zM338 209l-87 281l-87 -281h174zM335 835.5q32 -30.5 32 -75.5t-32 -75.5t-82 -30.5t-82 30.5t-32 75.5t32 75.5t82 30.5t82 -30.5zM214 801q-14 -15 -14 -41t14 -41t39 -15q24 0 38.5 15t14.5 41t-14 41t-39 15
t-39 -15z" />
    <glyph glyph-name="uni0251.sc" horiz-adv-x="622" 
d="M526 85.5q10 -16.5 36 -28.5l-29 -69q-46 12 -69.5 31.5t-32.5 51.5q-31 -41 -69.5 -62t-89.5 -21q-66 0 -115 34.5t-75.5 99.5t-26.5 154q0 87 27.5 154.5t79.5 105.5t124 38q49 0 83.5 -19t61.5 -53l6 62h79v-425q0 -37 10 -53.5zM362.5 80.5q32.5 19.5 61.5 58.5v293
q-27 34 -57.5 51.5t-72.5 17.5q-66 0 -103 -56.5t-37 -166.5q0 -217 130 -217q46 0 78.5 19.5z" />
    <glyph glyph-name="atilde.sc" horiz-adv-x="505" 
d="M360 137h-218l-42 -137h-94l190 564h114l189 -564h-97zM338 209l-87 281l-87 -281h174zM276.5 693q-15.5 7 -34.5 20q-15 11 -25.5 16t-21.5 5q-16 0 -28 -11t-25 -35l-56 28q19 40 46.5 64t62.5 24q21 0 36 -7.5t34 -20.5q3 -2 12.5 -8t17.5 -9t16 -3q15 0 27 10.5
t26 33.5l56 -28q-19 -42 -47 -64t-62 -22q-19 0 -34.5 7z" />
    <glyph glyph-name="ae.sc" horiz-adv-x="720" 
d="M666 71v-71h-272l-32 137h-224l-54 -137h-96l237 564h406l-10 -71h-256l41 -171h218v-71h-202l43 -180h201zM345 209l-67 283l-112 -283h179z" />
    <glyph glyph-name="aeacute.sc" horiz-adv-x="720" 
d="M666 71v-71h-272l-32 137h-224l-54 -137h-96l237 564h406l-10 -71h-256l41 -171h218v-71h-202l43 -180h201zM345 209l-67 283l-112 -283h179zM523 754l-212 -86l-28 49l199 114z" />
    <glyph glyph-name="b.sc" horiz-adv-x="555" 
d="M510 162q0 -87 -63.5 -124.5t-176.5 -37.5h-170v564h146q238 0 238 -146q0 -52 -30 -79t-80 -40q136 -25 136 -137zM192 494v-165h84q51 0 82.5 22t31.5 63q0 45 -33.5 62.5t-101.5 17.5h-63zM376.5 90.5q36.5 19.5 36.5 73.5q0 52 -35.5 75t-93.5 23h-92v-191h78
q70 0 106.5 19.5z" />
    <glyph glyph-name="uni1E05.sc" horiz-adv-x="555" 
d="M510 162q0 -87 -63.5 -124.5t-176.5 -37.5h-170v564h146q238 0 238 -146q0 -52 -30 -79t-80 -40q136 -25 136 -137zM192 494v-165h84q51 0 82.5 22t31.5 63q0 45 -33.5 62.5t-101.5 17.5h-63zM376.5 90.5q36.5 19.5 36.5 73.5q0 52 -35.5 75t-93.5 23h-92v-191h78
q70 0 106.5 19.5zM336 -92q18 -18 18 -45t-18 -44.5t-47 -17.5q-28 0 -46 17.5t-18 44.5t18 45t46 18q29 0 47 -18z" />
    <glyph glyph-name="uni0253.sc" horiz-adv-x="613" 
d="M568 162q0 -87 -63.5 -124.5t-176.5 -37.5h-170v493h-13q-54 0 -54 -50q0 -17 5 -32.5t15 -37.5l-62 -34q-20 29 -29.5 51t-9.5 50q0 56 37.5 90t103.5 34h153q238 0 238 -146q0 -52 -30 -79t-80 -40q136 -25 136 -137zM250 494v-165h84q51 0 82.5 22t31.5 63
q0 45 -33.5 62.5t-101.5 17.5h-63zM434.5 90.5q36.5 19.5 36.5 73.5q0 52 -35.5 75t-93.5 23h-92v-191h78q70 0 106.5 19.5z" />
    <glyph glyph-name="uni0180.sc" horiz-adv-x="547" 
d="M502 162q0 -87 -63.5 -124.5t-176.5 -37.5h-170v138h-72v60h72v366h146q238 0 238 -146q0 -52 -30 -79t-80 -40q136 -25 136 -137zM184 494v-165h84q51 0 82.5 22t31.5 63q0 45 -33.5 62.5t-101.5 17.5h-63zM368.5 90.5q36.5 19.5 36.5 73.5q0 52 -35.5 75t-93.5 23h-92
v-64h131v-60h-131v-67h78q70 0 106.5 19.5z" />
    <glyph glyph-name="c.sc" horiz-adv-x="502" 
d="M398 560q38 -14 76 -44l-48 -57q-54 42 -114 42q-72 0 -116 -52.5t-44 -164.5t43.5 -166t116.5 -54q36 0 63.5 12.5t60.5 35.5l46 -57q-28 -29 -72.5 -47.5t-101.5 -18.5q-74 0 -131.5 34t-89.5 100.5t-32 160.5q0 91 33.5 156.5t90.5 99.5t127 34q54 0 92 -14z" />
    <glyph glyph-name="cacute.sc" horiz-adv-x="502" 
d="M398 560q38 -14 76 -44l-48 -57q-54 42 -114 42q-72 0 -116 -52.5t-44 -164.5t43.5 -166t116.5 -54q36 0 63.5 12.5t60.5 35.5l46 -57q-28 -29 -72.5 -47.5t-101.5 -18.5q-74 0 -131.5 34t-89.5 100.5t-32 160.5q0 91 33.5 156.5t90.5 99.5t127 34q54 0 92 -14zM431 754
l-212 -86l-28 49l199 114z" />
    <glyph glyph-name="ccaron.sc" horiz-adv-x="502" 
d="M398 560q38 -14 76 -44l-48 -57q-54 42 -114 42q-72 0 -116 -52.5t-44 -164.5t43.5 -166t116.5 -54q36 0 63.5 12.5t60.5 35.5l46 -57q-28 -29 -72.5 -47.5t-101.5 -18.5q-74 0 -131.5 34t-89.5 100.5t-32 160.5q0 91 33.5 156.5t90.5 99.5t127 34q54 0 92 -14zM477 770
l-135 -113h-61l-136 113l40 45l126 -84l127 84z" />
    <glyph glyph-name="ccedilla.sc" horiz-adv-x="502" 
d="M419 11.5q-38 -17.5 -87 -21.5v-46q48 -4 70.5 -27.5t22.5 -57.5q0 -48 -35 -74t-89 -26q-28 0 -52 6.5t-39 17.5l25 52q30 -16 63 -16q23 0 36.5 9.5t13.5 30.5t-21 31.5t-68 10.5l11 90q-98 13 -156.5 89t-58.5 204q0 91 33.5 156.5t90.5 99.5t127 34q54 0 92 -14
t76 -44l-48 -57q-54 42 -114 42q-72 0 -116 -52.5t-44 -164.5t43.5 -166t116.5 -54q36 0 63.5 12.5t60.5 35.5l46 -57q-25 -26 -63 -43.5z" />
    <glyph glyph-name="ccircumflex.sc" horiz-adv-x="502" 
d="M398 560q38 -14 76 -44l-48 -57q-54 42 -114 42q-72 0 -116 -52.5t-44 -164.5t43.5 -166t116.5 -54q36 0 63.5 12.5t60.5 35.5l46 -57q-28 -29 -72.5 -47.5t-101.5 -18.5q-74 0 -131.5 34t-89.5 100.5t-32 160.5q0 91 33.5 156.5t90.5 99.5t127 34q54 0 92 -14zM145 709
l135 113h61l136 -113l-40 -45l-126 84l-127 -84z" />
    <glyph glyph-name="cdotaccent.sc" horiz-adv-x="502" 
d="M398 560q38 -14 76 -44l-48 -57q-54 42 -114 42q-72 0 -116 -52.5t-44 -164.5t43.5 -166t116.5 -54q36 0 63.5 12.5t60.5 35.5l46 -57q-28 -29 -72.5 -47.5t-101.5 -18.5q-74 0 -131.5 34t-89.5 100.5t-32 160.5q0 91 33.5 156.5t90.5 99.5t127 34q54 0 92 -14zM357 792
q18 -18 18 -45t-18 -44.5t-47 -17.5q-28 0 -46 17.5t-18 44.5t18 45t46 18q29 0 47 -18z" />
    <glyph glyph-name="uni0188.sc" horiz-adv-x="502" 
d="M648 679l-36 -56q-20 12 -35.5 17.5t-38.5 5.5q-64 0 -64 -74v-56l-39 -47q-61 32 -123 32q-72 0 -116 -52.5t-44 -164.5t43.5 -166t116.5 -54q36 0 63.5 12.5t60.5 35.5l46 -57q-28 -29 -72.5 -47.5t-101.5 -18.5q-74 0 -131.5 34t-89.5 100.5t-32 160.5
q0 91 33.5 156.5t90 99.5t125.5 34q48 0 82 -15v2q0 75 37.5 115.5t109.5 40.5q65 0 115 -38z" />
    <glyph glyph-name="d.sc" horiz-adv-x="587" 
d="M450 504.5q82 -59.5 82 -218.5q0 -157 -82 -221.5t-201 -64.5h-149v564h132q136 0 218 -59.5zM192 493v-423h64q81 0 130 47t49 169t-50 164.5t-135 42.5h-58z" />
    <glyph glyph-name="eth.sc" horiz-adv-x="562" 
d="M425 504.5q82 -59.5 82 -218.5q0 -157 -82 -221.5t-201 -64.5h-149v256h-60v69h60v239h132q136 0 218 -59.5zM361 117q49 47 49 169t-50 164.5t-135 42.5h-58v-168h111v-69h-111v-186h64q81 0 130 47z" />
    <glyph glyph-name="dcaron.sc" horiz-adv-x="587" 
d="M450 504.5q82 -59.5 82 -218.5q0 -157 -82 -221.5t-201 -64.5h-149v564h132q136 0 218 -59.5zM192 493v-423h64q81 0 130 47t49 169t-50 164.5t-135 42.5h-58zM445 770l-135 -113h-61l-136 113l40 45l126 -84l127 84z" />
    <glyph glyph-name="uni1E13.sc" horiz-adv-x="587" 
d="M450 504.5q82 -59.5 82 -218.5q0 -157 -82 -221.5t-201 -64.5h-149v564h132q136 0 218 -59.5zM192 493v-423h64q81 0 130 47t49 169t-50 164.5t-135 42.5h-58zM123 -181l135 113h61l136 -113l-40 -45l-126 84l-127 -84z" />
    <glyph glyph-name="dcroat.sc" horiz-adv-x="562" 
d="M425 504.5q82 -59.5 82 -218.5q0 -157 -82 -221.5t-201 -64.5h-149v256h-60v69h60v239h132q136 0 218 -59.5zM361 117q49 47 49 169t-50 164.5t-135 42.5h-58v-168h111v-69h-111v-186h64q81 0 130 47z" />
    <glyph glyph-name="uni1E0D.sc" horiz-adv-x="587" 
d="M450 504.5q82 -59.5 82 -218.5q0 -157 -82 -221.5t-201 -64.5h-149v564h132q136 0 218 -59.5zM192 493v-423h64q81 0 130 47t49 169t-50 164.5t-135 42.5h-58zM335 -92q18 -18 18 -45t-18 -44.5t-47 -17.5q-28 0 -46 17.5t-18 44.5t18 45t46 18q29 0 47 -18z" />
    <glyph glyph-name="uni0257.sc" horiz-adv-x="645" 
d="M508 504.5q82 -59.5 82 -218.5q0 -157 -82 -221.5t-201 -64.5h-149v493h-13q-54 0 -54 -50q0 -17 5 -32.5t15 -37.5l-62 -34q-20 29 -29.5 51t-9.5 50q0 56 37.5 90t103.5 34h139q136 0 218 -59.5zM444 117q49 47 49 169t-50 164.5t-135 42.5h-58v-423h64q81 0 130 47z
" />
    </font>
</defs>
</svg>
